<svg width="36" height="36" viewBox="0 0 36 36" fill="none" xmlns="http://www.w3.org/2000/svg">
<path d="M29.055 12.4125V13.1625C29.055 20.715 23.325 29.37 12.84 29.37C9.74471 29.3767 6.71515 28.4772 4.125 26.7825C4.57483 26.8436 5.02858 26.8712 5.4825 26.865C8.04826 26.8721 10.5419 26.0162 12.5625 24.435C11.3705 24.4174 10.2144 24.0246 9.25842 23.3123C8.30246 22.6001 7.59532 21.6047 7.2375 20.4675C7.59256 20.5428 7.95455 20.5805 8.3175 20.58C8.82432 20.5801 9.32885 20.512 9.8175 20.3775C8.52644 20.1201 7.36494 19.4221 6.53175 18.4028C5.69856 17.3836 5.24547 16.1065 5.25 14.79V14.715C6.0399 15.1562 6.92548 15.3982 7.83 15.42C6.62595 14.6277 5.76988 13.4055 5.43673 12.0031C5.10357 10.6008 5.31846 9.1242 6.0375 7.87499C7.47019 9.63711 9.25769 11.078 11.2838 12.104C13.3099 13.1299 15.5292 13.718 17.7975 13.83C17.6852 13.4043 17.6322 12.9652 17.64 12.525C17.5978 11.3617 17.9151 10.2136 18.5488 9.23711C19.1825 8.26062 20.1017 7.50315 21.1813 7.06786C22.261 6.63256 23.4485 6.54058 24.5823 6.80445C25.7161 7.06832 26.741 7.67522 27.5175 8.54249C28.7938 8.28492 30.0182 7.81597 31.14 7.15499C30.7146 8.49852 29.8096 9.63847 28.5975 10.3575C29.7297 10.2015 30.8335 9.88322 31.875 9.41249C31.1202 10.5717 30.1654 11.5875 29.055 12.4125V12.4125Z" stroke="#ED1B24" stroke-linecap="round" stroke-linejoin="round"/>
</svg>
