<svg width="352" height="260" viewBox="0 0 352 260" fill="none" xmlns="http://www.w3.org/2000/svg">
<path d="M205.825 50.4721C183.671 49.1561 162.734 42.0227 142.766 34.2978C122.798 26.5728 103.043 18.0784 81.5053 13.6844C67.6527 10.858 51.7417 10.0747 40.3403 16.5972C29.3637 22.8866 25.564 34.1288 23.4 44.6094C21.7704 52.4932 20.7118 60.8101 24.3722 68.3311C26.9164 73.555 31.5594 78.0144 34.7194 83.0387C45.7138 100.517 37.0253 121.459 24.1413 137.875C18.1007 145.577 11.1278 152.897 6.39927 161.134C1.67077 169.372 -0.672907 178.91 3.02855 187.555C6.69423 196.131 15.8142 202.735 25.7602 207.482C45.96 217.125 69.9766 220.385 93.4419 222.503C145.369 227.193 197.699 227.221 249.892 227.245C269.208 227.253 288.607 227.256 307.669 225.047C318.256 223.82 329.207 221.713 337.024 216.109C346.943 208.997 349.695 196.567 343.437 187.133C332.943 171.31 302.859 166.624 295.674 149.756C291.726 140.469 296.321 130.376 302.663 122.038C316.266 104.157 338.664 88.7562 340.393 67.9369C341.582 53.6378 331.421 39.0043 315.286 31.7772C298.376 24.2054 274.626 24.4431 261.688 35.8544C248.353 47.6031 225.387 51.6321 205.825 50.4721Z" fill="#ED1B24" fill-opacity="0.16"/>
<path d="M186.411 177.596H76.7361C75.8764 177.594 75.0523 177.281 74.4444 176.724C73.8365 176.168 73.4943 175.413 73.4928 174.626V33.4828C73.5018 32.7002 73.8472 31.9525 74.4543 31.4015C75.0614 30.8506 75.8813 30.5409 76.7361 30.5396H186.411C187.27 30.541 188.094 30.8544 188.701 31.4111C189.308 31.9678 189.649 32.7222 189.649 33.5088V174.626C189.649 175.413 189.308 176.167 188.701 176.724C188.094 177.281 187.27 177.594 186.411 177.596ZM76.7361 30.6436C75.914 30.645 75.1261 30.9445 74.5448 31.4767C73.9635 32.0088 73.6363 32.7302 73.6348 33.4828V174.626C73.6363 175.379 73.9635 176.1 74.5448 176.632C75.1261 177.165 75.914 177.464 76.7361 177.466H186.411C187.233 177.464 188.02 177.164 188.6 176.632C189.181 176.1 189.507 175.378 189.507 174.626V33.4828C189.507 32.7307 189.181 32.0093 188.6 31.477C188.02 30.9447 187.233 30.645 186.411 30.6436H76.7361Z" fill="#E6E6E6"/>
<path d="M309.27 177.596H199.589C198.73 177.594 197.906 177.281 197.299 176.724C196.692 176.167 196.351 175.413 196.351 174.626V33.4828C196.359 32.7007 196.703 31.9529 197.309 31.4019C197.915 30.8508 198.735 30.5409 199.589 30.5396H309.27C310.124 30.5409 310.943 30.8508 311.549 31.4019C312.156 31.9529 312.5 32.7007 312.507 33.4828V174.626C312.507 175.413 312.166 176.167 311.559 176.724C310.952 177.281 310.129 177.594 309.27 177.596ZM199.589 30.6436C198.767 30.645 197.98 30.9447 197.4 31.477C196.819 32.0093 196.493 32.7307 196.493 33.4828V174.626C196.493 175.378 196.819 176.1 197.4 176.632C197.98 177.164 198.767 177.464 199.589 177.466H309.27C310.092 177.464 310.881 177.165 311.463 176.633C312.045 176.101 312.374 175.379 312.377 174.626V33.4828C312.374 32.7297 312.045 32.0084 311.463 31.4764C310.881 30.9444 310.092 30.645 309.27 30.6436H199.589Z" fill="#E6E6E6"/>
<path d="M169.002 102.679L168.224 163.8C165.475 184.137 126.095 200.283 126.095 200.283C126.095 200.283 86.7102 184.153 83.944 163.8L83.1431 102.679L125.232 89.9964L169.002 102.679Z" fill="#F5F5F5"/>
<path d="M163.509 106.548L162.834 161.429C160.437 179.166 126.09 193.248 126.09 193.248C126.09 193.248 91.7426 179.166 89.3514 161.429L88.63 106.548L125.34 95.4876L163.509 106.548Z" fill="#E0E0E0"/>
<path d="M161.101 110.011L160.465 160.394C158.193 177.034 126.016 190.221 126.016 190.221C126.016 190.221 93.8158 177.018 91.5722 160.394L90.8963 110.011L125.311 99.6424L161.101 110.011Z" stroke="white" stroke-width="3" stroke-linecap="round" stroke-linejoin="round"/>
<path d="M301.102 82.0508H225.342V203.752H301.102V82.0508Z" fill="#F5F5F5"/>
<path d="M295.609 86.8348H230.942V203.752H295.609V86.8348Z" fill="#E0E0E0"/>
<path d="M232.76 204.272C232.647 204.272 232.534 204.251 232.431 204.209C232.328 204.172 232.235 204.115 232.158 204.043C232.075 203.972 232.011 203.885 231.97 203.788C231.93 203.694 231.908 203.593 231.908 203.492C231.908 203.376 231.936 203.263 231.99 203.159C232.044 203.055 232.122 202.963 232.219 202.89C232.316 202.817 232.43 202.764 232.552 202.736C232.674 202.708 232.801 202.705 232.925 202.727L233.084 202.769L233.231 202.842C233.277 202.872 233.321 202.905 233.362 202.94C233.402 202.975 233.437 203.016 233.464 203.06C233.497 203.102 233.524 203.147 233.544 203.195C233.567 203.242 233.584 203.291 233.595 203.341C233.601 203.391 233.601 203.441 233.595 203.492C233.595 203.594 233.572 203.695 233.527 203.788C233.486 203.883 233.424 203.97 233.345 204.043C233.189 204.184 232.98 204.266 232.76 204.272Z" fill="white"/>
<path d="M231.897 184.335C231.897 184.232 231.92 184.13 231.964 184.035C232.008 183.941 232.072 183.855 232.152 183.783C232.232 183.711 232.327 183.654 232.432 183.616C232.536 183.578 232.648 183.559 232.76 183.56C232.986 183.56 233.203 183.642 233.362 183.788C233.522 183.935 233.612 184.133 233.612 184.34C233.612 184.547 233.522 184.745 233.362 184.892C233.203 185.038 232.986 185.12 232.76 185.12C232.647 185.121 232.534 185.102 232.429 185.063C232.324 185.024 232.229 184.967 232.148 184.893C232.068 184.82 232.004 184.733 231.961 184.637C231.918 184.541 231.896 184.439 231.897 184.335ZM231.897 165.183C231.897 164.976 231.986 164.778 232.146 164.632C232.306 164.485 232.523 164.403 232.749 164.403C232.975 164.403 233.191 164.485 233.351 164.632C233.511 164.778 233.601 164.976 233.601 165.183C233.601 165.39 233.511 165.588 233.351 165.735C233.191 165.881 232.975 165.963 232.749 165.963C232.523 165.963 232.306 165.881 232.146 165.735C231.986 165.588 231.897 165.39 231.897 165.183ZM231.897 146.026C231.897 145.82 231.986 145.621 232.146 145.475C232.306 145.329 232.523 145.246 232.749 145.246C232.975 145.246 233.191 145.329 233.351 145.475C233.511 145.621 233.601 145.82 233.601 146.026C233.601 146.233 233.511 146.432 233.351 146.578C233.191 146.724 232.975 146.806 232.749 146.806C232.637 146.806 232.526 146.786 232.423 146.747C232.319 146.708 232.225 146.65 232.146 146.578C232.067 146.505 232.004 146.42 231.961 146.325C231.919 146.23 231.897 146.129 231.897 146.026ZM231.897 126.87C231.897 126.663 231.986 126.464 232.146 126.318C232.306 126.172 232.523 126.09 232.749 126.09C232.975 126.09 233.191 126.172 233.351 126.318C233.511 126.464 233.601 126.663 233.601 126.87C233.601 127.076 233.511 127.275 233.351 127.421C233.191 127.567 232.975 127.65 232.749 127.65C232.525 127.65 232.31 127.569 232.15 127.425C231.991 127.281 231.9 127.085 231.897 126.88V126.87ZM231.897 107.718C231.897 107.511 231.986 107.313 232.146 107.166C232.306 107.02 232.523 106.938 232.749 106.938C232.975 106.938 233.191 107.02 233.351 107.166C233.511 107.313 233.601 107.511 233.601 107.718C233.601 107.925 233.511 108.123 233.351 108.27C233.191 108.416 232.975 108.498 232.749 108.498C232.637 108.498 232.526 108.478 232.423 108.439C232.319 108.399 232.225 108.342 232.146 108.27C232.067 108.197 232.004 108.111 231.961 108.016C231.919 107.922 231.897 107.82 231.897 107.718Z" fill="white"/>
<path d="M232.76 89.3412C232.648 89.3417 232.537 89.3217 232.434 89.2824C232.33 89.2431 232.237 89.1853 232.158 89.1124C232.116 89.0774 232.08 89.0371 232.05 88.9928C232.02 88.9513 231.994 88.9078 231.97 88.8628C231.947 88.8149 231.932 88.7641 231.925 88.712C231.919 88.6619 231.919 88.6113 231.925 88.5612C231.926 88.3546 232.016 88.1568 232.175 88.01C232.213 87.9731 232.255 87.94 232.3 87.9112C232.346 87.8835 232.396 87.8608 232.448 87.8436C232.499 87.8233 232.552 87.8077 232.607 87.7968C232.717 87.7761 232.831 87.7761 232.942 87.7968C232.996 87.8077 233.05 87.8233 233.101 87.8436C233.153 87.8608 233.202 87.8835 233.248 87.9112C233.295 87.9413 233.338 87.9743 233.379 88.01C233.538 88.1568 233.628 88.3546 233.629 88.5612C233.635 88.6113 233.635 88.6619 233.629 88.712C233.617 88.7636 233.6 88.8141 233.578 88.8628C233.557 88.9088 233.53 88.9525 233.498 88.9928C233.471 89.037 233.436 89.0773 233.396 89.1124C233.313 89.1882 233.213 89.2475 233.104 89.2869C232.995 89.3262 232.877 89.3447 232.76 89.3412Z" fill="white"/>
<path d="M272.452 88.5612C272.452 88.3543 272.542 88.1559 272.701 88.0096C272.861 87.8634 273.078 87.7812 273.304 87.7812C273.53 87.7812 273.747 87.8634 273.906 88.0096C274.066 88.1559 274.156 88.3543 274.156 88.5612C274.156 88.7681 274.066 88.9665 273.906 89.1127C273.747 89.259 273.53 89.3412 273.304 89.3412C273.078 89.3412 272.861 89.259 272.701 89.1127C272.542 88.9665 272.452 88.7681 272.452 88.5612ZM252.174 88.5612C252.174 88.3543 252.264 88.1559 252.424 88.0096C252.584 87.8634 252.8 87.7812 253.026 87.7812C253.252 87.7812 253.469 87.8634 253.629 88.0096C253.788 88.1559 253.878 88.3543 253.878 88.5612C253.878 88.7681 253.788 88.9665 253.629 89.1127C253.469 89.259 253.252 89.3412 253.026 89.3412C252.8 89.3412 252.584 89.259 252.424 89.1127C252.264 88.9665 252.174 88.7681 252.174 88.5612Z" fill="white"/>
<path d="M293.581 89.3412C293.527 89.3463 293.471 89.3463 293.417 89.3412L293.258 89.2996L293.11 89.2268C293.064 89.1967 293.02 89.1637 292.979 89.128C292.82 88.9819 292.73 88.7836 292.729 88.5768C292.731 88.3702 292.821 88.1724 292.979 88.0256C293.019 87.99 293.063 87.9586 293.11 87.932C293.155 87.9008 293.205 87.8762 293.258 87.8592C293.309 87.8382 293.362 87.8225 293.417 87.8124C293.527 87.7917 293.641 87.7917 293.752 87.8124L293.911 87.8592C293.962 87.8763 294.01 87.9009 294.053 87.932C294.101 87.9572 294.145 87.9887 294.184 88.0256C294.342 88.1724 294.432 88.3702 294.433 88.5768C294.433 88.7836 294.343 88.9819 294.184 89.128C294.144 89.165 294.1 89.1981 294.053 89.2268C294.008 89.2541 293.96 89.2785 293.911 89.2996L293.752 89.3412C293.695 89.3463 293.638 89.3463 293.581 89.3412Z" fill="white"/>
<path d="M292.729 184.335C292.729 184.128 292.819 183.93 292.979 183.783C293.139 183.637 293.355 183.555 293.581 183.555C293.807 183.555 294.024 183.637 294.184 183.783C294.344 183.93 294.433 184.128 294.433 184.335C294.433 184.542 294.344 184.74 294.184 184.886C294.024 185.033 293.807 185.115 293.581 185.115C293.355 185.115 293.139 185.033 292.979 184.886C292.819 184.74 292.729 184.542 292.729 184.335ZM292.729 165.183C292.729 164.976 292.819 164.778 292.979 164.632C293.139 164.485 293.355 164.403 293.581 164.403C293.807 164.403 294.024 164.485 294.184 164.632C294.344 164.778 294.433 164.976 294.433 165.183C294.433 165.39 294.344 165.588 294.184 165.735C294.024 165.881 293.807 165.963 293.581 165.963C293.355 165.963 293.139 165.881 292.979 165.735C292.819 165.588 292.729 165.39 292.729 165.183ZM292.729 146.026C292.729 145.82 292.819 145.621 292.979 145.475C293.139 145.329 293.355 145.246 293.581 145.246C293.807 145.246 294.024 145.329 294.184 145.475C294.344 145.621 294.433 145.82 294.433 146.026C294.433 146.233 294.344 146.432 294.184 146.578C294.024 146.724 293.807 146.806 293.581 146.806C293.47 146.806 293.359 146.786 293.255 146.747C293.152 146.708 293.058 146.65 292.979 146.578C292.9 146.505 292.837 146.42 292.794 146.325C292.751 146.23 292.729 146.129 292.729 146.026ZM292.729 126.87C292.729 126.663 292.819 126.464 292.979 126.318C293.139 126.172 293.355 126.09 293.581 126.09C293.807 126.09 294.024 126.172 294.184 126.318C294.344 126.464 294.433 126.663 294.433 126.87C294.433 127.076 294.344 127.275 294.184 127.421C294.024 127.567 293.807 127.65 293.581 127.65C293.357 127.65 293.142 127.569 292.983 127.425C292.823 127.281 292.732 127.085 292.729 126.88V126.87ZM292.729 107.718C292.729 107.511 292.819 107.313 292.979 107.166C293.139 107.02 293.355 106.938 293.581 106.938C293.807 106.938 294.024 107.02 294.184 107.166C294.344 107.313 294.433 107.511 294.433 107.718C294.433 107.925 294.344 108.123 294.184 108.27C294.024 108.416 293.807 108.498 293.581 108.498C293.47 108.498 293.359 108.478 293.255 108.439C293.152 108.399 293.058 108.342 292.979 108.27C292.9 108.197 292.837 108.111 292.794 108.016C292.751 107.922 292.729 107.82 292.729 107.718Z" fill="white"/>
<path d="M293.581 204.272C293.413 204.271 293.248 204.226 293.108 204.14C292.969 204.054 292.859 203.932 292.795 203.79C292.731 203.648 292.714 203.491 292.747 203.34C292.779 203.188 292.86 203.049 292.979 202.94C293.02 202.905 293.064 202.872 293.11 202.842L293.258 202.769L293.417 202.727C293.527 202.706 293.641 202.706 293.752 202.727L293.911 202.769C293.96 202.79 294.008 202.814 294.053 202.842C294.1 202.87 294.144 202.903 294.184 202.94C294.343 203.087 294.433 203.285 294.433 203.492C294.435 203.594 294.413 203.696 294.37 203.791C294.327 203.885 294.264 203.971 294.184 204.043C294.024 204.189 293.807 204.271 293.581 204.272Z" fill="white"/>
<path d="M104.96 203.949H81.5527V204.079H104.96V203.949Z" fill="#E0E0E0"/>
<path d="M152.672 202.909H129.197V203.039H152.672V202.909Z" fill="#E0E0E0"/>
<path d="M183.219 202.909H177.539V203.039H183.219V202.909Z" fill="#E0E0E0"/>
<path d="M126.447 207.35H100.177V207.48H126.447V207.35Z" fill="#E0E0E0"/>
<path d="M217.31 203.882H205.042V204.012H217.31V203.882Z" fill="#E0E0E0"/>
<path d="M238.23 203.882H222.366V204.012H238.23V203.882Z" fill="#E0E0E0"/>
<path d="M314.739 206.081H279.274V206.211H314.739V206.081Z" fill="#E0E0E0"/>
<path d="M183.577 45.578H157.409L158.84 30.6488H185.003L183.577 45.578Z" fill="#EBEBEB"/>
<path d="M184.105 28.6208L183.389 36.4156L182.674 45.786H157.511L158.943 28.6208H184.105Z" fill="#FAFAFA"/>
<path d="M181.702 30.6488L183.128 45.578H156.966L155.535 30.6488H157.761L158.534 29.5256H165.583L166.594 30.6488H181.702Z" fill="#E0E0E0"/>
<path d="M224.132 48.9112H196.289V74.4016H224.132V48.9112Z" fill="#EBEBEB"/>
<path d="M224.842 48.9112H224.132V74.4016H224.842V48.9112Z" fill="#E0E0E0"/>
<path d="M221.553 51.272H198.856V72.0512H221.553V51.272Z" fill="#F5F5F5"/>
<path d="M199.072 51.272H198.862V72.0512H199.072V51.272Z" fill="#E0E0E0"/>
<path d="M210.421 64.662C212.864 64.662 214.845 62.3525 214.845 59.5036C214.845 56.6547 212.864 54.3452 210.421 54.3452C207.977 54.3452 205.996 56.6547 205.996 59.5036C205.996 62.3525 207.977 64.662 210.421 64.662Z" fill="#E0E0E0"/>
<path d="M208.109 67.2724H212.772V63.0032H208.109V67.2724Z" fill="#E0E0E0"/>
<path d="M218.827 72.0512H201.741V70.5952C201.741 69.2657 202.318 67.9907 203.345 67.0506C204.372 66.1105 205.765 65.5824 207.217 65.5824H213.374C214.826 65.5824 216.219 66.1105 217.246 67.0506C218.273 67.9907 218.85 69.2657 218.85 70.5952V72.0512H218.827Z" fill="#E0E0E0"/>
<path d="M201.316 63.3776C201.316 64.2252 203.02 64.9376 203.02 64.9376C203.02 64.9376 204.724 64.246 204.724 63.3776C204.724 62.972 204.11 62.7432 203.707 62.8576C203.552 62.9069 203.41 62.9838 203.288 63.0837C203.166 63.1837 203.067 63.3048 202.997 63.44C202.779 63.1718 202.492 62.9573 202.162 62.816C202.065 62.7849 201.961 62.7758 201.86 62.7894C201.758 62.803 201.661 62.8389 201.578 62.8941C201.495 62.9493 201.428 63.0221 201.382 63.1063C201.336 63.1905 201.313 63.2836 201.316 63.3776Z" fill="#E0E0E0"/>
<path d="M216.436 59.5868C216.436 60.7048 218.645 61.6096 218.645 61.6096C218.645 61.6096 220.855 60.7048 220.855 59.5868C220.855 59.0668 220.037 58.76 219.52 58.8952C219.13 59.0377 218.816 59.3138 218.645 59.6648C218.357 59.3144 217.981 59.0326 217.549 58.8432C217.421 58.8017 217.284 58.7894 217.15 58.8074C217.015 58.8253 216.888 58.873 216.778 58.9462C216.668 59.0195 216.58 59.1161 216.52 59.2277C216.461 59.3393 216.432 59.4626 216.436 59.5868Z" fill="#E0E0E0"/>
<path d="M167.843 186.846C168.105 188.349 169.292 189.644 169.383 191.162C169.456 192.353 168.849 193.471 168.548 194.631C168.247 195.79 168.394 197.231 169.502 197.844C169.905 198.032 170.355 198.118 170.806 198.093C171.258 198.068 171.693 197.934 172.069 197.704C172.811 197.234 173.423 196.613 173.858 195.889C175.601 193.311 176.552 190.351 176.613 187.32C176.613 186.046 176.471 184.694 175.653 183.68C173.12 180.44 167.196 183.102 167.843 186.846Z" fill="#F5F5F5"/>
<path d="M165.736 182.868C165.98 183.113 166.299 183.285 166.65 183.362C166.863 183.426 167.09 183.438 167.31 183.399C167.529 183.36 167.734 183.271 167.906 183.139C168.036 182.985 168.129 182.808 168.178 182.618C168.227 182.429 168.231 182.232 168.19 182.042C168.155 181.563 167.976 181.102 167.673 180.71C167.521 180.517 167.318 180.362 167.085 180.257C166.851 180.153 166.592 180.103 166.332 180.112C166.073 180.132 165.829 180.232 165.64 180.397C165.452 180.562 165.332 180.781 165.299 181.017C165.235 181.661 165.388 182.306 165.736 182.868Z" fill="#F5F5F5"/>
<path d="M170.456 179.743C170.34 179.579 170.174 179.449 169.978 179.371C169.782 179.292 169.565 179.268 169.354 179.301C169.146 179.344 168.956 179.443 168.81 179.586C168.664 179.729 168.569 179.909 168.536 180.102C168.527 180.228 168.527 180.355 168.536 180.482C168.538 180.686 168.563 180.89 168.61 181.09C168.658 181.283 168.757 181.462 168.9 181.61C169.095 181.784 169.342 181.899 169.61 181.943C169.775 181.979 169.948 181.978 170.113 181.94C170.278 181.902 170.431 181.828 170.558 181.724C170.671 181.598 170.756 181.453 170.806 181.297C170.857 181.14 170.873 180.976 170.854 180.814C170.841 180.429 170.702 180.056 170.456 179.743Z" fill="#F5F5F5"/>
<path d="M173.086 179.613C172.993 179.456 172.841 179.335 172.659 179.272C172.476 179.209 172.275 179.208 172.092 179.27C171.913 179.338 171.756 179.445 171.633 179.582C171.51 179.719 171.426 179.882 171.388 180.055C171.388 180.17 171.354 180.284 171.348 180.398C171.344 180.587 171.367 180.776 171.416 180.96C171.457 181.141 171.56 181.305 171.711 181.428C171.872 181.551 172.07 181.627 172.279 181.646C172.415 181.662 172.554 181.65 172.684 181.611C172.815 181.572 172.934 181.508 173.035 181.423C173.256 181.193 173.377 180.897 173.376 180.591C173.401 180.244 173.299 179.9 173.086 179.613Z" fill="#F5F5F5"/>
<path d="M175.432 180.112C175.153 179.733 174.864 179.707 174.546 179.868C174.263 180.057 174.062 180.332 173.978 180.643C173.946 180.743 173.923 180.846 173.91 180.95C173.879 181.122 173.879 181.297 173.91 181.47C173.947 181.636 174.052 181.783 174.205 181.88C174.346 181.961 174.511 181.997 174.676 181.984C174.891 181.967 175.092 181.88 175.244 181.74C175.453 181.535 175.586 181.275 175.625 180.996C175.683 180.69 175.614 180.375 175.432 180.112Z" fill="#F5F5F5"/>
<path d="M175.892 182.218C175.861 182.342 175.861 182.47 175.892 182.593C175.903 182.656 175.932 182.716 175.974 182.766C176.017 182.817 176.072 182.858 176.136 182.884C176.252 182.908 176.373 182.9 176.485 182.862C176.596 182.823 176.692 182.754 176.761 182.666C176.929 182.508 177.052 182.315 177.119 182.104C177.152 181.998 177.161 181.888 177.147 181.779C177.132 181.67 177.094 181.565 177.034 181.47C176.528 180.716 175.96 181.844 175.892 182.218Z" fill="#F5F5F5"/>
<path d="M176.352 221.577C176.732 220.35 176.954 219.003 176.448 217.812C174.886 214.105 168.434 215.285 168.008 219.06L176.352 221.577Z" fill="#F5F5F5"/>
<path d="M167.111 214.724C167.279 215.018 167.54 215.259 167.86 215.415C168.048 215.526 168.263 215.592 168.485 215.605C168.708 215.619 168.931 215.58 169.133 215.493C169.299 215.374 169.435 215.223 169.533 215.052C169.631 214.881 169.688 214.693 169.701 214.5C169.801 214.03 169.758 213.545 169.576 213.096C169.481 212.872 169.329 212.673 169.13 212.516C168.932 212.359 168.695 212.249 168.44 212.196C168.184 212.155 167.921 212.195 167.694 212.309C167.466 212.424 167.289 212.606 167.19 212.826C166.955 213.436 166.927 214.098 167.111 214.724Z" fill="#F5F5F5"/>
<path d="M172.552 212.805C172.485 212.619 172.36 212.455 172.192 212.333C172.025 212.211 171.822 212.137 171.609 212.118C171.396 212.112 171.185 212.164 171.004 212.267C170.823 212.371 170.679 212.522 170.592 212.701C170.542 212.82 170.501 212.941 170.467 213.065C170.41 213.262 170.376 213.464 170.365 213.668C170.351 213.871 170.396 214.074 170.496 214.256C170.631 214.463 170.828 214.631 171.064 214.739C171.213 214.812 171.38 214.85 171.549 214.85C171.719 214.85 171.886 214.812 172.035 214.739C172.184 214.647 172.311 214.528 172.409 214.389C172.506 214.251 172.572 214.096 172.603 213.933C172.705 213.56 172.687 213.169 172.552 212.805Z" fill="#F5F5F5"/>
<path d="M175.108 213.299C175.062 213.128 174.951 212.977 174.795 212.873C174.639 212.769 174.448 212.719 174.256 212.732C174.064 212.757 173.881 212.825 173.724 212.929C173.567 213.033 173.439 213.171 173.353 213.33C173.302 213.434 173.256 213.539 173.217 213.647C173.153 213.824 173.114 214.007 173.103 214.193C173.092 214.376 173.143 214.558 173.251 214.713C173.376 214.876 173.555 214.998 173.762 215.062C173.89 215.109 174.027 215.13 174.165 215.123C174.302 215.115 174.436 215.08 174.557 215.02C174.836 214.852 175.038 214.597 175.125 214.302C175.24 213.975 175.234 213.622 175.108 213.299Z" fill="#F5F5F5"/>
<path d="M177.232 214.334C177.073 213.897 176.772 213.814 176.448 213.886C176.118 213.999 175.84 214.214 175.665 214.495C175.608 214.586 175.557 214.679 175.511 214.776C175.442 214.931 175.4 215.096 175.386 215.264C175.375 215.432 175.434 215.597 175.551 215.727C175.664 215.839 175.813 215.914 175.977 215.94C176.19 215.978 176.41 215.943 176.596 215.842C176.852 215.691 177.051 215.471 177.164 215.212C177.303 214.937 177.327 214.624 177.232 214.334Z" fill="#F5F5F5"/>
<path d="M177.096 216.476C177.027 216.586 176.986 216.708 176.977 216.835C176.971 216.898 176.982 216.962 177.009 217.021C177.035 217.08 177.077 217.132 177.13 217.173C177.235 217.224 177.354 217.245 177.473 217.234C177.591 217.223 177.703 217.18 177.795 217.11C178 216.996 178.173 216.84 178.3 216.653C178.362 216.558 178.402 216.453 178.418 216.344C178.435 216.236 178.428 216.125 178.397 216.018C178.101 215.171 177.278 216.138 177.096 216.476Z" fill="#F5F5F5"/>
<path d="M153.961 199.503C154.172 201.016 153.393 202.561 153.791 204.043C154.081 205.202 155.006 206.123 155.643 207.163C156.279 208.203 156.58 209.617 155.694 210.491C155.365 210.774 154.959 210.972 154.519 211.063C154.078 211.154 153.619 211.136 153.189 211.011C152.334 210.743 151.557 210.3 150.917 209.716C148.464 207.681 146.655 205.078 145.68 202.181C145.271 200.959 145.021 199.623 145.498 198.422C146.992 194.683 153.456 195.744 153.961 199.503Z" fill="#F5F5F5"/>
<path d="M154.762 195.156C154.603 195.452 154.349 195.696 154.035 195.858C153.851 195.974 153.637 196.045 153.414 196.063C153.191 196.081 152.967 196.046 152.763 195.962C152.59 195.848 152.446 195.701 152.341 195.532C152.236 195.362 152.173 195.174 152.155 194.979C152.045 194.511 152.077 194.024 152.246 193.57C152.338 193.343 152.49 193.141 152.688 192.981C152.886 192.822 153.125 192.709 153.382 192.655C153.637 192.608 153.901 192.642 154.132 192.751C154.362 192.861 154.545 193.04 154.649 193.258C154.808 193.742 155.006 194.683 154.762 195.156Z" fill="#F5F5F5"/>
<path d="M149.304 193.341C149.366 193.154 149.487 192.987 149.652 192.861C149.816 192.736 150.017 192.657 150.23 192.634C150.443 192.624 150.655 192.673 150.838 192.774C151.021 192.875 151.167 193.023 151.258 193.201C151.313 193.317 151.358 193.437 151.394 193.56C151.455 193.755 151.493 193.955 151.508 194.158C151.528 194.361 151.487 194.567 151.388 194.75C151.262 194.973 151.064 195.155 150.82 195.27C150.674 195.349 150.509 195.393 150.34 195.4C150.17 195.406 150.002 195.374 149.849 195.307C149.701 195.215 149.574 195.097 149.476 194.959C149.379 194.821 149.312 194.667 149.281 194.506C149.158 194.125 149.166 193.718 149.304 193.341Z" fill="#F5F5F5"/>
<path d="M146.736 193.882C146.778 193.707 146.887 193.552 147.044 193.445C147.2 193.338 147.394 193.287 147.588 193.3C147.78 193.321 147.964 193.385 148.123 193.485C148.282 193.586 148.413 193.72 148.503 193.877C148.557 193.98 148.605 194.086 148.645 194.194C148.714 194.37 148.758 194.554 148.775 194.74C148.787 194.923 148.737 195.104 148.633 195.26C148.512 195.425 148.337 195.55 148.134 195.619C148.007 195.669 147.87 195.692 147.733 195.688C147.595 195.683 147.461 195.651 147.338 195.593C147.061 195.429 146.859 195.177 146.77 194.886C146.639 194.564 146.627 194.211 146.736 193.882Z" fill="#F5F5F5"/>
<path d="M144.635 194.958C144.788 194.522 145.084 194.438 145.413 194.496C145.746 194.604 146.028 194.815 146.208 195.094C146.268 195.182 146.321 195.274 146.367 195.369C146.444 195.522 146.49 195.685 146.504 195.853C146.521 196.021 146.466 196.189 146.35 196.321C146.24 196.434 146.092 196.511 145.93 196.539C145.717 196.582 145.495 196.553 145.305 196.456C145.041 196.311 144.833 196.095 144.709 195.837C144.569 195.562 144.542 195.25 144.635 194.958Z" fill="#F5F5F5"/>
<path d="M144.828 197.08C144.898 197.19 144.943 197.312 144.959 197.439C144.965 197.503 144.955 197.567 144.929 197.626C144.904 197.686 144.863 197.739 144.811 197.782C144.706 197.833 144.586 197.856 144.467 197.847C144.348 197.837 144.235 197.797 144.141 197.73C143.933 197.622 143.757 197.468 143.629 197.283C143.565 197.189 143.522 197.085 143.504 196.976C143.485 196.867 143.491 196.755 143.522 196.648C143.789 195.811 144.635 196.763 144.828 197.08Z" fill="#F5F5F5"/>
<path d="M140.023 74.6668C138.715 74.835 137.383 74.6446 136.194 74.1196C135.005 73.5946 134.013 72.7587 133.343 71.7174C132.673 70.6762 132.355 69.4764 132.43 68.2699C132.505 67.0634 132.969 65.9042 133.763 64.9391C134.558 63.974 135.647 63.2462 136.893 62.8478C138.14 62.4495 139.487 62.3983 140.765 62.701C142.043 63.0036 143.194 63.6464 144.073 64.548C144.952 65.4497 145.519 66.5697 145.703 67.7664C145.946 69.3705 145.484 70.9975 144.42 72.2909C143.355 73.5842 141.774 74.4386 140.023 74.6668ZM138.671 65.7748C138.057 65.8522 137.483 66.0944 137.02 66.4708C136.557 66.8471 136.226 67.3408 136.07 67.8892C135.914 68.4376 135.938 69.0162 136.141 69.5517C136.344 70.0873 136.716 70.5557 137.209 70.8978C137.703 71.2398 138.297 71.4402 138.915 71.4734C139.533 71.5067 140.148 71.3713 140.682 71.0845C141.216 70.7977 141.645 70.3724 141.915 69.8623C142.185 69.3522 142.283 68.7802 142.198 68.2188C142.082 67.4673 141.646 66.7882 140.985 66.3302C140.324 65.8722 139.492 65.6725 138.671 65.7748Z" fill="#E0E0E0"/>
<path d="M137.521 50.3896L135.012 50.7104L137.266 65.4858L139.775 65.165L137.521 50.3896Z" fill="#E0E0E0"/>
<path d="M139.643 48.3332L134.936 48.9425L135.291 51.2385L139.998 50.6292L139.643 48.3332Z" fill="#E0E0E0"/>
<path d="M140.03 51.4568L135.603 52.0221L135.953 54.319L140.38 53.7537L140.03 51.4568Z" fill="#E0E0E0"/>
<path d="M140.675 55.6208L136.81 56.1143L137.16 58.4113L141.025 57.9178L140.675 55.6208Z" fill="#E0E0E0"/>
<path d="M193 230.147C253.823 230.147 303.13 227.511 303.13 224.26C303.13 221.009 253.823 218.374 193 218.374C132.177 218.374 82.8705 221.009 82.8705 224.26C82.8705 227.511 132.177 230.147 193 230.147Z" fill="#F5F5F5"/>
<path d="M134.763 126.503C140 121.496 139.406 113.195 133.437 107.964C127.469 102.733 118.385 102.553 113.148 107.56C107.912 112.568 108.505 120.869 114.474 126.1C120.443 131.331 129.526 131.511 134.763 126.503Z" fill="#ED1B24"/>
<g opacity="0.8">
<path d="M134.763 126.503C140 121.496 139.406 113.195 133.437 107.964C127.469 102.733 118.385 102.553 113.148 107.56C107.912 112.568 108.505 120.869 114.474 126.1C120.443 131.331 129.526 131.511 134.763 126.503Z" fill="white"/>
</g>
<path d="M117.28 108.805C117.161 108.805 117.045 108.77 116.948 108.707C116.851 108.643 116.779 108.553 116.741 108.449C116.703 108.346 116.702 108.234 116.738 108.13C116.773 108.026 116.844 107.934 116.939 107.869C118.852 106.612 121.157 105.955 123.511 105.997C123.662 105.997 123.806 106.052 123.913 106.149C124.019 106.247 124.079 106.379 124.079 106.517C124.079 106.655 124.019 106.787 123.913 106.884C123.806 106.982 123.662 107.037 123.511 107.037C121.403 106.994 119.336 107.578 117.621 108.701C117.522 108.768 117.403 108.805 117.28 108.805Z" fill="#ED1B24"/>
<path d="M119.967 126.693C119.873 126.692 119.782 126.671 119.7 126.63C117.959 125.778 116.448 124.58 115.279 123.125C114.109 121.669 113.31 119.992 112.94 118.217C112.58 116.681 112.596 115.091 112.989 113.563C113.382 112.034 114.141 110.604 115.212 109.377C115.309 109.271 115.447 109.204 115.598 109.191C115.748 109.178 115.897 109.221 116.013 109.309C116.129 109.397 116.202 109.524 116.216 109.662C116.23 109.799 116.184 109.936 116.087 110.042C115.12 111.153 114.435 112.447 114.082 113.831C113.729 115.214 113.718 116.652 114.048 118.04C114.388 119.663 115.12 121.196 116.189 122.527C117.258 123.858 118.638 124.955 120.228 125.736C120.339 125.791 120.427 125.878 120.478 125.984C120.529 126.089 120.54 126.208 120.509 126.32C120.478 126.432 120.408 126.531 120.309 126.603C120.209 126.674 120.087 126.713 119.961 126.714L119.967 126.693Z" fill="#ED1B24"/>
<path d="M125.652 128.05C124.381 128.045 123.118 127.859 121.909 127.499C121.838 127.478 121.772 127.444 121.715 127.399C121.658 127.355 121.611 127.3 121.577 127.239C121.543 127.178 121.523 127.112 121.517 127.043C121.511 126.975 121.52 126.906 121.543 126.841C121.566 126.776 121.603 126.715 121.651 126.663C121.7 126.611 121.759 126.568 121.826 126.537C121.893 126.506 121.966 126.487 122.04 126.482C122.115 126.476 122.19 126.484 122.261 126.506C125.754 127.546 129.242 126.963 131.826 124.946C133.137 123.886 134.128 122.535 134.703 121.023C135.278 119.511 135.418 117.889 135.109 116.314C135.085 116.176 135.122 116.035 135.212 115.922C135.301 115.808 135.436 115.732 135.587 115.71C135.737 115.688 135.891 115.722 136.015 115.804C136.138 115.886 136.221 116.009 136.245 116.147C136.59 117.898 136.433 119.701 135.791 121.38C135.149 123.06 134.044 124.558 132.582 125.731C130.656 127.248 128.193 128.072 125.652 128.05Z" fill="#ED1B24"/>
<path d="M135.206 114.982C135.086 114.982 134.968 114.946 134.871 114.881C134.774 114.816 134.703 114.724 134.666 114.618C134.144 113.142 133.289 111.782 132.155 110.627C131.022 109.473 129.637 108.549 128.089 107.916C127.95 107.86 127.841 107.757 127.786 107.628C127.731 107.5 127.733 107.356 127.794 107.229C127.854 107.102 127.967 107.003 128.107 106.952C128.248 106.901 128.405 106.904 128.543 106.959C130.239 107.653 131.756 108.665 132.996 109.93C134.237 111.194 135.174 112.684 135.746 114.301C135.792 114.432 135.78 114.575 135.712 114.698C135.644 114.82 135.525 114.914 135.382 114.956C135.325 114.972 135.266 114.981 135.206 114.982Z" fill="#ED1B24"/>
<path d="M126.254 107.328C126.211 107.333 126.167 107.333 126.124 107.328C125.269 107.146 124.394 107.053 123.517 107.052C123.366 107.052 123.221 106.998 123.115 106.9C123.008 106.803 122.949 106.67 122.949 106.532C122.949 106.394 123.008 106.262 123.115 106.165C123.221 106.067 123.366 106.012 123.517 106.012C124.473 106.015 125.426 106.118 126.357 106.319C126.507 106.335 126.645 106.405 126.739 106.514C126.833 106.623 126.877 106.761 126.859 106.899C126.842 107.037 126.765 107.163 126.647 107.249C126.528 107.335 126.377 107.375 126.226 107.359L126.254 107.328Z" fill="#ED1B24"/>
<path d="M116.235 119.751C116.119 119.751 116.005 119.719 115.91 119.658C115.814 119.598 115.741 119.512 115.701 119.413C115.168 118.155 114.981 116.796 115.155 115.456C115.33 114.116 115.86 112.836 116.701 111.727C117.495 110.677 118.559 109.821 119.799 109.236C121.039 108.65 122.417 108.352 123.812 108.368C123.963 108.368 124.107 108.423 124.214 108.52C124.32 108.618 124.38 108.75 124.38 108.888C124.38 109.026 124.32 109.158 124.214 109.256C124.107 109.353 123.963 109.408 123.812 109.408C122.6 109.395 121.402 109.653 120.324 110.161C119.246 110.669 118.32 111.41 117.626 112.32C116.89 113.296 116.426 114.423 116.276 115.602C116.127 116.781 116.296 117.975 116.769 119.08C116.82 119.209 116.814 119.351 116.751 119.476C116.688 119.601 116.574 119.698 116.434 119.746C116.368 119.757 116.301 119.759 116.235 119.751Z" fill="#ED1B24"/>
<path d="M125.243 125.689C123.541 125.637 121.877 125.209 120.394 124.443C118.91 123.676 117.651 122.593 116.723 121.285C116.654 121.17 116.635 121.035 116.67 120.908C116.705 120.781 116.791 120.671 116.911 120.599C117.031 120.527 117.176 120.5 117.317 120.522C117.458 120.544 117.585 120.614 117.672 120.718C118.497 121.881 119.615 122.846 120.933 123.53C122.251 124.214 123.729 124.598 125.243 124.649C125.394 124.649 125.538 124.704 125.645 124.801C125.751 124.899 125.811 125.031 125.811 125.169C125.811 125.307 125.751 125.439 125.645 125.537C125.538 125.634 125.394 125.689 125.243 125.689Z" fill="#ED1B24"/>
<path d="M127.368 125.466C127.238 125.469 127.111 125.432 127.007 125.36C126.904 125.288 126.831 125.186 126.8 125.07C126.764 124.937 126.787 124.795 126.865 124.677C126.942 124.559 127.068 124.474 127.214 124.441C131.821 123.401 133.014 119.704 132.633 116.865C132.139 113.162 128.947 109.413 123.795 109.408C123.644 109.408 123.5 109.353 123.393 109.256C123.287 109.158 123.227 109.026 123.227 108.888C123.227 108.75 123.287 108.618 123.393 108.52C123.5 108.423 123.644 108.368 123.795 108.368C129.606 108.368 133.207 112.58 133.763 116.74C134.331 121.03 131.872 124.452 127.487 125.45C127.448 125.459 127.408 125.464 127.368 125.466Z" fill="#ED1B24"/>
<path d="M121.489 112.278C121.381 112.278 121.276 112.249 121.185 112.195C121.095 112.142 121.023 112.066 120.978 111.977C120.914 111.852 120.906 111.709 120.957 111.579C121.009 111.45 121.114 111.344 121.25 111.285C122.121 110.933 123.064 110.755 124.016 110.765C124.167 110.765 124.312 110.82 124.418 110.917C124.525 111.015 124.584 111.147 124.584 111.285C124.584 111.423 124.525 111.555 124.418 111.653C124.312 111.75 124.167 111.805 124.016 111.805C123.232 111.806 122.458 111.96 121.744 112.258C121.662 112.282 121.575 112.289 121.489 112.278Z" fill="#ED1B24"/>
<path d="M125.141 123.266C123.702 123.245 122.301 122.847 121.102 122.119C119.903 121.391 118.957 120.363 118.376 119.158C117.2 116.813 117.547 114.364 119.302 112.596C119.404 112.494 119.545 112.434 119.695 112.429C119.845 112.423 119.992 112.472 120.103 112.564C120.213 112.658 120.279 112.787 120.285 112.925C120.292 113.062 120.238 113.196 120.137 113.298C119.431 114.028 118.984 114.938 118.854 115.906C118.724 116.874 118.918 117.856 119.41 118.721C119.912 119.772 120.74 120.664 121.791 121.287C122.842 121.91 124.071 122.237 125.323 122.226C126.27 122.22 127.195 121.963 127.986 121.485C128.778 121.008 129.401 120.332 129.782 119.538C130.209 118.601 130.338 117.572 130.153 116.57C129.968 115.569 129.477 114.636 128.736 113.88C128.688 113.828 128.651 113.768 128.628 113.703C128.605 113.638 128.596 113.57 128.602 113.502C128.608 113.433 128.628 113.367 128.662 113.306C128.696 113.245 128.742 113.191 128.799 113.147C128.856 113.102 128.921 113.069 128.992 113.048C129.063 113.026 129.138 113.018 129.212 113.024C129.287 113.029 129.359 113.048 129.426 113.078C129.492 113.109 129.551 113.152 129.6 113.204C130.482 114.109 131.064 115.225 131.281 116.422C131.497 117.619 131.337 118.847 130.821 119.964C130.355 120.939 129.591 121.769 128.622 122.356C127.653 122.942 126.519 123.26 125.357 123.271L125.141 123.266Z" fill="#ED1B24"/>
<path d="M127.532 112.736C127.425 112.737 127.32 112.708 127.231 112.653C126.272 112.088 125.157 111.785 124.016 111.779C123.866 111.779 123.721 111.724 123.615 111.627C123.508 111.529 123.448 111.397 123.448 111.259C123.448 111.121 123.508 110.989 123.615 110.892C123.721 110.794 123.866 110.739 124.016 110.739C125.373 110.744 126.7 111.105 127.839 111.779C127.942 111.84 128.021 111.93 128.063 112.035C128.106 112.14 128.11 112.255 128.076 112.362C128.041 112.47 127.97 112.565 127.872 112.632C127.774 112.699 127.655 112.736 127.532 112.736Z" fill="#ED1B24"/>
<path d="M124.84 120.921C124.176 120.917 123.522 120.78 122.922 120.519C122.323 120.259 121.793 119.881 121.37 119.413C120.824 118.841 120.469 118.137 120.348 117.386C120.227 116.634 120.345 115.867 120.688 115.175C120.994 114.547 121.494 114.015 122.127 113.645C122.761 113.275 123.498 113.084 124.249 113.095C124.4 113.095 124.544 113.15 124.651 113.247C124.757 113.345 124.817 113.477 124.817 113.615C124.817 113.753 124.757 113.885 124.651 113.982C124.544 114.08 124.4 114.135 124.249 114.135C123.718 114.126 123.196 114.259 122.747 114.519C122.297 114.779 121.941 115.153 121.722 115.596C121.472 116.107 121.388 116.672 121.48 117.225C121.571 117.779 121.835 118.296 122.239 118.716C122.641 119.167 123.174 119.504 123.778 119.688C124.381 119.873 125.029 119.896 125.647 119.756C126.149 119.653 126.608 119.419 126.97 119.084C127.331 118.748 127.58 118.324 127.686 117.863C127.718 117.729 127.808 117.612 127.934 117.538C128.061 117.464 128.215 117.439 128.362 117.468C128.435 117.482 128.504 117.509 128.566 117.548C128.627 117.587 128.68 117.637 128.721 117.694C128.761 117.752 128.789 117.816 128.803 117.883C128.816 117.951 128.815 118.02 128.799 118.087C128.649 118.738 128.298 119.335 127.789 119.81C127.28 120.284 126.633 120.616 125.925 120.765C125.571 120.856 125.207 120.909 124.84 120.921Z" fill="#ED1B24"/>
<path d="M128.146 116.802C128.02 116.808 127.897 116.775 127.794 116.709C127.691 116.643 127.615 116.548 127.578 116.438C127.351 115.787 126.908 115.216 126.31 114.806C125.713 114.396 124.99 114.167 124.244 114.15C124.093 114.15 123.948 114.096 123.842 113.998C123.735 113.901 123.676 113.768 123.676 113.63C123.676 113.492 123.735 113.36 123.842 113.263C123.948 113.165 124.093 113.11 124.244 113.11C125.231 113.131 126.187 113.432 126.979 113.972C127.771 114.513 128.36 115.266 128.663 116.126C128.686 116.192 128.694 116.26 128.688 116.329C128.682 116.397 128.661 116.463 128.627 116.524C128.592 116.585 128.545 116.639 128.488 116.683C128.431 116.728 128.365 116.761 128.293 116.782C128.245 116.794 128.196 116.801 128.146 116.802Z" fill="#ED1B24"/>
<path d="M124.993 118.758C124.843 118.758 124.698 118.703 124.592 118.605C124.485 118.508 124.425 118.376 124.425 118.238C124.425 118.1 124.485 117.967 124.592 117.87C124.698 117.772 124.843 117.718 124.993 117.718C125.071 117.718 125.148 117.703 125.219 117.675C125.29 117.647 125.354 117.606 125.408 117.554C125.461 117.503 125.502 117.442 125.528 117.375C125.555 117.308 125.566 117.237 125.561 117.166C125.564 117.065 125.545 116.964 125.505 116.87C125.466 116.775 125.406 116.689 125.329 116.616C125.252 116.543 125.161 116.485 125.059 116.444C124.958 116.404 124.848 116.383 124.738 116.381C124.654 116.383 124.572 116.4 124.496 116.432C124.42 116.463 124.352 116.508 124.295 116.563C124.237 116.626 124.192 116.699 124.165 116.777C124.138 116.856 124.128 116.939 124.136 117.021C124.14 117.089 124.13 117.157 124.105 117.222C124.081 117.287 124.043 117.346 123.993 117.398C123.944 117.449 123.884 117.491 123.817 117.52C123.749 117.55 123.676 117.568 123.602 117.572C123.527 117.576 123.452 117.567 123.382 117.544C123.311 117.522 123.246 117.487 123.19 117.442C123.134 117.396 123.089 117.341 123.056 117.28C123.023 117.218 123.004 117.151 123 117.083C122.979 116.865 123.008 116.645 123.084 116.438C123.16 116.23 123.281 116.039 123.441 115.876C123.601 115.712 123.795 115.581 124.012 115.489C124.229 115.397 124.465 115.347 124.704 115.341C124.964 115.342 125.221 115.39 125.461 115.482C125.7 115.574 125.918 115.709 126.1 115.879C126.282 116.049 126.426 116.25 126.522 116.471C126.619 116.692 126.667 116.928 126.663 117.166C126.668 117.374 126.627 117.58 126.543 117.773C126.46 117.966 126.335 118.142 126.176 118.29C126.018 118.438 125.828 118.556 125.619 118.636C125.41 118.716 125.186 118.758 124.959 118.758H124.993Z" fill="#ED1B24"/>
<path d="M139.608 117.026C140.301 124.27 134.445 130.14 126.544 130.14H125.931C133.462 129.787 138.932 124.056 138.262 117.042C137.875 113.608 136.174 110.41 133.46 108.014C130.746 105.618 127.193 104.178 123.431 103.948C123.63 103.948 123.835 103.948 124.039 103.948C131.963 103.917 138.938 109.788 139.608 117.026Z" fill="#ED1B24"/>
<g opacity="0.4">
<path d="M139.608 117.026C140.301 124.27 134.445 130.14 126.544 130.14H125.931C133.462 129.787 138.932 124.056 138.262 117.042C137.875 113.608 136.174 110.41 133.46 108.014C130.746 105.618 127.193 104.178 123.431 103.948C123.63 103.948 123.835 103.948 124.039 103.948C131.963 103.917 138.938 109.788 139.608 117.026Z" fill="white"/>
</g>
<path d="M151.207 53.1128C151.221 53.2681 151.243 53.4225 151.275 53.5756C151.489 54.5775 152.051 55.4894 152.876 56.1756C153.812 56.9776 155.043 57.4286 156.324 57.4392H204.315C204.875 57.4496 205.432 57.3578 205.953 57.1693C206.474 56.9809 206.949 56.6994 207.35 56.3413C207.751 55.9832 208.07 55.5557 208.289 55.0836C208.509 54.6114 208.623 54.1041 208.626 53.5912C208.634 53.437 208.634 53.2826 208.626 53.1284C208.492 51.9641 207.899 50.8845 206.958 50.0919C206.017 49.2992 204.792 48.848 203.514 48.8228H155.512C154.91 48.8117 154.313 48.9179 153.759 49.1343C153.206 49.3508 152.709 49.6726 152.302 50.0783C151.895 50.4841 151.586 50.9645 151.398 51.4877C151.209 52.0109 151.144 52.5648 151.207 53.1128Z" fill="#ED1B24"/>
<path opacity="0.8" d="M151.207 53.1128C151.221 53.2681 151.243 53.4225 151.275 53.5756C151.489 54.5775 152.051 55.4894 152.876 56.1756C153.812 56.9776 155.043 57.4286 156.324 57.4392H204.315C204.875 57.4496 205.432 57.3578 205.953 57.1693C206.474 56.9809 206.949 56.6994 207.35 56.3413C207.751 55.9832 208.07 55.5557 208.289 55.0836C208.509 54.6114 208.623 54.1041 208.626 53.5912C208.634 53.437 208.634 53.2826 208.626 53.1284C208.492 51.9641 207.899 50.8845 206.958 50.0919C206.017 49.2992 204.792 48.848 203.514 48.8228H155.512C154.91 48.8117 154.313 48.9179 153.759 49.1343C153.206 49.3508 152.709 49.6726 152.302 50.0783C151.895 50.4841 151.586 50.9645 151.398 51.4877C151.209 52.0109 151.144 52.5648 151.207 53.1128Z" fill="white"/>
<path d="M208.626 53.56C208.626 53.6993 208.614 53.8383 208.592 53.976C208.422 52.8381 207.814 51.7932 206.876 51.0302C205.939 50.2672 204.734 49.8365 203.48 49.816L152.456 49.92C152.861 49.5598 153.339 49.2761 153.863 49.0852C154.387 48.8942 154.948 48.7998 155.512 48.8072H203.502C204.781 48.8324 206.005 49.2836 206.946 50.0763C207.888 50.8689 208.481 51.9485 208.614 53.1128C208.626 53.2616 208.63 53.4109 208.626 53.56Z" fill="#ED1B24"/>
<path opacity="0.5" d="M208.626 53.56C208.626 53.6993 208.614 53.8383 208.592 53.976C208.422 52.8381 207.814 51.7932 206.876 51.0302C205.939 50.2672 204.734 49.8365 203.48 49.816L152.456 49.92C152.861 49.5598 153.339 49.2761 153.863 49.0852C154.387 48.8942 154.948 48.7998 155.512 48.8072H203.502C204.781 48.8324 206.005 49.2836 206.946 50.0763C207.888 50.8689 208.481 51.9485 208.614 53.1128C208.626 53.2616 208.63 53.4109 208.626 53.56Z" fill="white"/>
<path d="M200.384 50.8872L200.588 52.9672L202.724 52.2392L203.23 53.2792L201.049 53.9448L202.616 55.7076L201.634 56.368L200.106 54.5376L198.97 56.368L197.896 55.7076L199.106 53.9448L196.834 53.2792L197.141 52.2392L199.441 52.9412L199.237 50.8612L200.384 50.8872Z" fill="#ED1B24"/>
<path d="M187.235 50.8872L187.439 52.9672L189.575 52.2392L190.086 53.2792L187.888 53.9604L189.456 55.7232L188.479 56.3836L186.951 54.5532L185.815 56.3836L184.736 55.7232L185.951 53.9604L183.679 53.2948L183.986 52.2548L186.286 52.9568L186.087 50.8768L187.235 50.8872Z" fill="#ED1B24"/>
<path d="M174.114 50.8872L174.313 52.9672L176.448 52.2392L176.96 53.2792L174.773 53.9448L176.341 55.7076L175.392 56.3836L173.864 54.5532L172.728 56.3836L171.655 55.7232L172.864 53.9604L170.592 53.2948L170.905 52.2548L173.177 52.9568L172.978 50.8768L174.114 50.8872Z" fill="#ED1B24"/>
<path d="M160.988 50.8872L161.186 52.9672L163.328 52.2392L163.833 53.2792L161.646 53.9448L163.22 55.7076L162.237 56.368L160.709 54.5376L159.573 56.368L158.5 55.7076L159.71 53.9448L157.438 53.2792L157.744 52.2392L160.016 52.9412L159.817 50.8612L160.988 50.8872Z" fill="#ED1B24"/>
<path d="M192.801 46.7688H190.563V47.2888H192.801V46.7688Z" fill="#ED1B24"/>
<path d="M202.417 46.7688H195.119V47.2888H202.417V46.7688Z" fill="#ED1B24"/>
<path opacity="0.8" d="M276.945 66.1648L274.622 90.48C274.532 91.256 274.137 91.9756 273.509 92.5039C272.882 93.0323 272.066 93.3332 271.214 93.3504H252.771C252.371 93.3524 251.976 93.2773 251.611 93.1301C251.246 92.9828 250.918 92.7668 250.65 92.4959C250.382 92.2251 250.18 91.9055 250.056 91.5582C249.932 91.2108 249.889 90.8434 249.931 90.48L252.254 66.1596C252.34 65.3823 252.734 64.6608 253.362 64.1318C253.99 63.6028 254.808 63.303 255.662 63.2892H274.105C274.504 63.2871 274.9 63.3623 275.266 63.5099C275.632 63.6574 275.959 63.874 276.227 64.1454C276.495 64.4168 276.698 64.737 276.821 65.085C276.945 65.433 276.987 65.8009 276.945 66.1648Z" fill="#ED1B24"/>
<path opacity="0.8" d="M276.945 66.1648L274.622 90.48C274.532 91.256 274.137 91.9756 273.509 92.5039C272.882 93.0323 272.066 93.3332 271.214 93.3504H252.771C252.371 93.3524 251.976 93.2773 251.611 93.1301C251.246 92.9828 250.918 92.7668 250.65 92.4959C250.382 92.2251 250.18 91.9055 250.056 91.5582C249.932 91.2108 249.889 90.8434 249.931 90.48L252.254 66.1596C252.34 65.3823 252.734 64.6608 253.362 64.1318C253.99 63.6028 254.808 63.303 255.662 63.2892H274.105C274.504 63.2871 274.9 63.3623 275.266 63.5099C275.632 63.6574 275.959 63.874 276.227 64.1454C276.495 64.4168 276.698 64.737 276.821 65.085C276.945 65.433 276.987 65.8009 276.945 66.1648Z" fill="white"/>
<path d="M253.935 70.0856H253.884C253.734 70.0737 253.596 70.0079 253.499 69.9026C253.402 69.7973 253.354 69.6612 253.367 69.524L253.583 67.2984C253.596 67.1688 253.661 67.0482 253.766 66.9606C253.871 66.873 254.009 66.8247 254.151 66.8252H256.718C256.869 66.8252 257.013 66.88 257.12 66.9775C257.226 67.075 257.286 67.2073 257.286 67.3452C257.286 67.4831 257.226 67.6154 257.12 67.7129C257.013 67.8104 256.869 67.8652 256.718 67.8652H254.673L254.503 69.6124C254.49 69.742 254.425 69.8626 254.32 69.9502C254.214 70.0378 254.077 70.0861 253.935 70.0856Z" fill="#ED1B24"/>
<path d="M274.587 70.0856H274.536C274.387 70.0737 274.248 70.0079 274.151 69.9026C274.054 69.7973 274.007 69.6612 274.019 69.524L274.179 67.8652H272.236C272.085 67.8652 271.941 67.8104 271.834 67.7129C271.728 67.6154 271.668 67.4831 271.668 67.3452C271.668 67.2073 271.728 67.075 271.834 66.9775C271.941 66.88 272.085 66.8252 272.236 66.8252H274.792C274.871 66.8249 274.949 66.8397 275.022 66.8688C275.094 66.8978 275.159 66.9403 275.213 66.9937C275.266 67.047 275.307 67.11 275.332 67.1786C275.358 67.2472 275.367 67.3199 275.36 67.392L275.144 69.6124C275.132 69.7403 275.068 69.8594 274.965 69.9467C274.862 70.0341 274.728 70.0836 274.587 70.0856Z" fill="#ED1B24"/>
<path d="M254.912 86.866H252.345C252.267 86.8658 252.19 86.8509 252.118 86.8223C252.047 86.7936 251.983 86.7519 251.93 86.6996C251.877 86.6467 251.836 86.5842 251.811 86.5162C251.785 86.4482 251.776 86.3761 251.782 86.3044L251.992 84.0788C252.005 83.9409 252.077 83.8133 252.193 83.7241C252.309 83.6348 252.458 83.5913 252.609 83.603C252.759 83.6147 252.899 83.6808 252.996 83.7866C253.094 83.8924 253.141 84.0293 253.128 84.1672L252.969 85.826H254.912C255.063 85.826 255.207 85.8808 255.314 85.9783C255.42 86.0758 255.48 86.2081 255.48 86.346C255.48 86.4839 255.42 86.6162 255.314 86.7137C255.207 86.8112 255.063 86.866 254.912 86.866Z" fill="#ED1B24"/>
<path d="M272.98 86.866H270.418C270.268 86.866 270.123 86.8112 270.017 86.7137C269.91 86.6162 269.85 86.4839 269.85 86.346C269.85 86.2081 269.91 86.0758 270.017 85.9783C270.123 85.8808 270.268 85.826 270.418 85.826H272.463L272.628 84.0788C272.641 83.9416 272.713 83.8148 272.828 83.7261C272.943 83.6374 273.091 83.5941 273.241 83.6056C273.391 83.6175 273.53 83.6833 273.627 83.7886C273.723 83.8939 273.771 84.03 273.758 84.1672L273.548 86.3928C273.535 86.5224 273.47 86.643 273.365 86.7306C273.259 86.8182 273.122 86.8665 272.98 86.866Z" fill="#ED1B24"/>
<path d="M271.025 78.4819C272.307 73.9296 270.106 69.4741 266.109 68.5304C262.111 67.5866 257.831 70.512 256.549 75.0644C255.267 79.6167 257.468 84.0721 261.465 85.0159C265.463 85.9596 269.743 83.0342 271.025 78.4819Z" fill="white"/>
<path d="M266.016 89.7156H258.661L259.303 82.9816H266.658L266.016 89.7156Z" fill="white"/>
<path d="M274.622 90.48C274.532 91.256 274.137 91.9756 273.509 92.5039C272.882 93.0323 272.066 93.3332 271.214 93.3504H252.771C252.371 93.3524 251.976 93.2773 251.611 93.1301C251.246 92.9828 250.918 92.7668 250.65 92.4959C250.382 92.2251 250.18 91.9055 250.056 91.5582C249.932 91.2108 249.889 90.8435 249.931 90.48C249.931 90.48 258.405 88.0256 259.45 88.0256H265.999L274.622 90.48Z" fill="white"/>
<path d="M278.016 73.2708L277.156 82.8221L277.722 82.8648L278.582 73.3135L278.016 73.2708Z" fill="#ED1B24"/>
<path d="M278.613 68.9002L278.445 70.7762L279.011 70.8189L279.179 68.9429L278.613 68.9002Z" fill="#ED1B24"/>
<path d="M258.82 126.916H256.582V127.436H258.82V126.916Z" fill="#ED1B24"/>
<path d="M268.436 126.916H261.137V127.436H268.436V126.916Z" fill="#ED1B24"/>
<path d="M281.795 118.04L280.381 132.86C280.308 133.515 279.975 134.123 279.445 134.568C278.916 135.014 278.226 135.266 277.507 135.278C277.169 135.283 276.833 135.223 276.522 135.101C276.211 134.978 275.932 134.796 275.704 134.568C275.476 134.339 275.303 134.069 275.198 133.774C275.092 133.48 275.057 133.168 275.093 132.86L276.496 118.04C276.627 116.935 276.499 115.817 276.122 114.76C275.744 113.703 275.126 112.732 274.307 111.911C273.489 111.089 272.489 110.437 271.374 109.997C270.259 109.556 269.054 109.338 267.84 109.356H262.069C259.488 109.401 257.014 110.309 255.114 111.908C253.213 113.508 252.018 115.689 251.754 118.04L251.186 124.093H245.904L246.472 118.04C247.182 110.583 254.389 104.52 262.529 104.52H268.322C270.213 104.491 272.088 104.831 273.824 105.517C275.56 106.203 277.117 107.219 278.391 108.497C279.665 109.776 280.627 111.288 281.214 112.933C281.801 114.579 281.999 116.319 281.795 118.04Z" fill="#ED1B24"/>
<g opacity="0.5">
<path d="M281.795 118.04L280.381 132.86C280.308 133.515 279.975 134.123 279.445 134.568C278.916 135.014 278.226 135.266 277.507 135.278C277.169 135.283 276.833 135.223 276.522 135.101C276.211 134.978 275.932 134.796 275.704 134.568C275.476 134.339 275.303 134.069 275.198 133.774C275.092 133.48 275.057 133.168 275.093 132.86L276.496 118.04C276.627 116.935 276.499 115.817 276.122 114.76C275.744 113.703 275.126 112.732 274.307 111.911C273.489 111.089 272.489 110.437 271.374 109.997C270.259 109.556 269.054 109.338 267.84 109.356H262.069C259.488 109.401 257.014 110.309 255.114 111.908C253.213 113.508 252.018 115.689 251.754 118.04L251.186 124.093H245.904L246.472 118.04C247.182 110.583 254.389 104.52 262.529 104.52H268.322C270.213 104.491 272.088 104.831 273.824 105.517C275.56 106.203 277.117 107.219 278.391 108.497C279.665 109.776 280.627 111.288 281.214 112.933C281.801 114.579 281.999 116.319 281.795 118.04Z" fill="white"/>
</g>
<path d="M282.176 132.319L279.421 161.2C279.321 162.095 278.866 162.926 278.141 163.535C277.417 164.143 276.474 164.488 275.491 164.502H243.944C243.482 164.51 243.023 164.427 242.599 164.26C242.174 164.093 241.794 163.845 241.482 163.532C241.17 163.22 240.935 162.85 240.791 162.448C240.648 162.046 240.599 161.621 240.65 161.2L243.41 132.319C243.473 131.743 243.685 131.189 244.026 130.702C244.368 130.215 244.83 129.809 245.375 129.516C245.967 129.185 246.646 129.005 247.341 128.996H278.882C279.526 128.993 280.158 129.157 280.705 129.47C281.215 129.772 281.623 130.2 281.883 130.703C282.143 131.206 282.244 131.766 282.176 132.319Z" fill="#ED1B24"/>
<path d="M249.374 144.934L257.57 156.484L284.601 131.737C284.643 131.691 284.666 131.633 284.665 131.573C284.664 131.513 284.639 131.456 284.596 131.411C284.553 131.367 284.493 131.338 284.429 131.33C284.364 131.322 284.298 131.335 284.244 131.368L258.485 149.854L253.617 142.672L249.374 144.934Z" fill="white"/>
<path d="M120.296 89.0812H99.7458C98.7949 89.0654 97.8833 88.7313 97.1832 88.1421C96.483 87.5529 96.0429 86.7493 95.9458 85.8832L94.168 67.08C94.1186 66.6728 94.1647 66.2607 94.3031 65.8711C94.4416 65.4815 94.6692 65.1235 94.9707 64.8208C95.2723 64.5182 95.6409 64.2779 96.052 64.116C96.463 63.9541 96.9071 63.8743 97.3545 63.882H117.882C118.829 63.9017 119.736 64.2376 120.432 64.8266C121.127 65.4155 121.564 66.2169 121.659 67.08L123.454 85.8728C123.505 86.2785 123.461 86.6896 123.325 87.0785C123.189 87.4675 122.964 87.8256 122.665 88.129C122.367 88.4324 122.001 88.6742 121.593 88.8384C121.184 89.0025 120.742 89.0853 120.296 89.0812Z" fill="#ED1B24"/>
<path opacity="0.8" d="M120.296 89.0812H99.7458C98.7949 89.0654 97.8833 88.7313 97.1832 88.1421C96.483 87.5529 96.0429 86.7493 95.9458 85.8832L94.168 67.08C94.1186 66.6728 94.1647 66.2607 94.3031 65.8711C94.4416 65.4815 94.6692 65.1235 94.9707 64.8208C95.2723 64.5182 95.6409 64.2779 96.052 64.116C96.463 63.9541 96.9071 63.8743 97.3545 63.882H117.882C118.829 63.9017 119.736 64.2376 120.432 64.8266C121.127 65.4155 121.564 66.2169 121.659 67.08L123.454 85.8728C123.505 86.2785 123.461 86.6896 123.325 87.0785C123.189 87.4675 122.964 87.8256 122.665 88.129C122.367 88.4324 122.001 88.6742 121.593 88.8384C121.184 89.0025 120.742 89.0853 120.296 89.0812Z" fill="white"/>
<path d="M95.9572 78.3796C95.9572 78.3796 103.256 69.0768 108.629 69.316C114.003 69.5552 122.931 78.156 122.931 78.156C122.931 78.156 109.771 84.4844 95.9572 78.3796Z" fill="white"/>
<path d="M96.1901 78.52L95.73 78.2184C96.0253 77.8388 102.983 69.0404 108.425 69.0404H108.646C114.076 69.2796 122.767 77.61 123.136 77.9636L122.727 78.3224C122.636 78.2392 113.821 69.7892 108.618 69.5604H108.425C103.256 69.5708 96.2582 78.442 96.1901 78.52Z" fill="#263238"/>
<path d="M95.2017 78.7072C94.0998 78.7072 92.6685 78.3328 92.1629 76.908C92.1396 76.8425 92.1457 76.7712 92.1798 76.7098C92.2139 76.6483 92.2732 76.6018 92.3447 76.5804C92.3801 76.5691 92.4176 76.5645 92.455 76.5668C92.4924 76.5691 92.5289 76.5783 92.5623 76.5938C92.5957 76.6094 92.6254 76.6309 92.6495 76.6572C92.6736 76.6835 92.6916 76.714 92.7025 76.7468C93.3557 78.5876 95.7981 78.1456 95.9004 78.1248C95.974 78.1124 96.0501 78.1266 96.1126 78.1644C96.1751 78.2022 96.2191 78.2607 96.2355 78.3276C96.243 78.361 96.2432 78.3955 96.2361 78.4291C96.229 78.4626 96.2147 78.4945 96.1942 78.523C96.1736 78.5515 96.1471 78.576 96.1162 78.5951C96.0853 78.6142 96.0505 78.6276 96.014 78.6344C95.7465 78.6828 95.4744 78.7072 95.2017 78.7072Z" fill="#263238"/>
<path d="M99.5356 74.7136C99.4722 74.7147 99.4102 74.6964 99.3595 74.6616C99.2743 74.5992 97.2579 73.1744 96.7467 71.7236C96.7234 71.6581 96.7294 71.5868 96.7635 71.5254C96.7976 71.464 96.8569 71.4174 96.9284 71.396C97 71.3761 97.0772 71.3823 97.1439 71.4133C97.2106 71.4443 97.2616 71.4977 97.2863 71.5624C97.7464 72.8572 99.6832 74.2352 99.706 74.2456C99.7653 74.2877 99.8041 74.3497 99.8136 74.4179C99.8232 74.4862 99.8029 74.5551 99.7571 74.6096C99.7312 74.6412 99.6978 74.667 99.6594 74.685C99.621 74.703 99.5787 74.7128 99.5356 74.7136Z" fill="#263238"/>
<path d="M103.705 71.1724C103.63 71.1685 103.56 71.139 103.509 71.0898C103.457 71.0406 103.428 70.9754 103.426 70.9072C103.095 69.7746 102.683 68.6629 102.194 67.5792C102.052 67.236 101.95 66.9864 101.927 66.924C101.916 66.8909 101.912 66.856 101.915 66.8215C101.919 66.787 101.93 66.7535 101.948 66.7229C101.966 66.6924 101.99 66.6655 102.02 66.6437C102.05 66.622 102.084 66.6059 102.12 66.5964C102.156 66.5868 102.193 66.5838 102.23 66.5875C102.267 66.5912 102.303 66.6016 102.336 66.618C102.369 66.6344 102.398 66.6566 102.421 66.6832C102.444 66.7098 102.462 66.7404 102.472 66.7732C102.472 66.8356 102.591 67.0644 102.722 67.392C103.517 69.3004 104.006 70.5536 103.994 70.9176C103.994 70.952 103.987 70.986 103.972 71.0176C103.957 71.0492 103.936 71.0777 103.909 71.1015C103.882 71.1253 103.85 71.1439 103.815 71.1561C103.78 71.1682 103.742 71.1738 103.705 71.1724Z" fill="#263238"/>
<path d="M108.629 69.576C108.558 69.5739 108.491 69.5486 108.439 69.5047C108.387 69.4608 108.353 69.4012 108.345 69.3368L107.948 65.1768C107.941 65.1078 107.964 65.0392 108.013 64.9861C108.061 64.9329 108.131 64.8996 108.206 64.8934C108.281 64.8872 108.356 64.9086 108.414 64.953C108.472 64.9974 108.509 65.061 108.516 65.13L108.913 69.3212C108.918 69.3891 108.894 69.4561 108.847 69.5083C108.799 69.5606 108.731 69.5941 108.658 69.602L108.629 69.576Z" fill="#263238"/>
<path d="M123.783 78.4212C123.506 78.4224 123.228 78.4015 122.954 78.3588C122.918 78.352 122.883 78.3386 122.852 78.3195C122.821 78.3004 122.795 78.2759 122.774 78.2474C122.753 78.2189 122.739 78.187 122.732 78.1534C122.725 78.1199 122.725 78.0854 122.733 78.052C122.739 78.0184 122.752 77.9863 122.772 77.9576C122.792 77.929 122.819 77.9044 122.85 77.8854C122.88 77.8664 122.915 77.8534 122.952 77.8472C122.988 77.841 123.026 77.8416 123.062 77.8492C123.062 77.8492 124.454 78.0936 125.306 77.5424C125.488 77.4209 125.64 77.2654 125.752 77.0861C125.863 76.9068 125.932 76.7078 125.953 76.5024C125.959 76.4682 125.972 76.4354 125.991 76.4059C126.011 76.3763 126.036 76.3505 126.067 76.33C126.097 76.3094 126.131 76.2946 126.168 76.2862C126.205 76.2779 126.243 76.2763 126.28 76.2814C126.317 76.2865 126.353 76.2983 126.385 76.3161C126.418 76.3339 126.446 76.3573 126.468 76.3851C126.491 76.4129 126.507 76.4444 126.516 76.4779C126.525 76.5114 126.527 76.5462 126.521 76.5804C126.487 76.854 126.39 77.118 126.238 77.3554C126.085 77.5927 125.88 77.7981 125.635 77.9584C125.083 78.2805 124.438 78.4418 123.783 78.4212Z" fill="#263238"/>
<path d="M118.683 74.438C118.643 74.4382 118.603 74.4305 118.567 74.4152C118.531 74.3999 118.498 74.3775 118.473 74.3496C118.446 74.3254 118.425 74.2967 118.411 74.265C118.396 74.2333 118.389 74.1993 118.389 74.165C118.389 74.1307 118.396 74.0967 118.411 74.065C118.425 74.0333 118.446 74.0046 118.473 73.9804C118.473 73.9804 120.177 72.6076 120.358 71.3284C120.371 71.2607 120.412 71.2001 120.472 71.1594C120.533 71.1186 120.608 71.1009 120.682 71.11C120.719 71.1151 120.755 71.1268 120.787 71.1444C120.819 71.1621 120.846 71.1853 120.869 71.2129C120.891 71.2404 120.907 71.2717 120.916 71.3049C120.925 71.3381 120.926 71.3726 120.921 71.4064C120.682 72.8728 118.921 74.308 118.848 74.3704C118.803 74.4101 118.745 74.4341 118.683 74.438Z" fill="#263238"/>
<path d="M113.883 71.4168H113.832C113.758 71.4041 113.692 71.3655 113.649 71.3092C113.605 71.2529 113.588 71.1833 113.599 71.1152C113.599 71.084 114.224 67.7404 114.338 67.054C114.343 67.0198 114.356 66.987 114.376 66.9575C114.395 66.9279 114.421 66.9021 114.451 66.8816C114.481 66.861 114.516 66.8462 114.552 66.8379C114.589 66.8295 114.627 66.8279 114.664 66.833C114.702 66.8381 114.737 66.8499 114.77 66.8677C114.802 66.8855 114.83 66.9089 114.853 66.9367C114.875 66.9645 114.891 66.996 114.9 67.0295C114.909 67.063 114.911 67.0978 114.906 67.132C114.792 67.8236 114.173 71.1724 114.167 71.2036C114.155 71.2642 114.12 71.3188 114.068 71.3579C114.016 71.3969 113.95 71.4178 113.883 71.4168Z" fill="#263238"/>
<path d="M114.05 79.4689C116.402 77.2201 116.133 73.491 113.45 71.1396C110.767 68.7882 106.686 68.7051 104.334 70.9539C101.983 73.2027 102.251 76.9319 104.934 79.2832C107.617 81.6346 111.699 81.7177 114.05 79.4689Z" fill="#ED1B24"/>
<path opacity="0.3" d="M111.855 75.2076C111.864 75.076 111.864 74.944 111.855 74.8124C111.779 74.1344 111.434 73.5056 110.886 73.0447C110.337 72.5838 109.623 72.3229 108.879 72.3112C108.529 72.3056 108.182 72.3683 107.861 72.495C107.539 72.6218 107.251 72.8097 107.015 73.0463C106.78 73.2829 106.601 73.5627 106.493 73.8673C106.384 74.1718 106.348 74.494 106.386 74.8124C106.395 74.9465 106.422 75.0792 106.465 75.2076H102.762C102.671 74.4578 102.756 73.6989 103.011 72.9815C103.266 72.2642 103.685 71.6048 104.24 71.0473C104.796 70.4898 105.474 70.0471 106.231 69.7486C106.988 69.45 107.805 69.3026 108.629 69.316C110.381 69.3456 112.061 69.9612 113.351 71.0465C114.641 72.1319 115.453 73.612 115.633 75.2076H111.855Z" fill="black"/>
<path opacity="0.7" d="M111.85 74.8124C111.858 74.944 111.858 75.076 111.85 75.2076C111.809 75.7864 111.526 76.3285 111.059 76.7208C110.592 77.1132 109.978 77.3255 109.345 77.3136C108.677 77.3022 108.032 77.0897 107.51 76.709C106.987 76.3284 106.616 75.8007 106.454 75.2076C106.41 75.0792 106.384 74.9465 106.374 74.8124C106.336 74.494 106.373 74.1718 106.481 73.8673C106.59 73.5627 106.768 73.2829 107.004 73.0463C107.24 72.8097 107.528 72.6218 107.849 72.495C108.171 72.3683 108.518 72.3056 108.868 72.3112C109.613 72.3216 110.328 72.582 110.878 73.043C111.428 73.504 111.773 74.1336 111.85 74.8124Z" fill="black"/>
<path opacity="0.7" d="M113.332 72.358C113.363 72.6176 113.333 72.8801 113.244 73.1283C113.156 73.3764 113.01 73.6044 112.818 73.7972C112.626 73.99 112.391 74.1431 112.129 74.2464C111.867 74.3497 111.584 74.4009 111.299 74.3964C110.693 74.3854 110.113 74.1721 109.667 73.7966C109.222 73.4212 108.941 72.9095 108.879 72.358C108.848 72.0983 108.877 71.8353 108.965 71.5868C109.054 71.3383 109.199 71.1099 109.391 70.917C109.584 70.724 109.819 70.5709 110.082 70.4678C110.344 70.3648 110.627 70.3143 110.913 70.3196C111.519 70.3295 112.099 70.5424 112.545 70.9181C112.991 71.2937 113.271 71.806 113.332 72.358Z" fill="white"/>
<path d="M104.54 61.5576H102.302V62.0776H104.54V61.5576Z" fill="#ED1B24"/>
<path d="M114.156 61.5576H106.857V62.0776H114.156V61.5576Z" fill="#ED1B24"/>
<path d="M207.768 99.658L207.961 99.8712L208.222 100.147C208.41 100.329 208.592 100.521 208.79 100.698C209.182 101.072 209.608 101.436 210.04 101.806C210.903 102.534 211.807 103.22 212.749 103.86C213.709 104.515 214.72 105.113 215.731 105.706C216.299 105.986 216.765 106.283 217.299 106.553L218.532 107.177C218.711 107.25 218.912 107.261 219.1 107.208C219.497 107.099 221.781 105.03 222.508 104.26C224.121 102.57 226.563 100.344 227.881 98.4516L229.352 100.308C228.422 102.627 227.188 104.834 225.677 106.881C224.864 107.987 223.89 108.986 222.78 109.85C222.114 110.364 221.362 110.776 220.554 111.072C219.528 111.447 218.403 111.525 217.327 111.296C217.049 111.234 216.778 111.15 216.515 111.046L216.004 110.843L215.084 110.458C214.465 110.209 213.868 109.907 213.266 109.632C212.062 109.044 210.894 108.396 209.767 107.692C208.631 106.977 207.541 106.202 206.501 105.373C205.962 104.941 205.479 104.504 204.985 104.031C204.741 103.797 204.491 103.553 204.252 103.298L203.9 102.903C203.769 102.757 203.673 102.648 203.497 102.424L207.768 99.658Z" fill="#FFB573"/>
<path d="M227.648 98.7376L230.284 93.5792L232.8 97.708C232.8 97.708 231.147 100.308 229.352 100.308L227.648 98.7376Z" fill="#FFB573"/>
<path d="M233.271 91.4368L235.929 94.5672L232.822 97.7028L230.306 93.5792L233.271 91.4368Z" fill="#FFB573"/>
<path d="M232.345 99.1276H236.532C236.65 99.1268 236.763 99.0859 236.85 99.0129C236.937 98.9399 236.992 98.84 237.003 98.7324L237.872 89.544C237.878 89.4839 237.871 89.4233 237.85 89.366C237.829 89.3087 237.796 89.2561 237.751 89.2115C237.707 89.1669 237.653 89.1314 237.592 89.1071C237.532 89.0829 237.466 89.0705 237.401 89.0708H233.22C233.101 89.0717 232.987 89.1133 232.9 89.1873C232.812 89.2614 232.759 89.3626 232.749 89.4712L231.868 98.6544C231.863 98.7147 231.871 98.7755 231.892 98.8327C231.914 98.89 231.948 98.9426 231.993 98.9871C232.038 99.0316 232.092 99.067 232.153 99.0912C232.214 99.1154 232.279 99.1278 232.345 99.1276Z" fill="#ED1B24"/>
<path opacity="0.3" d="M232.391 98.2072H236.583L237.366 89.9964H233.175L232.391 98.2072Z" fill="white"/>
<path d="M232.118 97.0424L232.862 96.694C233.241 96.5177 233.591 96.2937 233.902 96.0284L234.038 95.576C233.959 95.4555 233.839 95.3617 233.697 95.3083C233.555 95.2549 233.397 95.2448 233.248 95.2796L232.629 95.4356L229.556 95.6488L229.483 96.8344L230.38 98.1032H230.687C231.025 98.1142 231.356 98.0128 231.619 97.8179C231.882 97.6229 232.059 97.3475 232.118 97.0424Z" fill="#FFB573"/>
<path d="M202.406 94.64C204.536 94.2864 219.56 106.21 219.56 106.21L215.107 112.19C215.107 112.19 198.68 101.717 199.203 99.19C199.708 96.5328 199.305 95.16 202.406 94.64Z" fill="#263238"/>
<path opacity="0.2" d="M204.303 98.4516L204.138 104.692C205.842 105.903 212 110.224 212 110.224L204.303 98.4516Z" fill="black"/>
<path d="M192.392 218.561L197.43 219.014L199.032 208.317L193.988 207.865L192.392 218.561Z" fill="#FFB573"/>
<path d="M142.789 155.797L141.499 160.29L152.399 164.59L154.66 160.03L142.789 155.797Z" fill="#FFB573"/>
<path d="M201.037 219.96C201.471 220.009 201.91 219.921 202.281 219.71C202.361 219.646 202.424 219.566 202.463 219.476C202.503 219.385 202.518 219.287 202.508 219.19C202.508 219.13 202.49 219.07 202.456 219.018C202.422 218.966 202.374 218.923 202.315 218.894C201.707 218.561 199.651 219.456 199.418 219.554C199.396 219.564 199.378 219.58 199.365 219.599C199.353 219.619 199.348 219.641 199.35 219.664C199.353 219.687 199.365 219.708 199.382 219.725C199.399 219.742 199.422 219.753 199.447 219.757C199.969 219.869 200.501 219.937 201.037 219.96ZM201.952 219.029C202.031 219.024 202.11 219.04 202.179 219.076C202.203 219.087 202.223 219.105 202.237 219.126C202.251 219.147 202.258 219.171 202.258 219.196C202.264 219.261 202.254 219.326 202.227 219.387C202.201 219.447 202.159 219.501 202.105 219.544C201.793 219.788 200.969 219.809 199.833 219.612C200.503 219.305 201.225 219.107 201.969 219.024L201.952 219.029Z" fill="#ED1B24"/>
<path d="M199.47 219.736H199.515C200.128 219.502 201.361 218.535 201.281 218.005C201.259 217.913 201.203 217.83 201.122 217.772C201.042 217.713 200.941 217.681 200.838 217.682C200.72 217.662 200.598 217.666 200.482 217.693C200.365 217.72 200.256 217.769 200.162 217.838C199.509 218.301 199.356 219.554 199.345 219.601C199.339 219.62 199.339 219.64 199.344 219.659C199.349 219.678 199.359 219.696 199.373 219.71C199.386 219.721 199.402 219.728 199.418 219.733C199.435 219.737 199.452 219.738 199.47 219.736ZM200.725 217.88H200.793C201.014 217.911 201.026 217.989 201.026 218.015C201.077 218.332 200.236 219.102 199.606 219.409C199.666 218.882 199.909 218.386 200.299 217.994C200.425 217.911 200.582 217.875 200.736 217.896L200.725 217.88Z" fill="#ED1B24"/>
<path d="M197.18 217.152L192.637 217.329C192.539 217.33 192.444 217.364 192.372 217.424C192.3 217.484 192.254 217.567 192.245 217.656L191.154 223.465C191.148 223.564 191.163 223.662 191.199 223.756C191.235 223.849 191.291 223.935 191.363 224.009C191.435 224.082 191.523 224.142 191.621 224.184C191.718 224.226 191.824 224.251 191.932 224.255H192.023C194.005 224.162 194.96 224.026 197.47 223.948C199.009 223.902 203.718 224.411 205.82 223.974C207.921 223.538 207.524 221.629 206.621 221.645C203.701 221.697 200.333 219.955 198.669 217.916C198.379 217.745 197.499 217.136 197.18 217.152Z" fill="#263238"/>
<path d="M143.817 160.878L146.134 157.274C146.187 157.198 146.206 157.106 146.188 157.018C146.17 156.929 146.117 156.85 146.038 156.796L141.312 152.807C141.136 152.694 140.919 152.648 140.707 152.679C140.495 152.71 140.304 152.816 140.176 152.974L140.125 153.046C139.137 154.606 138.745 155.428 137.455 157.399C136.66 158.61 133.627 161.975 132.911 163.81C132.196 165.646 134.138 166.41 134.615 165.693C136.155 163.415 139.58 161.772 142.363 161.574C142.63 161.481 143.658 161.132 143.817 160.878Z" fill="#263238"/>
<path opacity="0.2" d="M199.032 208.317L198.209 213.834L193.165 213.382L193.983 207.87L199.032 208.317Z" fill="black"/>
<path opacity="0.2" d="M158.011 161.143L155.682 165.953L148.662 163.114L150.451 158.532L158.011 161.143Z" fill="black"/>
<path d="M205.627 100.126C208.506 104.608 204.985 108.389 202.043 121.784L183.06 121.831C183.367 114.613 183.333 108.779 179.97 94.5776C179.883 94.2277 179.883 93.8642 179.971 93.5144C180.058 93.1646 180.231 92.8374 180.477 92.5574C180.722 92.2773 181.033 92.0517 181.387 91.8972C181.741 91.7428 182.128 91.6636 182.52 91.6656C184.088 91.6656 186.059 91.7124 188.064 91.8996C191.227 92.1364 194.367 92.5725 197.464 93.2048C199.144 93.5757 200.795 94.0482 202.406 94.6192C203.383 94.9208 204.559 97.3544 205.627 100.126Z" fill="#263238"/>
<path d="M202.747 122.689C202.747 122.689 213.408 150.909 213.153 164.481C213.005 172.255 212.363 186.742 209.801 196.929C207.711 205.249 199.191 210.553 199.191 210.553L192.375 210.184C192.375 210.184 188.683 197.496 189.325 192.447C190.603 182.395 194.392 174.845 193.932 165.615C193.205 150.504 188.32 122.455 188.32 122.455L202.747 122.689Z" fill="#ED1B24"/>
<path d="M191.006 211.812L200.634 212.332L201.509 209.685L190.751 208.775L191.006 211.812Z" fill="#263238"/>
<path opacity="0.2" d="M192.222 179.702C192.222 179.702 192.222 179.65 192.279 179.655C198.328 180.175 202.503 172.203 201.509 161.288L198.299 133.468L192.222 179.702Z" fill="black"/>
<path d="M197.964 122.455C197.964 122.455 206.439 172.078 188.819 177.663C179.521 180.887 171.7 177.393 162.436 173.638C157.08 171.47 150.389 165.599 150.389 165.599L152.962 159.188C157.589 158.042 162.432 157.818 167.162 158.532C176.193 159.812 176.573 162.172 179.783 160.389C186.53 145.122 174.921 133.052 182.81 122.429L197.964 122.455Z" fill="#ED1B24"/>
<path d="M153.467 157.971L150.025 166.286L152.558 168.059L156.648 158.163L153.467 157.971Z" fill="#263238"/>
<path d="M152.047 113.131C151.189 114.291 146.839 113.506 146.839 113.506L145.913 108.571L151.258 110.531L152.047 113.131Z" fill="#FFB573"/>
<path d="M146.992 108.316L147.821 113.443L144.612 113.88C144.438 113.894 144.265 113.849 144.125 113.753C143.985 113.657 143.89 113.517 143.857 113.36L142.624 109.72C142.603 109.635 142.619 109.546 142.667 109.472C142.716 109.397 142.794 109.343 142.885 109.32L146.992 108.316Z" fill="#FFB573"/>
<path d="M145.555 110.64L147.384 110.937L149.116 109.746L148.446 109.309C147.992 109.013 147.672 108.574 147.549 108.077C147.42 107.555 147.342 107.025 147.316 106.491V106.314C147.294 106.157 147.217 106.011 147.095 105.899C146.974 105.786 146.816 105.713 146.645 105.69L146.191 105.997C145.907 106.564 146.112 107.224 146.077 107.666L146.004 108.524L145.271 108.815L145.555 110.64Z" fill="#FFB573"/>
<path d="M180.885 93.6L170.138 107.12L150.4 110.687V113.651C150.4 113.651 168.951 114.91 173.12 112.689C177.289 110.469 184.281 97.0008 184.281 97.0008L180.885 93.6Z" fill="#FFB573"/>
<path d="M180.76 67.6C176.25 66.2168 171.018 68.7804 168.957 72.7012C166.895 76.622 167.616 81.432 169.939 85.228C170.638 86.3772 171.473 87.4588 172.046 88.66C172.684 89.8508 172.823 91.214 172.438 92.4924C171.973 93.7352 171.495 94.5308 169.814 94.3332C169.814 94.3332 169.814 93.4804 170.456 93.5844C170.456 93.5844 169.093 94.276 168.559 93.8236C169.178 94.6972 170.831 94.38 171.359 93.4544C172.149 92.0764 170.695 90.2096 168.991 90.2252C167.287 90.2408 165.901 91.8216 165.957 93.3764C166.029 94.154 166.331 94.899 166.831 95.5306C167.332 96.1622 168.012 96.6562 168.797 96.9592C168.337 97.0287 167.865 96.9566 167.454 96.7544C167.043 96.5522 166.716 96.2311 166.525 95.8412C167.298 97.6924 169.82 98.5088 171.95 98.1448C174.08 97.7808 175.88 96.5328 177.55 95.2692C179.822 93.5636 182.145 91.4056 182.094 88.738C182.043 86.7464 180.646 85.0356 179.47 83.356C178.294 81.6764 177.266 79.6276 178.016 77.7608C178.647 76.1748 180.362 75.218 181.873 74.2508C182.963 73.5592 185.179 72.0148 184.917 70.5536C184.65 69.16 182.038 67.99 180.76 67.6Z" fill="#263238"/>
<path d="M170.598 113.88L167.622 106.668L168.303 106.72C168.855 106.762 169.408 106.658 169.896 106.42C170.385 106.182 170.788 105.82 171.058 105.378C173.33 101.676 179.198 92.2792 180.85 91.8112C183.208 91.1716 185.633 92.898 186.53 95.4512C187.206 97.3284 180.282 105.378 177.09 109.954C174.256 114.005 170.598 113.88 170.598 113.88Z" fill="#263238"/>
<path d="M141.568 163.249V163.306C141.609 163.406 141.678 163.495 141.768 163.564C141.857 163.633 141.964 163.68 142.079 163.701C142.148 163.721 142.221 163.724 142.292 163.711C142.362 163.697 142.428 163.667 142.482 163.623C142.959 163.223 142.652 161.543 142.624 161.377C142.621 161.355 142.61 161.335 142.594 161.319C142.578 161.303 142.557 161.293 142.533 161.288C142.511 161.286 142.489 161.288 142.468 161.296C142.447 161.303 142.429 161.315 142.414 161.33C142.028 161.829 141.414 162.718 141.568 163.249ZM142.442 161.689C142.545 162.354 142.59 163.249 142.323 163.467C142.295 163.481 142.264 163.489 142.232 163.489C142.2 163.489 142.169 163.481 142.141 163.467C142.065 163.454 141.993 163.423 141.934 163.378C141.874 163.332 141.828 163.274 141.8 163.207C141.698 162.926 141.914 162.354 142.442 161.678V161.689Z" fill="#ED1B24"/>
<path d="M142.448 161.595C142.596 162.157 143.175 163.114 143.686 163.228C143.779 163.245 143.876 163.233 143.961 163.193C144.045 163.154 144.113 163.089 144.152 163.01C144.196 162.935 144.223 162.853 144.228 162.769C144.234 162.684 144.22 162.6 144.186 162.521C143.953 161.876 142.613 161.346 142.556 161.32C142.538 161.31 142.517 161.306 142.496 161.306C142.475 161.306 142.455 161.31 142.437 161.32C142.42 161.332 142.407 161.348 142.399 161.366C142.391 161.384 142.388 161.404 142.391 161.424C142.405 161.482 142.424 161.539 142.448 161.595ZM143.993 162.635C144.005 162.681 144.006 162.729 143.997 162.775C143.988 162.822 143.97 162.866 143.942 162.906C143.868 163.03 143.794 163.03 143.737 163.02C143.391 162.958 142.863 162.172 142.692 161.626C143.13 161.829 143.828 162.209 143.976 162.604C143.972 162.614 143.972 162.625 143.976 162.635H143.993Z" fill="#ED1B24"/>
<path d="M182.992 120.952L182.464 122.642C182.395 122.772 182.56 122.907 182.799 122.902H202.395C202.582 122.902 202.736 122.814 202.747 122.71L202.929 121.02C202.929 120.905 202.781 120.801 202.576 120.806H183.321C183.257 120.802 183.193 120.813 183.135 120.838C183.077 120.864 183.028 120.903 182.992 120.952Z" fill="#ED1B24"/>
<path opacity="0.5" d="M182.992 120.952L182.464 122.642C182.395 122.772 182.56 122.907 182.799 122.902H202.395C202.582 122.902 202.736 122.814 202.747 122.71L202.929 121.02C202.929 120.905 202.781 120.801 202.576 120.806H183.321C183.257 120.802 183.193 120.813 183.135 120.838C183.077 120.864 183.028 120.903 182.992 120.952Z" fill="white"/>
<path d="M186.752 123.058H186.184C186.076 123.058 185.985 123.006 185.997 122.944L186.252 120.744C186.252 120.682 186.36 120.63 186.474 120.63H187.042C187.15 120.63 187.235 120.682 187.229 120.749L186.974 122.944C186.939 123.006 186.837 123.063 186.752 123.058Z" fill="#ED1B24"/>
<path d="M200.878 123.058H200.31C200.208 123.058 200.117 123.006 200.128 122.944L200.384 120.749C200.384 120.682 200.486 120.63 200.594 120.63H201.162C201.27 120.63 201.361 120.682 201.35 120.744L201.094 122.938C201.083 123.006 200.992 123.058 200.878 123.058Z" fill="#ED1B24"/>
<path d="M194.397 123.048H193.829C193.721 123.048 193.63 122.996 193.642 122.933L193.897 120.739C193.897 120.671 194.005 120.619 194.113 120.619H194.681C194.789 120.619 194.874 120.671 194.869 120.734L194.607 122.928C194.607 122.996 194.511 123.048 194.397 123.048Z" fill="#ED1B24"/>
<path d="M188.95 82.4356C189.552 85.2696 190.143 90.3864 188.041 91.9256C188.041 91.9256 188.882 94.8324 194.5 95.6072C200.702 96.46 197.447 93.2256 197.447 93.2256C194.068 92.0036 194.153 89.7676 194.732 87.7084L188.95 82.4356Z" fill="#FFB573"/>
<path d="M188.064 91.8996C191.061 92.0736 194.04 92.4525 196.976 93.0332L201.225 94.1928C201.98 95.5864 200.742 98.4516 197.186 98.9976C197.186 98.9976 188.229 100.126 185.588 91.6812L188.064 91.8996Z" fill="#FFB573"/>
<path opacity="0.2" d="M191.296 84.5936L194.704 87.7136C194.56 88.1967 194.467 88.6912 194.426 89.1904C193.131 88.842 191.052 87.5368 190.91 86.2888C190.911 85.7056 191.043 85.1288 191.296 84.5936Z" fill="black"/>
<path d="M185.156 78.858C186.678 83.2572 187.212 85.15 190.33 86.8816C194.977 89.4816 200.554 86.8192 200.498 82.0976C200.452 77.844 197.981 71.3648 192.705 70.6576C191.545 70.4984 190.36 70.6137 189.262 70.9923C188.165 71.371 187.191 72.0005 186.435 72.8209C185.678 73.6413 185.163 74.6253 184.939 75.6793C184.716 76.7333 184.79 77.8222 185.156 78.8424V78.858Z" fill="#FFB573"/>
<path d="M196.624 78.1716C197.161 78.9437 197.813 79.6438 198.561 80.2516C198.386 80.425 198.172 80.5613 197.933 80.6511C197.695 80.7409 197.438 80.782 197.18 80.7716L196.624 78.1716Z" fill="#ED893E"/>
<path d="M196.084 83.122C196.277 83.1026 196.467 83.0678 196.652 83.018C196.667 83.0149 196.681 83.0093 196.693 83.0013C196.705 82.9934 196.715 82.9833 196.723 82.9717C196.731 82.9602 196.736 82.9473 196.739 82.9338C196.741 82.9203 196.741 82.9065 196.737 82.8932C196.729 82.8659 196.71 82.8425 196.684 82.8279C196.657 82.8134 196.626 82.8088 196.595 82.8152C196.111 82.9375 195.601 82.9542 195.108 82.8639C194.615 82.7736 194.152 82.5788 193.755 82.2952C193.732 82.2739 193.7 82.262 193.667 82.262C193.634 82.262 193.603 82.2739 193.579 82.2952C193.568 82.3053 193.559 82.3175 193.553 82.3309C193.547 82.3443 193.544 82.3587 193.544 82.3732C193.544 82.3877 193.547 82.4021 193.553 82.4155C193.559 82.4289 193.568 82.441 193.579 82.4512C193.928 82.7082 194.329 82.8997 194.759 83.0148C195.189 83.1299 195.639 83.1663 196.084 83.122Z" fill="#263238"/>
<path d="M183.503 70.0752C182.877 70.4458 182.357 70.9486 181.988 71.5413C181.618 72.134 181.409 72.7993 181.379 73.4812C181.353 73.7419 181.398 74.0045 181.509 74.2456C181.565 74.3649 181.655 74.4685 181.768 74.5461C181.882 74.6237 182.016 74.6725 182.157 74.6876C182.589 74.6876 182.907 74.334 183.145 74.0012L184.247 72.4412C184.701 71.9344 185.083 71.377 185.383 70.7824C185.752 69.758 184.179 69.68 183.503 70.0752Z" fill="#ED1B24"/>
<path d="M184.043 71.11C181.027 74.3028 179.675 83.1376 188.513 85.6024C189.99 84.5312 187.604 82.5812 186.593 80.1164C185.928 78.5044 189.297 75.4936 190.609 74.256C191.921 73.0184 193.131 71.2348 194.982 71.5208C195.452 71.6646 195.958 71.6773 196.436 71.5572C197.907 70.9488 197.192 70.1428 196.436 69.5812C195.278 68.7961 193.898 68.3307 192.46 68.2396C190.909 68.0723 189.337 68.2454 187.873 68.7445C186.409 69.2436 185.096 70.0544 184.043 71.11Z" fill="#263238"/>
<path d="M193.852 70.0388C197.402 72.748 192.716 72.8156 190.234 74.5316C187.854 76.18 189.524 78.8788 185.497 80.132C182.208 81.0108 181.447 80.4804 180.538 79.898C181.664 79.7196 182.695 79.2051 183.468 78.4348C184.242 77.6645 184.715 76.6816 184.815 75.6392C185.093 73.6632 189.796 66.898 193.852 70.0388Z" fill="#263238"/>
<path d="M184.622 82.5552C185.178 83.2886 186.027 83.7928 186.985 83.9592C188.257 84.162 188.746 83.096 188.308 82.056C187.894 81.12 186.741 79.8876 185.508 80.1528C185.084 80.2532 184.721 80.5033 184.499 80.8485C184.276 81.1936 184.212 81.6054 184.321 81.9936C184.379 82.1975 184.481 82.3885 184.622 82.5552Z" fill="#FFB573"/>
<path d="M193.244 70.3144C193.931 71.916 195.914 71.7028 197.379 73.3772C198.282 74.4172 200.055 71.2088 197.641 69.9452C195.227 68.6816 192.165 67.808 193.244 70.3144Z" fill="#263238"/>
<path d="M191.154 77.0744C191.205 77.0794 191.255 77.0694 191.299 77.046C191.343 77.0227 191.378 76.987 191.398 76.9444C191.864 75.998 193.261 75.7588 193.273 75.7588C193.335 75.7462 193.39 75.7123 193.426 75.664C193.462 75.6156 193.476 75.5565 193.466 75.4988C193.453 75.4424 193.417 75.3927 193.365 75.3606C193.313 75.3285 193.249 75.3165 193.187 75.3272C193.114 75.3272 191.523 75.634 190.955 76.778C190.93 76.8312 190.928 76.8913 190.95 76.9457C190.973 77 191.017 77.0443 191.074 77.0692H191.154V77.0744Z" fill="#263238"/>
<path d="M198.538 75.1608C198.58 75.1635 198.621 75.1558 198.658 75.1384C198.695 75.1209 198.726 75.0945 198.748 75.062C198.766 75.0386 198.779 75.0121 198.786 74.9841C198.792 74.9561 198.793 74.9272 198.787 74.899C198.781 74.8709 198.769 74.8441 198.752 74.8203C198.734 74.7964 198.712 74.7761 198.686 74.7604C198.371 74.5609 198.009 74.4336 197.629 74.3892C197.249 74.3449 196.864 74.3848 196.505 74.5056C196.475 74.5163 196.448 74.5325 196.425 74.5533C196.402 74.574 196.384 74.5989 196.373 74.6262C196.361 74.6535 196.355 74.6828 196.357 74.7122C196.358 74.7415 196.366 74.7703 196.38 74.7968C196.405 74.8498 196.451 74.8916 196.51 74.913C196.569 74.9344 196.634 74.9338 196.692 74.9112C196.974 74.8208 197.276 74.7935 197.573 74.8315C197.869 74.8694 198.151 74.9716 198.396 75.1296C198.44 75.1492 198.489 75.1599 198.538 75.1608Z" fill="#263238"/>
<path d="M221.888 103.626L218.56 105.357L215.101 112.169C215.101 112.169 218.441 114.114 221.076 112.538C223.712 110.963 221.888 103.626 221.888 103.626Z" fill="#ED1B24"/>
<path opacity="0.5" d="M221.888 103.626L218.56 105.357L215.101 112.169C215.101 112.169 218.441 114.114 221.076 112.538C223.712 110.963 221.888 103.626 221.888 103.626Z" fill="white"/>
<path d="M163.686 105.732L167.622 106.772L171.354 113.838C171.354 113.838 168.354 116.381 165.106 113.953C162.674 112.112 163.686 105.732 163.686 105.732Z" fill="#ED1B24"/>
<g opacity="0.5">
<path d="M163.686 105.732L167.622 106.772L171.354 113.838C171.354 113.838 168.354 116.381 165.106 113.953C162.674 112.112 163.686 105.732 163.686 105.732Z" fill="white"/>
</g>
<path d="M198.311 76.9236C198.583 76.8768 198.879 77.1576 198.941 77.5424C199.004 77.9272 198.85 78.2808 198.578 78.3224C198.305 78.364 198.01 78.0884 197.947 77.7036C197.885 77.3188 198.038 76.96 198.311 76.9236Z" fill="#263238"/>
<path d="M199.151 76.544L198.192 76.9756C198.771 77.35 199.151 76.544 199.151 76.544Z" fill="#263238"/>
<path d="M193.568 77.818C193.841 77.7712 194.136 78.052 194.198 78.4368C194.261 78.8216 194.108 79.1752 193.835 79.2168C193.562 79.2584 193.267 78.9828 193.204 78.598C193.142 78.2132 193.284 77.8648 193.568 77.818Z" fill="#263238"/>
<path d="M194.397 77.4384L193.437 77.87C194.017 78.2444 194.397 77.4384 194.397 77.4384Z" fill="#263238"/>
<path d="M169.519 97.7132C168.984 97.716 168.454 97.6242 167.957 97.4428C166.196 96.7824 165.378 95.108 165.685 92.8408C165.695 92.7726 165.734 92.7107 165.793 92.6688C165.853 92.6269 165.928 92.6083 166.003 92.6172C166.04 92.621 166.076 92.6317 166.109 92.6485C166.141 92.6653 166.17 92.688 166.193 92.7152C166.216 92.7424 166.232 92.7735 166.242 92.8067C166.251 92.8399 166.253 92.8745 166.247 92.9084C165.952 94.9208 166.645 96.3976 168.15 96.9592C169.024 97.233 169.969 97.2466 170.852 96.9981C171.735 96.7497 172.509 96.2518 173.063 95.576C174.489 93.8392 174.023 91.3744 171.802 88.816C165.986 82.134 166.372 78.5824 167.196 75.7744C168.389 71.6976 171.882 67.028 181.765 67.9276C181.84 67.9345 181.91 67.9685 181.957 68.0221C182.005 68.0758 182.028 68.1446 182.021 68.2136C182.013 68.2825 181.976 68.3459 181.917 68.3898C181.859 68.4337 181.784 68.4545 181.708 68.4476C172.228 67.5844 168.877 72.0356 167.741 75.9148C166.923 78.7228 166.605 82.004 172.245 88.4988C175.653 92.4144 174.273 94.978 173.518 95.8932C173.045 96.4538 172.439 96.9088 171.747 97.2241C171.054 97.5393 170.292 97.7066 169.519 97.7132Z" fill="#263238"/>
</svg>
