<svg width="277" height="232" viewBox="0 0 277 232" fill="none" xmlns="http://www.w3.org/2000/svg">
<path d="M225.943 64.032C187.125 27.0373 120.478 20.88 90.7673 32.763C79.2228 37.3448 68.5441 43.3214 59.073 50.5018C57.832 51.4298 56.6261 52.3841 55.4553 53.3647C51.7996 56.3805 48.3711 59.5836 45.1897 62.9555C41.3766 66.9892 37.9373 71.2612 34.9019 75.7341C30.5526 82.0991 27.1073 88.8685 24.6363 95.9042C23.0014 100.52 21.9285 105.264 21.4342 110.061C20.5866 119.067 21.3234 128.157 22.7693 137.089C22.9023 137.943 23.0463 138.796 23.2014 139.65C23.2402 139.887 23.279 140.114 23.3233 140.36C24.9133 149.255 27.1626 158.229 32.1873 165.987C37.6719 174.464 56.8071 197.984 77.5599 198.592C88.3241 198.912 97.8308 193.024 107.587 188.848C123.099 182.222 140.655 180.923 157.774 180.538C174.892 180.153 192.221 180.566 208.902 177.011C225.583 173.457 241.937 165.295 250.463 151.728C253.361 147.116 255.56 140.471 255.566 135.154C255.566 119.466 252.508 105.746 247.167 93.8254C245.471 90.0245 243.493 86.3161 241.245 82.7219C237.951 77.4517 234.071 72.4539 229.655 67.7951L225.943 64.032Z" fill="#ED1B24"/>
<g opacity="0.7">
<path d="M225.943 64.032C187.125 27.0373 120.478 20.88 90.7673 32.763C79.2228 37.3448 68.5441 43.3214 59.073 50.5018C57.832 51.4298 56.6261 52.3841 55.4553 53.3647C51.7996 56.3805 48.3711 59.5836 45.1897 62.9555C41.3766 66.9892 37.9373 71.2612 34.9019 75.7341C30.5526 82.0991 27.1073 88.8685 24.6363 95.9042C23.0014 100.52 21.9285 105.264 21.4342 110.061C20.5866 119.067 21.3234 128.157 22.7693 137.089C22.9023 137.943 23.0463 138.796 23.2014 139.65C23.2402 139.887 23.279 140.114 23.3233 140.36C24.9133 149.255 27.1626 158.229 32.1873 165.987C37.6719 174.464 56.8071 197.984 77.5599 198.592C88.3241 198.912 97.8308 193.024 107.587 188.848C123.099 182.222 140.655 180.923 157.774 180.538C174.892 180.153 192.221 180.566 208.902 177.011C225.583 173.457 241.937 165.295 250.463 151.728C253.361 147.116 255.56 140.471 255.566 135.154C255.566 119.466 252.508 105.746 247.167 93.8254C245.471 90.0245 243.493 86.3161 241.245 82.7219C237.951 77.4517 234.071 72.4539 229.655 67.7951L225.943 64.032Z" fill="white"/>
</g>
<path d="M255.566 198.054H17.318" stroke="#263238" stroke-linecap="round" stroke-linejoin="round"/>
<path d="M72.2139 130.741V130.792C72.2139 130.876 72.1917 130.964 72.1474 131.057C71.8997 132.074 71.7148 133.1 71.5934 134.133C71.4882 135.019 71.4051 136.031 71.3829 137.158C71.3303 139.764 71.5435 142.369 72.02 144.944C72.1419 145.622 72.2859 146.336 72.4577 147.051C72.7291 148.229 73.0615 149.464 73.4715 150.74C73.6543 151.334 73.8648 151.941 74.0864 152.554L74.3468 153.301C74.4465 153.603 74.5462 153.904 74.6404 154.229C75.2772 156.29 75.7858 158.378 76.1639 160.484C76.6348 163.105 76.9284 165.708 77.0891 168.172C77.3051 171.457 77.2941 174.492 77.1999 176.988C77.2027 177.03 77.2027 177.072 77.1999 177.113C77.1002 179.652 76.9118 181.642 76.7844 182.774C76.7124 183.438 76.6625 183.814 76.657 183.837" stroke="#263238" stroke-linecap="round" stroke-linejoin="round"/>
<path d="M72.1972 130.806C73.0266 130.189 74.026 129.754 75.1057 129.54L72.1972 130.806Z" fill="white"/>
<path d="M72.1972 130.806C73.0266 130.189 74.026 129.754 75.1057 129.54" stroke="#263238" stroke-linecap="round" stroke-linejoin="round"/>
<path d="M71.5767 134.147L70.103 133.029" stroke="#263238" stroke-linecap="round" stroke-linejoin="round"/>
<path d="M73.4547 150.744C73.532 150.419 73.647 150.1 73.7982 149.793C74.0166 149.343 74.3134 148.922 74.6791 148.545C74.9521 148.261 75.2624 148.005 75.6042 147.779" stroke="#263238" stroke-linecap="round" stroke-linejoin="round"/>
<path d="M74.6348 154.224C74.426 153.791 74.1132 153.398 73.7158 153.07C73.3185 152.742 72.8449 152.486 72.3246 152.317" stroke="#263238" stroke-linecap="round" stroke-linejoin="round"/>
<path d="M77.1943 171.485C76.7013 170.984 76.3301 169.086 76.1307 168.065C76.0808 167.824 76.042 167.601 76.0032 167.467" fill="white"/>
<path d="M77.1943 171.485C76.7013 170.984 76.3301 169.086 76.1307 168.065C76.0808 167.824 76.042 167.601 76.0032 167.467" stroke="#263238" stroke-linecap="round" stroke-linejoin="round"/>
<path d="M80.9893 174.928C80.8253 174.914 80.6601 174.914 80.4962 174.928C79.7706 174.987 79.0778 175.21 78.4923 175.574C77.9067 175.938 77.4503 176.428 77.1722 176.993" fill="white"/>
<path d="M80.9893 174.928C80.8253 174.914 80.6601 174.914 80.4962 174.928C79.7706 174.987 79.0778 175.21 78.4923 175.574C77.9067 175.938 77.4503 176.428 77.1722 176.993" stroke="#263238" stroke-linecap="round" stroke-linejoin="round"/>
<path d="M72.4409 147.088C72.4409 147.088 72.1806 139.557 77.1167 136.824" stroke="#263238" stroke-linecap="round" stroke-linejoin="round"/>
<path d="M72.02 163.231C71.3718 164.989 75.898 168.335 75.898 168.335C75.898 168.335 81.8756 167.708 82.546 165.954C83.2163 164.2 81.6817 161.314 78.7788 160.572C75.8758 159.829 72.646 161.472 72.02 163.231Z" fill="#ED1B24"/>
<path d="M66.9841 141.919C67.5381 143.775 71.8371 145.107 71.8371 145.107C71.8371 145.107 74.7899 142.216 74.2359 140.351C73.6819 138.485 71.2942 136.435 69.2887 136.866C67.2832 137.298 66.4079 140.054 66.9841 141.919Z" fill="#ED1B24"/>
<path d="M84.1525 169.792C81.4656 170.664 79.8202 174.645 79.8202 174.645C79.8202 174.645 84.2522 176.645 86.9335 175.768C89.6149 174.891 92.4735 172.422 91.6979 170.775C90.9223 169.128 86.8394 168.896 84.1525 169.792Z" fill="#ED1B24"/>
<path d="M78.2635 147.891C77.7197 148.274 77.0962 148.569 76.4243 148.763C76.087 148.854 75.7261 148.866 75.3812 148.798C75.0363 148.729 74.7206 148.582 74.4686 148.373C73.9146 147.821 74.0476 146.981 74.4077 146.29C75.1279 144.968 77.776 142.717 79.8092 143.362C82.7454 144.304 79.571 147.088 78.2635 147.891Z" fill="#ED1B24"/>
<path d="M72.2525 151.264C72.6403 151.663 73.0503 152.169 72.8342 152.656C72.7138 152.861 72.5159 153.026 72.2714 153.127C72.0269 153.228 71.7496 153.258 71.4825 153.213C70.9511 153.107 70.455 152.903 70.031 152.614C68.995 152.011 66.8677 150.758 68.225 149.566C69.5823 148.373 71.4659 150.424 72.2525 151.264Z" fill="#ED1B24"/>
<path d="M80.9228 134.435C81.1464 134.446 81.3603 134.515 81.5343 134.633C81.7082 134.752 81.8334 134.913 81.8923 135.094C81.9809 135.525 81.5543 135.901 81.1443 136.165C80.1139 136.834 77.017 138.625 76.3301 136.894C75.6764 135.261 79.5599 134.309 80.9228 134.435Z" fill="#ED1B24"/>
<path d="M75.2221 128.746C75.8592 128.797 76.4963 128.602 77.1389 128.635C77.7815 128.667 78.4851 129.099 78.3466 129.628C78.2081 130.157 77.4935 130.273 76.9062 130.3C75.8952 130.355 74.8799 130.297 73.8869 130.129C73.6518 130.11 73.4339 130.017 73.2775 129.869C73.0171 129.549 73.4271 129.122 73.8703 129.011C74.3253 128.96 74.7728 128.87 75.2054 128.741L75.2221 128.746Z" fill="#ED1B24"/>
<path d="M68.9839 132.426C68.3468 132.426 67.7263 132.212 67.0837 132.208C66.441 132.203 65.6987 132.597 65.804 133.136C65.9092 133.674 66.5962 133.827 67.1834 133.887C68.1873 133.999 69.2044 133.999 70.2083 133.887C70.446 133.883 70.6723 133.801 70.8398 133.66C71.1223 133.358 70.7456 132.908 70.319 132.769C69.8674 132.698 69.4269 132.585 69.0061 132.43L68.9839 132.426Z" fill="#ED1B24"/>
<path d="M69.6156 171.968C69.4688 171.839 69.2726 171.759 69.0616 171.74C68.9193 171.752 68.7861 171.804 68.685 171.889C68.5839 171.974 68.5212 172.085 68.5076 172.204C68.477 172.434 68.5111 172.666 68.6073 172.882C69.045 174.102 73.9202 182.913 75.0448 181.331C75.7041 180.403 74.0753 177.299 73.5933 176.422C72.6736 174.711 71.3156 173.19 69.6156 171.968Z" fill="#ED1B24"/>
<path d="M71.9922 131.312C71.9922 131.312 72.2858 129.173 71.6709 128.992" stroke="#263238" stroke-linecap="round" stroke-linejoin="round"/>
<path d="M72.5352 129.08C72.221 128.325 71.679 127.65 70.9618 127.122C70.1917 126.658 68.9563 126.621 68.3968 127.266C67.7708 127.985 68.3968 129.076 69.3552 129.461C70.3136 129.846 71.4438 129.73 72.4964 129.604C72.4964 129.475 72.4964 129.345 72.4964 129.215L72.5352 129.08Z" fill="#ED1B24"/>
<path d="M69.9092 197.947C75.1316 198.685 80.4647 198.685 85.6871 197.947L91.8254 182.779H63.7709L69.9092 197.947Z" fill="white" stroke="#263238" stroke-linecap="round" stroke-linejoin="round"/>
<path d="M176.975 88.3595V88.4106C176.953 88.4941 176.931 88.5823 176.909 88.6751C176.658 89.6913 176.473 90.7183 176.355 91.7514C176.249 92.6376 176.172 93.6491 176.144 94.7766C176.087 97.3758 176.295 99.9743 176.765 102.544C176.887 103.221 177.031 103.936 177.202 104.651C177.474 105.829 177.812 107.063 178.216 108.339C178.405 108.933 178.609 109.541 178.831 110.154C178.92 110.404 179.008 110.65 179.091 110.901C179.175 111.151 179.296 111.504 179.391 111.829" stroke="#263238" stroke-linecap="round" stroke-linejoin="round"/>
<path d="M176.964 88.4245C177.362 88.133 177.796 87.8794 178.26 87.6681C178.772 87.4423 179.316 87.2708 179.878 87.1577" fill="white"/>
<path d="M176.964 88.4245C177.362 88.133 177.796 87.8794 178.26 87.6681C178.772 87.4423 179.316 87.2708 179.878 87.1577" stroke="#263238" stroke-linecap="round" stroke-linejoin="round"/>
<path d="M176.344 91.7653L174.865 90.647" stroke="#263238" stroke-linecap="round" stroke-linejoin="round"/>
<path d="M178.216 108.363C178.295 108.037 178.412 107.718 178.565 107.411C178.784 106.961 179.081 106.541 179.446 106.163C179.719 105.88 180.03 105.623 180.371 105.398" stroke="#263238" stroke-linecap="round" stroke-linejoin="round"/>
<path d="M179.396 111.824C179.189 111.39 178.878 110.997 178.482 110.669C178.085 110.341 177.612 110.085 177.092 109.917" stroke="#263238" stroke-linecap="round" stroke-linejoin="round"/>
<path d="M181.961 129.103C181.468 128.602 181.091 126.704 180.892 125.684C180.848 125.442 180.803 125.22 180.77 125.085" fill="white"/>
<path d="M181.961 129.103C181.468 128.602 181.091 126.704 180.892 125.684C180.848 125.442 180.803 125.22 180.77 125.085" stroke="#263238" stroke-linecap="round" stroke-linejoin="round"/>
<path d="M185.756 132.528C185.59 132.514 185.423 132.514 185.257 132.528C184.532 132.588 183.84 132.812 183.255 133.176C182.67 133.539 182.213 134.029 181.933 134.592" fill="white"/>
<path d="M185.756 132.528C185.59 132.514 185.423 132.514 185.257 132.528C184.532 132.588 183.84 132.812 183.255 133.176C182.67 133.539 182.213 134.029 181.933 134.592" stroke="#263238" stroke-linecap="round" stroke-linejoin="round"/>
<path d="M177.208 104.688C177.208 104.688 176.942 97.157 181.884 94.424" stroke="#263238" stroke-linecap="round" stroke-linejoin="round"/>
<path d="M176.759 120.849C176.117 122.607 180.637 125.953 180.637 125.953C180.637 125.953 186.62 125.326 187.285 123.572C187.95 121.819 186.415 118.932 183.518 118.19C180.621 117.448 177.407 119.095 176.759 120.849Z" fill="#ED1B24"/>
<path d="M171.74 99.5373C172.294 101.393 176.593 102.725 176.593 102.725C176.593 102.725 179.579 99.8342 179.003 97.969C178.427 96.1037 176.067 94.0528 174.061 94.4843C172.056 94.9158 171.186 97.672 171.74 99.5373Z" fill="#ED1B24"/>
<path d="M188.914 127.41C186.227 128.287 184.576 132.263 184.576 132.263C184.576 132.263 189.008 134.263 191.695 133.386C194.382 132.509 197.235 130.041 196.454 128.393C195.673 126.746 191.606 126.533 188.914 127.41Z" fill="#ED1B24"/>
<path d="M183.025 105.509C182.483 105.892 181.861 106.188 181.191 106.381C180.854 106.473 180.493 106.485 180.148 106.416C179.803 106.347 179.488 106.2 179.236 105.992C178.682 105.439 178.815 104.6 179.175 103.908C179.895 102.586 182.537 100.335 184.576 100.98C187.507 101.913 184.338 104.697 183.025 105.509Z" fill="#ED1B24"/>
<path d="M177.019 108.887C177.402 109.286 177.812 109.815 177.601 110.279C177.481 110.484 177.283 110.649 177.038 110.75C176.794 110.851 176.517 110.881 176.249 110.836C175.718 110.731 175.221 110.526 174.798 110.237C173.762 109.639 171.635 108.381 172.992 107.189C174.349 105.996 176.205 108.042 177.019 108.887Z" fill="#ED1B24"/>
<path d="M185.69 92.0529C185.913 92.0645 186.126 92.1343 186.3 92.2524C186.474 92.3705 186.6 92.5311 186.659 92.7118C186.748 93.1433 186.321 93.5192 185.906 93.7837C184.875 94.4518 181.784 96.2429 181.091 94.5121C180.443 92.8789 184.321 91.9277 185.69 92.0529Z" fill="#ED1B24"/>
<path d="M179.989 86.3643C180.626 86.4154 181.263 86.2205 181.9 86.253C182.537 86.2855 183.252 86.717 183.108 87.2459C182.964 87.7749 182.26 87.8909 181.668 87.9187C180.658 87.9731 179.645 87.9153 178.654 87.7471C178.417 87.7286 178.197 87.6358 178.039 87.4872C177.784 87.1671 178.194 86.7402 178.632 86.6288C179.088 86.5783 179.538 86.4881 179.972 86.3597L179.989 86.3643Z" fill="#ED1B24"/>
<path d="M173.751 90.0438C173.108 90.0438 172.488 89.8304 171.851 89.8258C171.214 89.8211 170.466 90.2155 170.566 90.7538C170.665 91.292 171.363 91.4451 171.951 91.5054C172.954 91.6168 173.972 91.6168 174.975 91.5054C175.213 91.5009 175.439 91.4194 175.607 91.2781C175.89 90.9765 175.513 90.5264 175.081 90.3872C174.629 90.3152 174.189 90.2016 173.768 90.0485L173.751 90.0438Z" fill="#ED1B24"/>
<path d="M174.383 129.586C174.235 129.458 174.039 129.378 173.829 129.359C173.687 129.372 173.556 129.426 173.455 129.51C173.355 129.594 173.291 129.704 173.275 129.823C173.246 130.052 173.282 130.284 173.38 130.5C173.812 131.72 178.693 140.532 179.812 138.949C180.477 138.021 178.848 134.917 178.366 134.04C177.444 132.329 176.085 130.808 174.383 129.586Z" fill="#ED1B24"/>
<path d="M176.759 88.9395C176.759 88.9395 177.053 86.8005 176.432 86.6195" stroke="#263238" stroke-linecap="round" stroke-linejoin="round"/>
<path d="M177.28 86.6984C176.97 85.9413 176.427 85.2659 175.707 84.7403C174.937 84.2763 173.707 84.2392 173.147 84.8842C172.521 85.6034 173.147 86.6938 174.106 87.0789C175.064 87.464 176.189 87.348 177.241 87.2227C177.241 87.0928 177.241 86.9629 177.241 86.833L177.28 86.6984Z" fill="#ED1B24"/>
<path d="M247.167 139.65V93.8022" stroke="#263238" stroke-linecap="round" stroke-linejoin="round"/>
<path d="M76.2581 139.65H83.0225" stroke="#263238" stroke-linecap="round" stroke-linejoin="round"/>
<path d="M23.2125 139.65H36.9905" stroke="#263238" stroke-linecap="round" stroke-linejoin="round"/>
<path d="M83.6428 69.999H59.228V50.5203" stroke="#263238" stroke-linecap="round" stroke-linejoin="round"/>
<path d="M225.943 64.0506H200.005V79.8962H171.574" stroke="#263238" stroke-linecap="round" stroke-linejoin="round"/>
<path d="M241.245 117.712V82.6987" stroke="#263238" stroke-linecap="round" stroke-linejoin="round"/>
<path d="M229.655 67.5027V94.9437" stroke="#263238" stroke-linecap="round" stroke-linejoin="round"/>
<path d="M218.071 67.5027V91.7606" stroke="#263238" stroke-linecap="round" stroke-linejoin="round"/>
<path d="M206.487 67.5027V109.936" stroke="#263238" stroke-linecap="round" stroke-linejoin="round"/>
<path d="M150.993 61.4846V33.5843H103.831V61.4846" stroke="#263238" stroke-linecap="round" stroke-linejoin="round"/>
<path d="M147.536 47.444V36.8973H138.816" stroke="#263238" stroke-linecap="round" stroke-linejoin="round"/>
<path d="M136.899 47.444V36.8973H128.179" stroke="#263238" stroke-linecap="round" stroke-linejoin="round"/>
<path d="M126.262 47.444V36.8973H117.542" stroke="#263238" stroke-linecap="round" stroke-linejoin="round"/>
<path d="M115.625 47.444V36.8973H106.905" stroke="#263238" stroke-linecap="round" stroke-linejoin="round"/>
<path d="M147.536 61.4846V50.9379H138.816" stroke="#263238" stroke-linecap="round" stroke-linejoin="round"/>
<path d="M136.899 61.4846V50.9379H128.179" stroke="#263238" stroke-linecap="round" stroke-linejoin="round"/>
<path d="M126.262 61.4846V50.9379H117.542" stroke="#263238" stroke-linecap="round" stroke-linejoin="round"/>
<path d="M115.625 61.4846V50.9379H106.905" stroke="#263238" stroke-linecap="round" stroke-linejoin="round"/>
<path d="M55.4497 52.9331V87.8955" stroke="#263238" stroke-linecap="round" stroke-linejoin="round"/>
<path d="M38.3257 137.089H36.9905" stroke="#263238" stroke-linecap="round" stroke-linejoin="round"/>
<path d="M45.1841 62.9741V102.117" stroke="#263238" stroke-linecap="round" stroke-linejoin="round"/>
<path d="M34.9131 127.094V137.089H26.7194" stroke="#263238" stroke-linecap="round" stroke-linejoin="round"/>
<path d="M34.9131 75.7341V102.317" stroke="#263238" stroke-linecap="round" stroke-linejoin="round"/>
<path d="M24.6475 95.9042V137.089H22.7805" stroke="#263238" stroke-linecap="round" stroke-linejoin="round"/>
<path d="M149.752 140.49H255.566V198.054H149.752V140.49Z" fill="white" stroke="#263238" stroke-linecap="round" stroke-linejoin="round"/>
<path d="M255.566 140.49L202.659 169.272L149.752 140.49H255.566Z" fill="white" stroke="#263238" stroke-linecap="round" stroke-linejoin="round"/>
<path d="M218.564 160.618L255.566 198.054" stroke="#263238" stroke-linecap="round" stroke-linejoin="round"/>
<path d="M186.465 160.618L149.464 198.054" stroke="#263238" stroke-linecap="round" stroke-linejoin="round"/>
<path d="M93.1274 67.0387H117.725C118.433 67.0394 119.129 67.199 119.739 67.5009C120.348 67.8028 120.851 68.236 121.193 68.7555C121.797 69.6692 122.683 70.4307 123.758 70.9609C124.832 71.4911 126.056 71.7708 127.304 71.7708C128.551 71.7708 129.775 71.4911 130.85 70.9609C131.924 70.4307 132.81 69.6692 133.414 68.7555C133.754 68.2293 134.257 67.7898 134.87 67.4835C135.484 67.1772 136.185 67.0155 136.899 67.0155H161.469C162.143 67.0081 162.813 67.1121 163.439 67.3215C164.066 67.5309 164.637 67.8416 165.12 68.2358C165.603 68.6301 165.989 69.1002 166.255 69.6193C166.521 70.1383 166.662 70.6962 166.671 71.2611V187.456C166.652 188.596 166.094 189.684 165.118 190.48C164.143 191.276 162.83 191.715 161.469 191.702H93.1274C91.7652 191.715 90.4522 191.276 89.476 190.48C88.4999 189.684 87.9402 188.597 87.9198 187.456V71.2843C87.9388 70.1431 88.4979 69.0549 89.4744 68.2588C90.4509 67.4627 91.7648 67.0238 93.1274 67.0387Z" fill="#ED1B24"/>
<path d="M85.5211 69.999C85.5182 69.2163 85.6997 68.4408 86.0553 67.7169C86.4109 66.9931 86.9336 66.3351 87.5934 65.7808C88.2532 65.2265 89.0372 64.7867 89.9003 64.4866C90.7635 64.1865 91.6888 64.032 92.6234 64.032H161.968C162.9 64.0314 163.823 64.1847 164.685 64.4831C165.547 64.7815 166.33 65.2193 166.989 65.7713C167.649 66.3233 168.172 66.9787 168.529 67.7001C168.886 68.4216 169.07 69.1949 169.07 69.9758V192.096C169.07 193.672 168.322 195.184 166.991 196.299C165.66 197.414 163.855 198.04 161.973 198.04H92.6234C90.7407 198.04 88.935 197.414 87.6032 196.299C86.2715 195.185 85.5226 193.673 85.5211 192.096V69.999ZM87.9199 187.456C87.9403 188.597 88.5 189.684 89.4761 190.48C90.4523 191.276 91.7653 191.715 93.1275 191.702H161.469C162.831 191.715 164.143 191.276 165.118 190.48C166.094 189.684 166.652 188.596 166.671 187.456V71.2843C166.662 70.7194 166.521 70.1615 166.255 69.6425C165.989 69.1234 165.603 68.6533 165.12 68.259C164.637 67.8648 164.066 67.5541 163.439 67.3447C162.813 67.1353 162.143 67.0313 161.469 67.0387H136.888C136.174 67.0385 135.474 67.2002 134.862 67.5066C134.249 67.8129 133.747 68.2525 133.409 68.7787C132.804 69.6924 131.919 70.4539 130.844 70.9841C129.77 71.5143 128.545 71.794 127.298 71.794C126.051 71.794 124.827 71.5143 123.752 70.9841C122.678 70.4539 121.792 69.6924 121.188 68.7787C120.846 68.2586 120.344 67.8248 119.734 67.5228C119.124 67.2208 118.428 67.0616 117.72 67.0619H93.122C92.4475 67.0545 91.778 67.1585 91.1515 67.3679C90.5251 67.5773 89.954 67.888 89.471 68.2822C88.9879 68.6765 88.6023 69.1466 88.3362 69.6657C88.07 70.1847 87.9286 70.7426 87.9199 71.3075V187.456Z" fill="#263238"/>
<path opacity="0.2" d="M109.083 64.0505L155.148 198.049L136.855 198.035L92.4958 64.0505H109.083Z" fill="white"/>
<path opacity="0.2" d="M115.952 64.0505L164.655 198.054L161.99 198.04L114.202 64.0505H115.952Z" fill="white"/>
<path d="M114.872 163.667C114.838 164.995 115.122 166.315 115.706 167.55C116.291 168.785 117.165 169.91 118.276 170.858C119.388 171.806 120.715 172.557 122.178 173.069C123.642 173.581 125.213 173.842 126.8 173.838C130.036 173.827 133.14 172.758 135.448 170.858C137.756 168.957 139.086 166.377 139.154 163.667C139.187 162.339 138.903 161.019 138.318 159.784C137.733 158.55 136.859 157.426 135.748 156.479C134.636 155.531 133.31 154.78 131.846 154.268C130.383 153.757 128.812 153.496 127.226 153.5C123.99 153.51 120.887 154.578 118.578 156.477C116.27 158.377 114.94 160.957 114.872 163.667Z" fill="white" stroke="#263238" stroke-linecap="round" stroke-linejoin="round"/>
<path d="M130.994 171.258C132.121 170.908 133.155 170.375 134.035 169.689C134.922 168.975 135.609 168.105 136.046 167.142C136.544 166.062 136.79 164.912 136.772 163.755C136.779 162.768 136.57 161.788 136.157 160.864C135.781 160.011 135.217 159.224 134.495 158.544C133.071 157.239 131.231 156.303 129.193 155.844C128.192 155.618 127.16 155.504 126.124 155.505C125.263 155.502 124.405 155.587 123.57 155.76C122.764 155.926 121.992 156.193 121.282 156.554C120.579 156.907 119.948 157.354 119.415 157.876C118.859 158.439 118.434 159.084 118.163 159.778C117.852 160.57 117.699 161.399 117.709 162.233C117.72 163.844 118.413 165.399 119.664 166.622C120.202 167.133 120.839 167.565 121.548 167.898C122.159 168.192 122.849 168.352 123.553 168.362C124.04 168.368 124.515 168.239 124.905 167.996C125.101 167.874 125.261 167.716 125.371 167.534C125.482 167.352 125.54 167.151 125.542 166.947C125.906 167.41 126.404 167.787 126.991 168.043C127.578 168.299 128.233 168.425 128.894 168.409C129.414 168.428 129.933 168.35 130.412 168.18C130.891 168.01 131.319 167.752 131.664 167.425C132.356 166.752 132.721 165.886 132.689 164.998C132.684 164.268 132.532 163.543 132.24 162.855C131.949 162.161 131.536 161.507 131.016 160.915C130.497 160.333 129.836 159.851 129.077 159.5C128.318 159.141 127.461 158.954 126.589 158.957C125.983 158.952 125.386 159.073 124.85 159.31C124.329 159.542 123.907 159.903 123.642 160.344L123.531 160.034C123.443 159.816 123.255 159.636 123.009 159.535C122.763 159.433 122.478 159.417 122.218 159.491C122.118 159.519 122.022 159.56 121.936 159.611C121.853 159.667 121.787 159.737 121.744 159.818C121.701 159.899 121.681 159.987 121.686 160.075C121.686 160.162 121.703 160.248 121.736 160.331L123.531 165.332C123.689 165.714 123.792 166.109 123.836 166.511C123.852 166.586 123.847 166.663 123.819 166.736C123.791 166.809 123.743 166.874 123.678 166.928C123.613 166.981 123.533 167.02 123.445 167.041C123.358 167.062 123.266 167.065 123.177 167.049C122.541 167.015 121.946 166.778 121.515 166.386C120.916 165.89 120.456 165.29 120.168 164.627C119.825 163.904 119.648 163.132 119.648 162.354C119.64 161.668 119.76 160.986 120.002 160.331C120.206 159.766 120.529 159.236 120.955 158.767C121.359 158.339 121.848 157.974 122.401 157.686C122.952 157.395 123.554 157.177 124.185 157.041C124.832 156.898 125.499 156.827 126.168 156.827C127.017 156.828 127.862 156.928 128.678 157.124C129.518 157.324 130.319 157.625 131.054 158.02C131.796 158.412 132.468 158.89 133.049 159.44C133.648 160.019 134.113 160.686 134.423 161.407C134.771 162.192 134.945 163.024 134.938 163.862C134.956 164.854 134.742 165.839 134.306 166.762C133.931 167.56 133.339 168.275 132.578 168.85C131.842 169.384 130.993 169.798 130.074 170.07C129.104 170.357 128.083 170.502 127.055 170.497C125.956 170.497 124.863 170.358 123.814 170.084C123.709 170.052 123.598 170.037 123.487 170.037C123.383 170.036 123.28 170.053 123.184 170.088C123.089 170.122 123.003 170.173 122.933 170.237C122.862 170.299 122.807 170.371 122.77 170.451C122.732 170.531 122.715 170.616 122.717 170.701C122.703 170.836 122.749 170.97 122.845 171.079C122.94 171.189 123.08 171.265 123.238 171.295C124.545 171.63 125.903 171.805 127.271 171.815C128.541 171.813 129.801 171.625 130.994 171.258ZM126.417 166.446C125.87 166.117 125.464 165.648 125.26 165.11L124.102 161.699L124.179 161.56C124.251 161.448 124.339 161.344 124.44 161.249C124.579 161.115 124.73 160.991 124.894 160.878C125.102 160.739 125.336 160.631 125.586 160.558C126.242 160.366 126.96 160.388 127.597 160.618C127.947 160.742 128.267 160.916 128.545 161.133C128.833 161.359 129.09 161.611 129.309 161.885C129.529 162.17 129.715 162.474 129.863 162.79C130.019 163.106 130.14 163.434 130.223 163.769C130.307 164.087 130.35 164.412 130.351 164.739C130.356 164.948 130.341 165.157 130.307 165.365C130.281 165.55 130.233 165.732 130.163 165.908C130.102 166.072 130.014 166.228 129.902 166.372C129.802 166.501 129.674 166.615 129.525 166.706C129.367 166.802 129.188 166.873 128.999 166.915C128.778 166.969 128.548 166.994 128.318 166.989C127.625 166.996 126.948 166.81 126.395 166.46L126.417 166.446Z" fill="#ED1B24" stroke="#263238" stroke-linecap="round" stroke-linejoin="round"/>
<path d="M115.144 128.806C115.11 130.134 115.395 131.454 115.98 132.689C116.565 133.923 117.438 135.047 118.55 135.994C119.661 136.942 120.988 137.693 122.451 138.205C123.915 138.716 125.485 138.977 127.071 138.973C130.307 138.964 133.411 137.895 135.719 135.996C138.027 134.096 139.357 131.516 139.425 128.806C139.46 127.478 139.177 126.157 138.593 124.922C138.008 123.687 137.134 122.562 136.023 121.614C134.911 120.666 133.584 119.914 132.12 119.403C130.656 118.891 129.084 118.63 127.498 118.636C124.261 118.646 121.158 119.715 118.85 121.615C116.541 123.516 115.211 126.096 115.144 128.806Z" fill="white" stroke="#263238" stroke-linecap="round" stroke-linejoin="round"/>
<path d="M119.664 127.878C123.47 125.79 130.933 125.79 134.561 127.878C135.225 127.983 135.822 128.283 136.243 128.725C136.664 129.167 136.881 129.721 136.855 130.287C136.799 131.637 130.102 131.637 130.157 130.287C130.19 129.722 130.447 129.183 130.888 128.755C128.376 128.301 125.777 128.301 123.265 128.755C123.674 129.191 123.886 129.733 123.864 130.287C123.808 131.637 117.11 131.637 117.171 130.287C117.203 129.709 117.466 129.157 117.918 128.72C118.371 128.283 118.986 127.986 119.664 127.878Z" fill="#ED1B24" stroke="#263238" stroke-linecap="round" stroke-linejoin="round"/>
<path d="M115.144 94.9437C115.077 97.4446 116.706 99.6811 119.321 101.171V107.244L124.523 102.883C125.364 103.009 126.217 103.071 127.071 103.068C133.775 103.068 139.309 99.4305 139.425 94.9437C139.542 90.4568 134.207 86.8237 127.498 86.8237C120.789 86.8237 115.232 90.48 115.144 94.9437Z" fill="white" stroke="#263238" stroke-linecap="round" stroke-linejoin="round"/>
<path d="M132.456 94.9437C132.455 95.2045 132.546 95.4597 132.719 95.677C132.891 95.8944 133.136 96.064 133.423 96.1644C133.711 96.2649 134.027 96.2916 134.333 96.2413C134.639 96.191 134.919 96.0659 135.14 95.8818C135.361 95.6977 135.511 95.4629 135.572 95.2071C135.633 94.9514 135.602 94.6862 135.484 94.4451C135.365 94.2041 135.163 93.998 134.904 93.853C134.645 93.708 134.341 93.6306 134.029 93.6306C133.613 93.6306 133.214 93.7687 132.919 94.0149C132.624 94.261 132.458 94.595 132.456 94.9437Z" fill="#ED1B24" stroke="#263238" stroke-linecap="round" stroke-linejoin="round"/>
<path d="M125.725 94.9437C125.724 95.2045 125.815 95.4597 125.987 95.677C126.16 95.8944 126.405 96.064 126.692 96.1644C126.98 96.2649 127.296 96.2916 127.602 96.2413C127.907 96.191 128.188 96.0659 128.409 95.8818C128.629 95.6977 128.78 95.4629 128.841 95.2071C128.902 94.9514 128.871 94.6862 128.752 94.4451C128.633 94.2041 128.432 93.998 128.173 93.853C127.914 93.708 127.61 93.6306 127.298 93.6306C126.882 93.6306 126.483 93.7687 126.188 94.0149C125.893 94.261 125.726 94.595 125.725 94.9437Z" fill="#ED1B24" stroke="#263238" stroke-linecap="round" stroke-linejoin="round"/>
<path d="M118.994 94.9437C118.993 95.2045 119.084 95.4597 119.256 95.677C119.428 95.8944 119.674 96.064 119.961 96.1644C120.248 96.2649 120.565 96.2916 120.871 96.2413C121.176 96.191 121.457 96.0659 121.678 95.8818C121.898 95.6977 122.049 95.4629 122.11 95.2071C122.171 94.9514 122.14 94.6862 122.021 94.4451C121.902 94.2041 121.701 93.998 121.442 93.853C121.183 93.708 120.878 93.6306 120.567 93.6306C120.151 93.6306 119.751 93.7687 119.456 94.0149C119.162 94.261 118.995 94.595 118.994 94.9437Z" fill="#ED1B24" stroke="#263238" stroke-linecap="round" stroke-linejoin="round"/>
<path d="M195.119 113.462C195.315 113.768 195.599 114.03 195.944 114.223C198.5 115.93 201.115 117.568 203.789 119.137C204.769 119.712 205.789 120.306 206.736 120.951C212.431 124.143 208.952 124.923 212.431 131.679C213.251 133.293 213.102 141.204 213.102 141.204H213.384C214.051 140.653 214.76 140.139 215.506 139.664C215.609 139.606 215.716 139.553 215.827 139.506C215.931 139.461 216.044 139.432 216.16 139.418C216.714 139.39 218.824 139.604 220.957 139.488L221.511 139.451C221.822 139.423 222.126 139.39 222.431 139.344C222.736 139.297 223.029 139.246 223.312 139.181C225.336 138.638 227.321 137.996 229.256 137.26L230.22 136.912L230.697 136.741L231.129 136.583L231.439 136.472L231.738 136.365C232.242 136.189 232.713 136.026 233.145 135.901C233.343 135.841 233.545 135.79 233.749 135.748C233.749 136.128 233.821 136.518 233.882 136.899C234.148 138.713 234.741 140.388 235.799 140.611C235.821 140.615 235.844 140.615 235.865 140.611C235.959 140.625 236.053 140.633 236.148 140.634H236.231C236.465 140.63 236.698 140.594 236.918 140.527C237.878 140.184 238.663 139.568 239.134 138.787C239.344 138.458 239.462 138.093 239.478 137.72C239.478 136.37 239.926 128.403 239.926 126.083C239.926 123.763 239.372 119.703 237.993 118.195C237.454 117.555 236.773 117.009 235.987 116.585C234.977 115.879 233.817 115.338 232.569 114.988C231.096 114.585 227.799 113.555 225.5 112.826L228.974 113.949C228.093 115.211 226.204 117.197 222.797 117.452C219.594 117.68 217.611 115.253 216.597 113.48C216.509 113.508 210.935 112.622 209.645 112.673C205.44 112.826 202.011 110.919 200.459 110.163C199.991 109.929 199.466 109.786 198.923 109.746C198.381 109.706 197.834 109.768 197.324 109.93C196.814 110.091 196.354 110.347 195.979 110.679C195.604 111.01 195.323 111.408 195.158 111.843V111.884C194.915 112.389 194.901 112.95 195.119 113.462Z" fill="#ED1B24" stroke="#263238" stroke-linecap="round" stroke-linejoin="round"/>
<path d="M216.658 113.508L216.913 113.434L216.658 113.508Z" fill="white" stroke="#263238" stroke-linecap="round" stroke-linejoin="round"/>
<path d="M211.933 143.246C211.93 143.265 211.93 143.283 211.933 143.302C211.955 143.347 211.989 143.387 212.033 143.419C212.076 143.451 212.128 143.475 212.184 143.488C212.24 143.502 212.298 143.504 212.355 143.496C212.413 143.488 212.467 143.469 212.514 143.441C212.769 143.32 213.163 142.545 213.163 142.545L213.6 142.165L213.888 141.91C213.844 142.003 213.495 142.712 213.678 143.042C213.687 143.065 213.702 143.085 213.722 143.102C213.845 143.239 214.003 143.35 214.186 143.427C214.369 143.503 214.57 143.543 214.775 143.543C215.013 143.543 215.711 143.613 216.32 143.645H216.387C216.571 143.654 216.756 143.654 216.941 143.645C217.433 143.592 217.907 143.458 218.337 143.251C219.312 143.131 220.272 142.94 221.207 142.68L221.373 142.606L221.522 142.532C221.621 142.482 221.712 142.423 221.794 142.355C222.132 142.12 222.418 141.837 222.642 141.52C222.642 141.52 224.891 141.441 227.91 141.246C229.018 141.177 230.215 141.088 231.456 140.986C233.361 140.824 234.935 140.833 236.17 140.689H236.259C236.503 140.662 236.73 140.624 236.946 140.583C237.473 140.496 237.961 140.287 238.353 139.98C238.745 139.672 239.025 139.278 239.162 138.843C239.234 138.637 239.294 138.428 239.339 138.216L238.375 136.824C237.873 136.487 237.312 136.215 236.713 136.017C235.783 135.691 234.757 135.612 233.771 135.79C233.567 135.832 233.366 135.883 233.168 135.943C232.735 136.082 232.265 136.244 231.76 136.407L231.456 136.513L231.145 136.625L230.713 136.783C228.248 137.636 225.306 138.736 223.34 139.2C222.749 139.33 222.147 139.42 221.539 139.469L220.985 139.506C218.852 139.622 216.747 139.409 216.187 139.437C215.628 139.464 214.26 140.555 213.384 141.228C213.146 141.413 212.935 141.566 212.791 141.659L212.725 141.706L212.675 141.743C212.358 142.015 212.136 142.356 212.032 142.726C211.989 142.851 211.959 142.978 211.944 143.107C211.934 143.153 211.93 143.199 211.933 143.246Z" fill="white" stroke="#263238" stroke-linecap="round" stroke-linejoin="round"/>
<path d="M211.933 143.246C211.93 143.265 211.93 143.283 211.933 143.302C211.956 143.346 211.99 143.386 212.034 143.418C212.078 143.449 212.129 143.473 212.185 143.485C212.241 143.498 212.299 143.501 212.356 143.492C212.413 143.484 212.467 143.465 212.514 143.436C212.788 143.17 213.007 142.867 213.162 142.541L213.6 142.165L213.888 141.914C213.849 141.989 213.489 142.712 213.672 143.047C213.681 143.069 213.697 143.09 213.716 143.107C213.778 143.175 213.848 143.238 213.927 143.292C214.166 143.453 214.463 143.542 214.769 143.543C215.013 143.543 215.705 143.608 216.309 143.645H216.387C216.571 143.654 216.756 143.654 216.941 143.645C217.43 143.59 217.902 143.458 218.331 143.255C219.306 143.133 220.266 142.941 221.201 142.68L221.362 142.615L221.511 142.541C221.607 142.488 221.698 142.429 221.783 142.364C222.125 142.127 222.416 141.841 222.641 141.52C222.641 141.52 224.824 141.441 227.782 141.251C228.89 141.181 230.17 141.088 231.455 140.982C233.206 140.838 234.652 140.796 235.821 140.643L236.181 140.587L236.597 140.508C236.692 139.94 236.622 139.36 236.392 138.82C236.177 138.363 235.844 137.953 235.417 137.617C234.989 137.282 234.478 137.03 233.921 136.88C233.229 136.667 232.52 136.495 231.799 136.365L231.5 136.472L231.19 136.583L230.757 136.741C228.248 137.646 225.339 138.741 223.367 139.191C222.777 139.321 222.175 139.409 221.567 139.455L221.013 139.492C218.88 139.613 216.774 139.4 216.215 139.427C215.655 139.455 214.293 140.541 213.445 141.214C213.253 141.368 213.051 141.513 212.841 141.65L212.775 141.692L212.725 141.729C212.401 141.998 212.178 142.339 212.082 142.712C212.039 142.837 212.009 142.964 211.993 143.093C211.965 143.142 211.945 143.193 211.933 143.246Z" fill="white" stroke="#263238" stroke-linecap="round" stroke-linejoin="round"/>
<path d="M218.564 142.012C218.564 142.012 217.306 142.559 216.808 142.75C216.309 142.94 216.354 143.705 216.354 143.705" fill="white"/>
<path d="M218.564 142.012C218.564 142.012 217.306 142.559 216.808 142.75C216.309 142.94 216.354 143.705 216.354 143.705" stroke="#263238" stroke-linecap="round" stroke-linejoin="round"/>
<path d="M217.218 141.269C216.427 141.742 215.665 142.249 214.935 142.787C214.829 142.891 214.759 143.019 214.735 143.155C214.71 143.291 214.732 143.431 214.797 143.557" fill="white"/>
<path d="M217.218 141.269C216.427 141.742 215.665 142.249 214.935 142.787C214.829 142.891 214.759 143.019 214.735 143.155C214.71 143.291 214.732 143.431 214.797 143.557" stroke="#263238" stroke-linecap="round" stroke-linejoin="round"/>
<path d="M213.905 141.905C214.56 141.317 215.254 140.759 215.982 140.235L213.905 141.905Z" fill="white"/>
<path d="M213.905 141.905C214.56 141.317 215.254 140.759 215.982 140.235" stroke="#263238" stroke-linecap="round" stroke-linejoin="round"/>
<path d="M216.664 113.518C217.667 115.285 219.655 117.694 222.858 117.485C226.248 117.244 228.154 115.244 229.035 113.977C227.816 113.587 226.58 113.188 225.567 112.854C225.567 111.991 225.6 110.956 225.711 109.931C225.711 109.708 225.766 109.467 225.794 109.258C225.821 109.049 225.855 108.901 225.888 108.729H219.445C219.445 108.729 219.484 108.943 219.534 109.3C219.572 109.62 219.622 110.047 219.661 110.529C219.711 111.17 219.744 111.921 219.722 112.631C219.412 112.72 219.096 112.817 218.78 112.919L218.171 113.095C217.927 113.17 217.689 113.235 217.434 113.304L216.88 113.443C216.806 113.464 216.734 113.489 216.664 113.518Z" fill="white" stroke="#263238" stroke-linecap="round" stroke-linejoin="round"/>
<path d="M225.794 109.24C225.794 109.24 224.592 111.856 222.846 112.302C221.101 112.747 219.522 109.3 219.522 109.3C219.522 109.3 221.982 111.499 222.896 111.156C223.81 110.812 225.783 109.258 225.783 109.258" fill="#263238"/>
<path d="M226.83 94.7859C228.458 96.0135 229.749 97.5221 230.613 99.2078C231.406 100.6 232.076 102.201 231.467 103.658C231.102 104.381 230.586 105.044 229.943 105.616C228.746 106.817 227.068 110.172 225.871 111.374C225.794 109.235 227.932 105.778 227.705 103.982C227.43 102.595 226.885 101.255 226.093 100.015C225.287 98.3893 224.233 96.8578 222.957 95.4587C222.231 94.7256 219.899 93.4217 222.254 93.264C223.816 93.1573 225.65 93.9739 226.83 94.7859Z" fill="#263238" stroke="#263238" stroke-linecap="round" stroke-linejoin="round"/>
<path d="M228.336 102.08C228.336 102.08 229.162 100.739 230.032 102.01C230.658 102.938 229.755 104.4 229.367 104.943C229.238 105.097 229.064 105.221 228.861 105.303C228.658 105.384 228.433 105.42 228.209 105.407L228.336 102.08Z" fill="white" stroke="#263238" stroke-linecap="round" stroke-linejoin="round"/>
<path d="M217.489 106.924C218.019 107.8 218.708 108.602 219.533 109.3L220.032 109.731C221.063 110.585 222.176 111.263 222.907 111.123C223.544 111.017 224.375 110.469 225.19 109.768C225.395 109.597 225.594 109.411 225.794 109.226C226.68 108.413 227.442 107.511 228.06 106.539C228.231 106.175 228.341 105.792 228.386 105.402C228.526 104.24 228.574 103.071 228.53 101.904C228.53 101.491 228.53 101.161 228.53 100.976C228.53 100.168 224.918 97.3611 224.918 97.3611C224.821 97.3312 224.716 97.3216 224.614 97.3333C223.992 97.428 223.394 97.6066 222.841 97.8622C220.653 98.7531 217.6 100.521 217.378 101.194C217.04 102.173 217.168 106.052 217.489 106.924Z" fill="white" stroke="#263238" stroke-linecap="round" stroke-linejoin="round"/>
<path d="M224.664 103.203C224.664 103.528 224.808 103.792 224.968 103.792C225.129 103.792 225.29 103.537 225.29 103.203C225.29 102.869 225.146 102.604 224.968 102.604C224.791 102.604 224.664 102.878 224.664 103.203Z" fill="#263238"/>
<path d="M220.536 102.609C220.359 102.609 220.215 102.873 220.215 103.203C220.215 103.532 220.359 103.792 220.536 103.792C220.714 103.792 220.858 103.528 220.858 103.203C220.858 102.878 220.714 102.609 220.536 102.609Z" fill="#263238"/>
<path d="M226.724 101.741C226.724 101.741 226.17 100.813 224.209 101.096" stroke="#263238" stroke-linecap="round" stroke-linejoin="round"/>
<path d="M218.714 101.741C218.714 101.741 219.268 100.813 221.229 101.096" stroke="#263238" stroke-linecap="round" stroke-linejoin="round"/>
<path d="M222.342 105.472C222.143 105.461 221.953 105.398 221.8 105.29C221.648 105.182 221.541 105.036 221.495 104.873C221.495 104.873 222.569 103.481 222.243 102.117" stroke="#263238" stroke-linecap="round" stroke-linejoin="round"/>
<path d="M229.035 98.832C229.481 99.3391 229.818 99.9075 230.032 100.512" stroke="white" stroke-linecap="round" stroke-linejoin="round"/>
<path d="M224.403 95.12C224.403 95.12 225.018 95.9738 227.727 97.7138C227.902 97.8194 228.068 97.9341 228.226 98.0571" stroke="white" stroke-linecap="round" stroke-linejoin="round"/>
<path d="M233.09 122.324C233.459 126.735 233.829 131.15 234.198 135.567V135.228" fill="#263238"/>
<path d="M233.09 122.324C233.459 126.735 233.829 131.15 234.198 135.567V135.228" stroke="#263238" stroke-linecap="round" stroke-linejoin="round"/>
<path d="M198.094 107.759C197.593 107.595 197.052 107.537 196.518 107.589C195.984 107.64 195.473 107.801 195.03 108.056C194.147 108.58 193.503 109.342 193.207 110.214C192.854 111.083 192.89 112.029 193.307 112.877C193.523 113.295 193.871 113.657 194.313 113.922C194.755 114.188 195.275 114.348 195.817 114.385C196.625 114.377 197.406 114.14 198.033 113.712C200.105 112.413 201.141 108.859 198.094 107.759Z" fill="white" stroke="#263238" stroke-linecap="round" stroke-linejoin="round"/>
<path d="M193.507 92.9438C193.507 92.9995 193.507 93.3661 193.468 93.431C193.274 94.1456 192.864 95.932 193.9 96.2939C193.507 97.4678 192.543 105.138 192.67 109.049C192.703 110.219 192.947 111.606 194.199 112.107C196.31 112.947 198.315 110.901 198.077 109.3C197.706 107.114 197.833 104.887 197.523 102.679C197.185 100.386 196.565 98.0386 197.246 95.7974C197.412 95.6443 198.476 93.8765 198.825 93.3893C198.982 93.1811 199.104 92.9564 199.191 92.7211C199.327 91.9204 199.394 91.1125 199.39 90.3037C199.074 89.8025 198.664 90.2665 198.448 90.596C198.272 90.9977 198.211 91.4284 198.271 91.8534C198.291 91.9574 198.274 92.0641 198.221 92.1597C198.175 92.2143 198.112 92.2577 198.039 92.2854C197.966 92.3131 197.885 92.3242 197.806 92.3174C197.124 92.2339 197.152 91.756 197.163 91.3894C197.163 90.1598 197.163 88.9302 197.163 87.7099C197.163 87.5057 197.085 86.9536 196.853 86.935C196.62 86.9165 196.271 87.0742 196.238 87.7285C196.199 88.4662 196.199 90.7398 196.199 90.7398C196.177 90.7585 196.15 90.7722 196.12 90.7795C196.09 90.7868 196.058 90.7875 196.027 90.7816C195.972 90.7816 195.95 90.6981 195.927 90.6517C195.601 89.5102 195.268 88.3688 194.941 87.2274C194.903 87.0928 194.664 86.8144 194.493 86.8144C194.083 86.8144 194.072 87.2134 194.049 87.3294C193.905 87.9419 194.93 90.4661 195.102 91.0414C195.102 91.1435 195.102 91.2966 194.975 91.2688L193.368 88.5544C193.294 88.3958 193.176 88.2538 193.025 88.1395C192.875 88.0252 192.694 87.9417 192.498 87.8955C192.471 87.8884 192.442 87.8884 192.415 87.8955C192.386 87.9096 192.363 87.9306 192.349 87.9558C192.194 88.1878 192.349 88.508 192.437 88.7632C192.526 89.0184 193.728 90.893 194.155 91.6493C194.216 91.756 194.315 91.9973 194.193 92.1133C194.072 92.2293 193.85 92.0066 193.761 91.8534C193.49 91.3894 193.235 90.9533 192.986 90.4985C192.908 90.364 192.792 90.1738 192.609 90.2062C191.529 90.4011 193.063 92.2989 193.507 92.9438Z" fill="white" stroke="#263238" stroke-linecap="round" stroke-linejoin="round"/>
<path d="M196.487 92.5448C195.929 92.9148 195.445 93.3564 195.052 93.8533C194.859 94.1031 194.729 94.3838 194.672 94.6778C194.614 94.9717 194.631 95.2724 194.72 95.5608C194.747 95.6361 194.782 95.7091 194.825 95.7789" fill="white"/>
<path d="M196.487 92.5448C195.929 92.9148 195.445 93.3564 195.052 93.8533C194.859 94.1031 194.729 94.3838 194.672 94.6778C194.614 94.9717 194.631 95.2724 194.72 95.5608C194.747 95.6361 194.782 95.7091 194.825 95.7789" stroke="#263238" stroke-linecap="round" stroke-linejoin="round"/>
<path d="M212.093 121.531C211.507 122.521 211.112 123.583 210.924 124.677C210.764 125.772 210.714 126.63 211.606 129.707" stroke="#263238" stroke-linecap="round" stroke-linejoin="round"/>
<path d="M224.597 96.6651C224.673 96.8548 224.692 97.0571 224.653 97.2544C224.547 97.5027 224.354 97.718 224.099 97.8715C222.328 99.1712 220.347 100.255 218.215 101.092C217.948 101.15 217.716 101.29 217.565 101.484C217.415 101.678 217.356 101.912 217.401 102.14V105.727C217.373 106.097 217.416 106.468 217.528 106.827C217.838 107.662 218.525 108.335 219.024 109.105C219.531 109.835 219.788 110.669 219.766 111.513C219.905 110.627 216.204 108.91 215.201 105.421C215.063 104.929 212.182 102.001 213.911 98.5629C215.573 95.2638 218.187 93.844 219.068 93.6723C219.666 93.5259 220.297 93.5009 220.909 93.5993C221.521 93.6978 222.096 93.9169 222.586 94.2384C223.554 94.8422 224.26 95.6943 224.597 96.6651Z" fill="#263238" stroke="#263238" stroke-linecap="round" stroke-linejoin="round"/>
<path d="M220.968 106.72C221.284 106.776 221.605 106.827 221.927 106.859C223.035 106.975 224.22 106.831 224.946 106.154C224.891 106.762 224.392 109.059 222.902 109.123C221.412 109.188 220.968 106.72 220.968 106.72Z" stroke="#263238" stroke-linecap="round" stroke-linejoin="round"/>
<path d="M222.409 95.2638C221.77 96.4788 220.752 97.5271 219.461 98.2984C218.525 98.8598 217.456 99.2635 216.597 99.9038C215.489 100.753 214.763 102.099 215.19 103.319" stroke="white" stroke-linecap="round" stroke-linejoin="round"/>
<path d="M210.83 114.009C211.897 114.727 212.6 115.757 212.797 116.891C212.988 117.871 212.844 118.876 212.381 119.791" stroke="#263238" stroke-linecap="round" stroke-linejoin="round"/>
<path d="M231.467 121.665C231.555 122.881 232.458 123.934 233.334 124.913L231.467 121.665Z" fill="#263238"/>
<path d="M231.467 121.665C231.555 122.881 232.458 123.934 233.334 124.913" stroke="#263238" stroke-linecap="round" stroke-linejoin="round"/>
<path d="M233.627 130.959C233.187 131.576 232.598 132.11 231.898 132.525C231.198 132.941 230.402 133.229 229.561 133.372" stroke="#263238" stroke-linecap="round" stroke-linejoin="round"/>
<path d="M212.431 131.683C212.431 131.683 213.922 133.539 218.985 133.929" stroke="#263238" stroke-linecap="round" stroke-linejoin="round"/>
<path d="M64.0979 115.42C64.0979 115.42 83.4048 120.431 87.0391 116.473L86.546 96.2846H83.6153L80.1695 110.506L64.3472 108.08C64.3472 108.08 62.3196 113.341 64.0979 115.42Z" fill="white"/>
<path d="M72.2306 116.125C73.3375 116.494 74.3943 116.961 75.3828 117.517C74.0754 117.865 72.6793 117.424 71.3718 117.076C69.6452 116.632 67.8851 116.285 66.1033 116.037C66.0202 115.624 66.6573 114.682 66.9066 114.316C67.3609 113.675 67.4606 113.62 68.2251 113.935C69.6157 114.52 70.8012 115.536 72.2306 116.125Z" fill="#ED1B24"/>
<path d="M64.0979 115.42C64.0979 115.42 83.4048 120.431 87.0391 116.473L86.546 96.2846H83.6153L80.1695 110.506L64.3472 108.08C64.3472 108.08 62.3196 113.341 64.0979 115.42Z" stroke="#263238" stroke-linecap="round" stroke-linejoin="round"/>
<path d="M65.9926 115.949L62.6021 133.432C62.6908 144.763 56.2367 143.06 51.7548 143.028C46.5749 142.991 38.7136 138.69 42.5695 131.994L41.0848 107.759L50.1094 107.184C53.0844 106.989 65.2724 107.309 66.2419 108.613C68.7571 111.996 65.9926 115.949 65.9926 115.949Z" fill="white"/>
<path d="M65.4608 117.392C63.4473 123.772 58.6182 129.274 51.9488 132.788C52.6708 132.692 53.376 132.522 54.0484 132.282C54.7248 132.038 55.4829 132.003 56.1869 132.184C56.3569 132.236 56.5131 132.315 56.6467 132.417C56.7802 132.519 56.8885 132.642 56.9651 132.779C57.0418 132.916 57.0855 133.064 57.0936 133.215C57.1017 133.367 57.0741 133.518 57.0123 133.66C56.8507 133.877 56.6306 134.06 56.3697 134.193C55.2698 134.841 54.067 135.356 52.7964 135.725C53.9107 135.629 55.0365 135.701 56.1204 135.938C56.3198 136.745 55.2451 137.33 54.3975 137.724C53.0451 138.392 51.887 139.304 51.007 140.392C53.9817 140.398 56.9538 140.54 59.9098 140.819C60.2995 140.893 60.7069 140.86 61.0731 140.727C61.4567 140.487 61.7148 140.133 61.7934 139.738C62.4521 137.808 62.8352 135.819 62.9346 133.813C62.99 132.685 62.9346 131.549 63.1119 130.43C63.2547 129.549 63.4506 128.674 63.6991 127.809C64.5597 124.462 65.2189 121.089 65.6769 117.689C65.8819 117.703 65.4608 117.392 65.4608 117.392Z" fill="#ED1B24"/>
<path d="M42.575 116C43.3225 115.799 44.0192 115.485 44.6304 115.072C44.4586 115.768 43.2177 116.97 42.4919 117.341C42.3424 117.42 42.1263 117.485 41.9933 117.378C41.8604 117.271 41.7717 116.998 41.6388 116.914L42.575 116Z" fill="#ED1B24"/>
<path d="M65.9926 115.949L62.6021 133.432C62.6908 144.763 56.2367 143.06 51.7548 143.028C46.5749 142.991 38.7136 138.69 42.5695 131.994L41.0848 107.759L50.1094 107.184C53.0844 106.989 65.2724 107.309 66.2419 108.613C68.7571 111.996 65.9926 115.949 65.9926 115.949Z" stroke="#263238" stroke-linecap="round" stroke-linejoin="round"/>
<path d="M59.3944 106.827C60.3655 108.316 60.8329 109.999 60.7461 111.694C60.7473 111.842 60.7134 111.989 60.6464 112.126C60.3971 112.539 59.7157 112.539 59.1672 112.59C57.0343 112.817 55.7103 114.701 53.6993 115.332C53.6288 115.368 53.5502 115.392 53.4683 115.403C53.3865 115.413 53.3029 115.41 53.2227 115.392C53.1425 115.375 53.0673 115.344 53.0017 115.302C52.936 115.26 52.8812 115.207 52.8406 115.146C51.9652 114.218 51.655 112.914 50.4584 112.316C49.9376 112.056 49.2783 111.949 48.9182 111.541C48.5083 111.077 48.6911 110.409 48.8905 109.843C49.2174 108.915 49.583 107.95 50.4307 107.305C51.3337 106.714 52.443 106.388 53.5885 106.377C55.2649 106.262 56.9524 106.394 58.5745 106.766C58.5523 106.943 59.3944 106.827 59.3944 106.827Z" fill="#ED1B24" stroke="#263238" stroke-linecap="round" stroke-linejoin="round"/>
<path d="M32.5809 118.691C33.935 117.04 34.9325 115.202 35.5282 113.262C35.7452 112.291 36.0831 111.34 36.5365 110.427C36.9641 109.722 37.5816 109.11 38.3402 108.639C39.0988 108.168 39.9777 107.851 40.9075 107.713C41.3043 107.64 41.7172 107.656 42.1042 107.759C42.9075 108.015 43.262 108.789 43.4227 109.495C43.7704 111.01 43.6676 112.573 43.1235 114.047C42.7524 115.049 38.2927 122.315 35.3675 125.132C35.6224 123.712 33.6723 118.965 32.5809 118.691Z" fill="white"/>
<path d="M41.3284 117.267L38.5916 121.587C38.1983 122.204 37.7551 122.863 36.9906 123.132C37.4716 121.704 37.7451 120.234 37.805 118.752C37.7749 118.007 37.8776 117.262 38.1097 116.543C38.2205 116.622 38.3368 116.288 38.3368 116.288C38.4587 116.478 38.78 116.483 39.0293 116.441C40.8187 116.125 42.0486 114.789 43.1123 113.545C43.2507 113.962 43.2727 114.4 43.1766 114.825C43.0805 115.249 42.869 115.65 42.5583 115.995C42.5583 115.995 41.417 117.123 41.3284 117.267Z" fill="#ED1B24"/>
<path d="M32.5809 118.691C33.935 117.04 34.9325 115.202 35.5282 113.262C35.7452 112.291 36.0831 111.34 36.5365 110.427C36.9641 109.722 37.5816 109.11 38.3402 108.639C39.0988 108.168 39.9777 107.851 40.9075 107.713C41.3043 107.64 41.7172 107.656 42.1042 107.759C42.9075 108.015 43.262 108.789 43.4227 109.495C43.7704 111.01 43.6676 112.573 43.1235 114.047C42.7524 115.049 38.2927 122.315 35.3675 125.132C35.6224 123.712 33.6723 118.965 32.5809 118.691Z" stroke="#263238" stroke-linecap="round" stroke-linejoin="round"/>
<path d="M36.4257 123.888C39.4062 119.104 37.9658 108.08 38.0544 106.307L34.121 106.131C33.7277 106.131 31.905 115.531 30.6641 119.434C29.5561 122.988 30.6197 126.584 32.5809 126.584C34.2097 126.584 35.7997 124.895 36.4257 123.888Z" fill="white" stroke="#263238" stroke-linecap="round" stroke-linejoin="round"/>
<path d="M71.9426 111.467C69.1726 108.08 63.7379 107.81 63.7379 107.81" stroke="#263238" stroke-linecap="round" stroke-linejoin="round"/>
<path d="M82.6292 113.364C81.7913 112.72 81.1347 111.927 80.7068 111.044L82.6292 113.364Z" fill="white"/>
<path d="M82.6292 113.364C81.7913 112.72 81.1347 111.927 80.7068 111.044" stroke="#263238" stroke-linecap="round" stroke-linejoin="round"/>
<path d="M62.0481 129.372C60.4692 131.539 50.2423 133.855 46.1649 133.358" stroke="#263238" stroke-linecap="round" stroke-linejoin="round"/>
<path d="M59.1562 135.488C56.2104 135.912 53.191 135.816 50.2922 135.205" stroke="#263238" stroke-linecap="round" stroke-linejoin="round"/>
<path d="M45.5889 114.464L43.6388 116.677C43.3729 116.979 43.0017 117.318 42.564 117.234" stroke="#263238" stroke-linecap="round" stroke-linejoin="round"/>
<path d="M31.0962 198.42C31.268 199.01 31.3234 199.71 30.8192 200.151C30.3151 200.592 29.5838 200.583 28.9024 200.573L26.559 200.536C25.6553 200.574 24.752 200.455 23.9053 200.188C23.4819 200.05 23.1192 199.807 22.8666 199.491C22.6139 199.174 22.4833 198.801 22.4926 198.42C22.5503 198.126 22.6625 197.841 22.825 197.576C23.0355 197.195 23.246 196.81 23.451 196.43C26.0382 191.655 29.9882 194.56 31.0962 198.42Z" fill="white" stroke="#263238" stroke-linecap="round" stroke-linejoin="round"/>
<path d="M34.3979 192.792C34.3159 194.983 34.5353 197.176 35.0516 199.325C35.1735 199.812 35.0516 200.55 34.4976 200.504C34.2803 200.476 34.0831 200.382 33.9436 200.239C31.9074 198.557 30.4509 196.446 29.7277 194.128C29.6189 193.888 29.5682 193.631 29.5787 193.374C29.5891 193.117 29.6605 192.864 29.7886 192.63C29.9404 192.442 30.1275 192.276 30.3426 192.138C32.2207 190.88 34.5696 189.632 34.3979 192.792Z" fill="white" stroke="#263238" stroke-linecap="round" stroke-linejoin="round"/>
<path d="M40.8299 136.708C40.8299 136.708 37.9103 140.959 37.2843 141.947C36.6582 142.935 23.4343 157.491 20.8969 168.089C20.4205 170.102 30.1765 192.625 30.1765 192.625L32.3925 191.576C32.3925 191.576 30.8523 171.035 31.229 169.328C31.6058 167.62 41.3395 155.018 41.3395 155.018C41.3395 155.018 46.7743 151.672 49.0125 147.784L40.8299 136.708Z" fill="#263238"/>
<path d="M40.514 147.357C40.514 147.357 42.176 150.457 42.176 150.902C42.176 151.348 33.035 175.54 30.3481 181.136C28.6492 184.74 27.1516 188.427 25.8552 192.198C25.8552 192.198 24.8137 193.344 25.6003 194.518C26.387 195.692 29.5171 196.462 30.1598 195.414C30.8024 194.365 37.1346 188.918 39.8049 183.498C42.4752 178.079 46.2313 169.021 48.3697 165.648C51.1707 161.338 53.6572 156.889 55.8155 152.327C58.5024 146.568 61.2502 140.36 61.2502 140.36C60.1342 140.444 59.013 140.471 57.893 140.439C55.2558 140.364 52.6446 139.976 50.137 139.288C44.2978 137.646 41.7716 134.5 41.7716 134.5C41.7716 134.5 40.3257 137.78 39.9489 138.416L40.514 147.357Z" fill="#263238"/>
<path d="M21.872 170.163C22.4442 170.984 23.2139 171.696 24.1323 172.255" stroke="white" stroke-linecap="round" stroke-linejoin="round"/>
<path d="M21.1574 168.812C21.2406 169.039 21.3405 169.26 21.4565 169.476" stroke="white" stroke-linecap="round" stroke-linejoin="round"/>
<path d="M45.7937 140.128C44.3201 142.253 42.9406 145.311 43.1622 147.761C43.281 148.206 43.4671 148.636 43.7162 149.041" stroke="white" stroke-linecap="round" stroke-linejoin="round"/>
<path d="M54.7131 142.49C54.5525 143.673 54.3364 145.64 54.6467 146.8C54.9088 147.987 55.7216 149.038 56.907 149.724" stroke="white" stroke-linecap="round" stroke-linejoin="round"/>
<path d="M42.1484 138.012C41.8266 138.348 41.5653 138.722 41.3728 139.121C40.9977 139.695 40.4819 140.196 39.8594 140.591C39.2369 140.986 38.5217 141.266 37.7608 141.413" stroke="white" stroke-linecap="round" stroke-linejoin="round"/>
<path d="M46.8518 142.754C44.8962 146.336 43.4004 149.928 40.3645 156.015" stroke="white" stroke-linecap="round" stroke-linejoin="round"/>
<path d="M47.8933 140.921C47.7271 141.2 47.5664 141.478 47.4058 141.757" stroke="white" stroke-linecap="round" stroke-linejoin="round"/>
<path d="M31.6169 168.325C30.7205 169.772 29.5806 171.103 28.232 172.279" stroke="white" stroke-linecap="round" stroke-linejoin="round"/>
<path d="M30.6917 169.662C30.1047 171.932 29.0331 174.095 27.5283 176.046" stroke="white" stroke-linecap="round" stroke-linejoin="round"/>
<path d="M44.4641 169.778C48.7797 162.066 53.3835 154.415 59.0398 142.754" stroke="white" stroke-linecap="round" stroke-linejoin="round"/>
<path d="M43.4891 172.019C43.5944 171.75 43.7052 171.48 43.8215 171.207" stroke="white" stroke-linecap="round" stroke-linejoin="round"/>
<path d="M28.5699 195.729C29.6779 194.518 37.7552 185.057 39.7607 180.77C41.0959 177.912 42.1041 175.893 43.0847 173.044" stroke="white" stroke-linecap="round" stroke-linejoin="round"/>
<path d="M31.6169 177.522L27.7777 186.973" stroke="white" stroke-linecap="round" stroke-linejoin="round"/>
<path d="M34.2041 106.135L35.3675 106.214C36.8417 106.434 38.3558 106.375 39.7995 106.043C40.7247 105.852 42.8687 105.296 43.1235 105.258C43.7604 105.144 44.4039 105.058 45.0514 104.999C47.007 104.901 46.0154 104.289 45.201 104.316C44.1262 104.358 43.7661 104.34 42.9407 104.391C43.0404 104.344 43.3451 104.293 43.3506 104.094C43.3506 103.607 42.5861 103.63 42.5861 103.63C42.5861 103.63 43.4227 103.333 43.3063 102.966C43.19 102.6 42.6304 102.502 42.2759 102.53C42.2759 102.53 42.7468 102.34 42.7246 102.136C42.6249 101.347 40.6915 101.291 40.6915 101.291C41.1591 101.116 41.5969 100.89 41.9933 100.618C42.1381 100.488 42.2393 100.328 42.287 100.154C42.2974 100.072 42.281 99.9882 42.2397 99.9126C42.1984 99.837 42.1335 99.7721 42.052 99.7247C41.9705 99.6773 41.8752 99.6491 41.7762 99.643C41.6772 99.637 41.5781 99.6534 41.4892 99.6904C40.989 99.9694 40.5064 100.27 40.0433 100.591C39.4449 100.948 38.7524 101.175 38.1209 101.495C37.5054 101.937 37.0088 102.482 36.6639 103.096C36.5641 103.226 34.2041 106.135 34.2041 106.135Z" fill="white" stroke="#263238" stroke-linecap="round" stroke-linejoin="round"/>
<path d="M86.546 96.2846V93.728C86.5531 92.4451 86.329 91.1686 85.8812 89.9418C85.6263 89.2643 85.3272 88.675 85.0557 88.5869C84.5516 88.4338 84.33 90.1459 84.33 90.1459C84.709 88.7731 84.9517 87.3763 85.0557 85.9699C85.0557 84.4805 82.6624 90.6656 82.6624 90.6656L83.6153 96.2846H86.546Z" fill="white" stroke="#263238" stroke-linecap="round" stroke-linejoin="round"/>
<path d="M83.6541 92.1272C83.3646 91.9401 83.1485 91.6848 83.0336 91.3941L83.6541 92.1272Z" fill="white"/>
<path d="M83.6541 92.1272C83.3646 91.9401 83.1485 91.6848 83.0336 91.3941" stroke="#263238" stroke-linecap="round" stroke-linejoin="round"/>
<path d="M60.4526 101.616C59.4179 103.075 58.8458 104.731 58.7906 106.428C58.6909 109.249 54.7908 113.197 53.6772 113.388C52.5637 113.578 51.5332 108.933 51.5831 107.527C51.633 106.121 52.2534 102.238 52.2534 102.238C52.2534 102.238 57.5885 98.8598 60.4526 101.616Z" fill="white" stroke="#263238" stroke-linecap="round" stroke-linejoin="round"/>
<path d="M58.8848 105.351C58.8848 105.351 53.7713 111.193 51.7659 105.254C49.7604 99.3146 57.389 106.878 58.8848 105.351Z" fill="#263238"/>
<path d="M50.2533 101.152C50.5248 104.618 52.414 106.567 54.5912 106.91C56.58 107.216 59.4885 105.518 60.94 102.999C61.0508 102.938 62.8181 101.913 63.2391 101.662C63.459 101.534 63.6384 101.362 63.7619 101.162C63.8854 100.963 63.9493 100.741 63.9482 100.516C63.9342 100.301 63.8432 100.093 63.6872 99.9214C63.5312 99.7493 63.3172 99.6204 63.0729 99.5512H63.0231C62.7737 99.5057 62.5138 99.5218 62.2752 99.5976C62.6408 98.4144 62.9399 97.2126 63.1671 96.0016C63.0618 93.2176 61.9594 90.944 58.4138 90.7213C54.8682 90.4986 51.9043 92.1597 51.7658 93.3568C51.6661 94.2848 51.306 96.7394 50.9846 99.2774C50.896 99.9363 50.1924 100.372 50.2533 101.152Z" fill="white" stroke="#263238" stroke-linecap="round" stroke-linejoin="round"/>
<path d="M51.7658 97.143C51.7658 97.143 54.0483 96.2661 53.6605 99.115C53.5829 99.6765 52.3364 100.507 52.3364 100.507C52.3364 100.507 52.6577 101.347 53.2505 101.347" fill="white"/>
<path d="M51.7658 97.143C51.7658 97.143 54.0483 96.2661 53.6605 99.115C53.5829 99.6765 52.3364 100.507 52.3364 100.507C52.3364 100.507 52.6577 101.347 53.2505 101.347" stroke="#263238" stroke-linecap="round" stroke-linejoin="round"/>
<path d="M56.1757 98.1175C56.1757 98.1175 57.3391 97.5235 58.1369 97.8901C58.553 98.0417 58.9072 98.2916 59.1562 98.6093" fill="white"/>
<path d="M56.1757 98.1175C56.1757 98.1175 57.3391 97.5235 58.1369 97.8901C58.553 98.0417 58.9072 98.2916 59.1562 98.6093" stroke="#263238" stroke-linecap="round" stroke-linejoin="round"/>
<path d="M56.8406 99.76C56.752 100.103 56.8406 100.41 57.0788 100.451C57.317 100.493 57.5497 100.243 57.6328 99.8992C57.7159 99.5558 57.6328 99.2496 57.3891 99.2078C57.1453 99.1661 56.9237 99.412 56.8406 99.76Z" fill="#263238"/>
<path d="M52.342 98.7578C52.2533 99.1011 52.342 99.4074 52.5802 99.4491C52.8184 99.4909 53.0511 99.2403 53.1342 98.9016C53.2173 98.5629 53.1342 98.2474 52.896 98.2102C52.6578 98.1731 52.4251 98.419 52.342 98.7578Z" fill="#263238"/>
<path d="M63.4331 92.4056C63.8382 92.7381 64.1193 93.1621 64.2419 93.6259C64.5737 94.607 64.6697 95.6335 64.5242 96.6458C64.3787 97.6582 63.9946 98.6363 63.3943 99.5234C63.025 99.4854 62.6508 99.4979 62.2863 99.5605C61.8985 99.644 61.3999 100.201 61.2171 100.488C61.0568 100.795 60.9648 101.124 60.9456 101.458C61.0342 100.577 61.1173 99.6997 61.206 98.8181C61.2655 98.4656 61.2467 98.107 61.1506 97.7602C60.8791 97.0363 61.1783 95.3288 61.1007 93.8023C58.8016 96.1547 55.461 95.7371 54.353 95.6583C52.691 95.5423 51.2728 94.1178 51.3614 93.1016C51.45 92.0855 51.7769 89.4685 57.256 89.1994C58.4631 89.0918 59.68 89.3044 60.7351 89.8072C61.0695 89.9918 61.3535 90.2336 61.5684 90.5167C61.7832 90.7998 61.9241 91.1178 61.9816 91.4498C62.0591 91.8767 61.8652 91.9138 62.253 92.1226C62.6408 92.3314 63.0508 92.1319 63.4331 92.4056Z" fill="#263238" stroke="#263238" stroke-linecap="round" stroke-linejoin="round"/>
<path d="M56.1758 102.98C56.1758 102.98 55.3614 103.732 53.6606 103.235L56.1758 102.98Z" fill="white"/>
<path d="M56.1758 102.98C56.1758 102.98 55.3614 103.732 53.6606 103.235" stroke="#263238" stroke-linecap="round" stroke-linejoin="round"/>
</svg>
