<svg width="32" height="32" viewBox="0 0 32 32" fill="none" xmlns="http://www.w3.org/2000/svg">
<path d="M5.01619 25.9459H16.664C17.3627 25.9463 18.0532 25.7929 18.688 25.4963C19.3228 25.1997 19.8868 24.7669 20.3412 24.2277L26.5186 16.9072C26.648 16.7542 26.7383 16.5712 26.7816 16.3744C26.825 16.1775 26.82 15.9729 26.7671 15.7785C26.7142 15.5841 26.6151 15.4058 26.4784 15.2595C26.3418 15.1132 26.1718 15.0032 25.9835 14.9393L23.6006 14.1325C23.0247 13.9424 22.4115 13.8993 21.8154 14.0072C21.2192 14.1151 20.6584 14.3707 20.1826 14.7512L16.3262 17.8838L15.5791 16.3648C15.1789 15.546 14.561 14.8575 13.7953 14.3771C13.0296 13.8967 12.1469 13.6437 11.2469 13.6467H5.01619C3.68068 13.6467 2.5946 14.7499 2.5946 16.1065V23.4861C2.5946 24.8427 3.68068 25.9459 5.01619 25.9459ZM5.01619 16.1065H11.2469C12.1708 16.1065 13.0001 16.6268 13.413 17.4656L13.9542 18.5664H8.64856V21.0262H15.9303C16.1165 21.0237 16.2997 20.9774 16.4654 20.8909L16.4691 20.8897L16.4739 20.8873H16.4775L16.48 20.886H16.4848L16.486 20.8848C16.4993 20.8885 16.4896 20.8836 16.4896 20.8836C16.5042 20.8836 16.4921 20.8823 16.4921 20.8823H16.4933L16.4957 20.8811L16.4993 20.8799L16.5018 20.8786L16.5042 20.8774L16.5078 20.8762L16.5102 20.875L16.5127 20.8737L16.5163 20.8713L16.5187 20.87L16.5211 20.8688L16.5248 20.8676L16.5272 20.8664H16.5284L16.5308 20.8651H16.532L16.5344 20.8639L16.5369 20.8627C16.5502 20.8614 16.5405 20.8614 16.5405 20.8614L16.5429 20.8602C16.5896 20.8316 16.6341 20.7995 16.6761 20.7643L21.696 16.6846C22.0121 16.4288 22.4504 16.3488 22.8342 16.4792L23.5086 16.708L18.5044 22.6399C18.2742 22.9054 17.9911 23.1182 17.6738 23.264C17.3565 23.4099 17.0123 23.4856 16.664 23.4861H5.01619V16.1065ZM16.8347 2.97833C16.2765 3.60067 13.4917 6.82922 13.4917 9.34196C13.4917 11.7157 15.3927 13.6467 17.7295 13.6467C20.0663 13.6467 21.9673 11.7157 21.9673 9.34196C21.9673 6.82922 19.1824 3.60067 18.6243 2.97833C18.1654 2.46668 17.2936 2.46668 16.8347 2.97833ZM19.5457 9.34196C19.5457 10.3591 18.7308 11.1868 17.7295 11.1868C16.7282 11.1868 15.9133 10.3591 15.9133 9.34196C15.9133 8.47117 16.8069 6.96328 17.7295 5.73336C18.6521 6.96328 19.5457 8.47117 19.5457 9.34196Z" fill="#ED1B24"/>
</svg>
