<svg width="24" height="24" viewBox="0 0 24 24" fill="none" xmlns="http://www.w3.org/2000/svg">
<path d="M10.9695 1.89152C11.248 1.62822 11.6167 1.48151 12 1.48151C12.3833 1.48151 12.752 1.62822 13.0305 1.89152L20.2965 8.76152C20.7465 9.18602 21 9.77702 21 10.3965V18.75C21 19.3468 20.7629 19.9191 20.341 20.341C19.919 20.763 19.3467 21 18.75 21H15.75C15.1533 21 14.581 20.763 14.159 20.341C13.7371 19.9191 13.5 19.3468 13.5 18.75V15C13.5 14.8011 13.421 14.6103 13.2803 14.4697C13.1397 14.329 12.9489 14.25 12.75 14.25H11.25C11.0511 14.25 10.8603 14.329 10.7197 14.4697C10.579 14.6103 10.5 14.8011 10.5 15V18.75C10.5 19.3468 10.2629 19.9191 9.84099 20.341C9.41903 20.763 8.84674 21 8.25 21H5.25C4.65326 21 4.08097 20.763 3.65901 20.341C3.23705 19.9191 3 19.3468 3 18.75V10.395C3 9.77702 3.255 9.18602 3.705 8.76002L10.9695 1.89152ZM12 2.98202L4.734 9.85202C4.66024 9.92195 4.60146 10.0061 4.56123 10.0995C4.52101 10.1928 4.50017 10.2934 4.5 10.395V18.75C4.5 18.9489 4.57902 19.1397 4.71967 19.2803C4.86032 19.421 5.05109 19.5 5.25 19.5H8.25C8.44891 19.5 8.63968 19.421 8.78033 19.2803C8.92098 19.1397 9 18.9489 9 18.75V15C9 14.4033 9.23705 13.831 9.65901 13.409C10.081 12.9871 10.6533 12.75 11.25 12.75H12.75C13.3467 12.75 13.919 12.9871 14.341 13.409C14.7629 13.831 15 14.4033 15 15V18.75C15 18.9489 15.079 19.1397 15.2197 19.2803C15.3603 19.421 15.5511 19.5 15.75 19.5H18.75C18.9489 19.5 19.1397 19.421 19.2803 19.2803C19.421 19.1397 19.5 18.9489 19.5 18.75V10.395C19.5 10.2931 19.4793 10.1923 19.4391 10.0987C19.3988 10.0051 19.3399 9.92062 19.266 9.85052L12 2.98202Z" fill="#B3B3B3"/>
</svg>
