<svg width="16" height="21" viewBox="0 0 16 21" fill="none" xmlns="http://www.w3.org/2000/svg">
<path d="M7.99997 5.88152e-08C6.07569 -0.000240777 4.22492 0.739158 2.83052 2.06525C1.43612 3.39134 0.60477 5.20266 0.508436 7.12453C0.412101 9.0464 1.05816 10.9318 2.31296 12.3907C3.56776 13.8495 5.33531 14.7703 7.24997 14.9625V19.5C7.24997 19.6989 7.32899 19.8897 7.46964 20.0303C7.61029 20.171 7.80106 20.25 7.99997 20.25C8.19888 20.25 8.38965 20.171 8.5303 20.0303C8.67095 19.8897 8.74997 19.6989 8.74997 19.5V14.9625C10.6646 14.7703 12.4322 13.8495 13.687 12.3907C14.9418 10.9318 15.5878 9.0464 15.4915 7.12453C15.3952 5.20266 14.5638 3.39134 13.1694 2.06525C11.775 0.739158 9.92425 -0.000240777 7.99997 5.88152e-08ZM7.99997 13.5C6.81328 13.5 5.65324 13.1481 4.66655 12.4888C3.67985 11.8295 2.91082 10.8925 2.45669 9.7961C2.00257 8.69974 1.88375 7.49334 2.11526 6.32946C2.34677 5.16557 2.91821 4.09647 3.75733 3.25736C4.59644 2.41824 5.66554 1.8468 6.82943 1.61529C7.99331 1.38378 9.19971 1.5026 10.2961 1.95672C11.3924 2.41085 12.3295 3.17988 12.9888 4.16658C13.6481 5.15327 14 6.31331 14 7.5C13.9975 9.09054 13.3646 10.6152 12.2399 11.7399C11.1152 12.8646 9.59051 13.4975 7.99997 13.5Z" fill="#ED1B24"/>
</svg>
