<svg width="29" height="37" viewBox="0 0 29 37" fill="none" xmlns="http://www.w3.org/2000/svg">
<path d="M9.42883 28.0872V30.9277C9.42604 32.1653 9.85782 33.3645 10.6488 34.3163C11.4399 35.2681 12.5399 35.912 13.7571 36.1356C15.606 36.5097 17.5199 36.4086 19.3189 35.8417C20.4878 35.4385 21.4733 34.6296 22.0965 33.5617C22.7197 32.4939 22.9394 31.238 22.7156 30.022C22.6181 29.5118 22.564 28.9943 22.5538 28.475C22.5595 27.5133 22.7672 26.5636 23.1635 25.6873C23.5598 24.8111 24.1357 24.0278 24.8541 23.3884C26.2855 22.0415 27.8997 20.1139 26.3252 15.1767" stroke="#ED1B24" stroke-width="0.5" stroke-linecap="round" stroke-linejoin="round"/>
<path d="M0.555557 5.94463V4.69085C0.555557 3.61226 0.984026 2.57784 1.74671 1.81516C2.50939 1.05248 3.5438 0.624016 4.62239 0.624016C4.62239 0.624016 4.62239 0.624016 4.62239 0.624016H14.545C15.6235 0.624016 16.6578 1.05238 17.4204 1.81491C18.1831 2.57743 18.6116 3.61166 18.6118 4.69013V5.97351" stroke="#C5C5C5" stroke-width="0.5" stroke-linecap="round" stroke-linejoin="round"/>
<path d="M6.04897 23.7965H12.809V27.2466H6.04897V23.7965Z" stroke="#ABABAB" stroke-width="0.5" stroke-linecap="round" stroke-linejoin="round"/>
<path d="M25.8953 6.81705H26.9201C27.6784 6.81705 28.2938 7.43239 28.2938 8.19144V13.8031C28.2938 14.5614 27.6784 15.1768 26.9201 15.1768H25.8953C25.7149 15.1768 25.5363 15.1412 25.3696 15.0722C25.2029 15.0032 25.0515 14.902 24.9239 14.7744C24.7964 14.6469 24.6952 14.4954 24.6262 14.3288C24.5571 14.1621 24.5216 13.9835 24.5216 13.8031V8.19144C24.5216 7.43239 25.1369 6.81705 25.8953 6.81705V6.81705Z" stroke="#ED1B24" stroke-width="0.5" stroke-linecap="round" stroke-linejoin="round"/>
<path d="M26.4075 6.81704V2.0482" stroke="#ED1B24" stroke-width="0.5" stroke-linecap="round" stroke-linejoin="round"/>
<path d="M0.555557 5.94461H18.6111V14.9695C18.6111 17.7342 16.7911 19.9745 14.545 19.9745H13.5592C11.2986 20.384 11.3925 23.7965 11.3925 23.7965H7.30472C7.30472 23.7965 7.39861 20.384 5.13806 19.9745H4.62239C2.37628 19.9745 0.555557 17.7342 0.555557 14.9695V5.94605V5.94461Z" stroke="#C5C5C5" stroke-width="0.5" stroke-miterlimit="10"/>
<path d="M12.1162 14.2704C12.137 14.6159 12.0869 14.9621 11.969 15.2875C11.851 15.613 11.6678 15.9109 11.4304 16.1629C11.193 16.4149 10.9066 16.6156 10.5887 16.7527C10.2709 16.8899 9.92832 16.9605 9.58214 16.9603C9.23597 16.9601 8.89349 16.8891 8.57579 16.7516C8.2581 16.6141 7.9719 16.413 7.73482 16.1608C7.49773 15.9085 7.31478 15.6104 7.19722 15.2848C7.07965 14.9592 7.02996 14.613 7.05121 14.2675C7.05121 14.2675 7.02376 12.4561 9.1601 9.17942C9.1601 9.17942 9.56093 8.49981 9.96465 9.13464C12.1017 12.4114 12.1162 14.2704 12.1162 14.2704" stroke="#ED1B24" stroke-width="0.375" stroke-linecap="round" stroke-linejoin="round"/>
</svg>
