<svg width="30" height="30" viewBox="0 0 30 30" fill="none" xmlns="http://www.w3.org/2000/svg">
<path fill-rule="evenodd" clip-rule="evenodd" d="M15.6667 22.5H17.9167C23.67 22.5 28.3333 17.8367 28.3333 12.0833C28.3333 6.33 23.67 1.66667 17.9167 1.66667H12.0833C6.33 1.66667 1.66667 6.33 1.66667 12.0833C1.66667 18.8 5.49667 22.8167 9.525 25.2383C11.5467 26.4533 13.5833 27.2383 15.1217 27.7192C15.3117 27.7783 15.4942 27.8333 15.6667 27.8833V22.5ZM17.3333 30C17.3333 30 16.6967 29.8925 15.6667 29.6142C11.325 28.4375 0 24.2083 0 12.0833C0 5.41 5.41 0 12.0833 0H17.9167C24.59 0 30 5.41 30 12.0833C30 18.7567 24.59 24.1667 17.9167 24.1667H17.3333V30Z" fill="#ED1B24"/>
<path fill-rule="evenodd" clip-rule="evenodd" d="M18.0762 5.40166C18.9345 5.97166 19.5812 6.89583 19.5812 8.13499C19.5812 9.44999 19.0512 10.4167 18.192 11.0083C17.8528 11.238 17.4785 11.4108 17.0837 11.52V12.7967C17.0837 13.1282 16.952 13.4461 16.7176 13.6805C16.4832 13.915 16.1652 14.0467 15.8337 14.0467C15.5022 14.0467 15.1842 13.915 14.9498 13.6805C14.7154 13.4461 14.5837 13.1282 14.5837 12.7967V10.4658C14.5836 10.1487 14.7041 9.84337 14.9207 9.61174C15.1373 9.3801 15.4339 9.23947 15.7504 9.21833C16.212 9.18749 16.562 9.09583 16.7729 8.94999C16.8583 8.89338 16.9273 8.81519 16.9729 8.72333C17.0229 8.62333 17.0812 8.44499 17.0812 8.13416C17.0812 7.87333 16.9795 7.67416 16.692 7.48249C16.3654 7.26583 15.8404 7.10583 15.2095 7.08583C14.5862 7.06583 13.9804 7.18749 13.5345 7.40333C13.0879 7.61999 12.9237 7.86333 12.8779 8.04249C12.837 8.2015 12.7653 8.35092 12.6667 8.4822C12.5682 8.61348 12.4447 8.72407 12.3034 8.80764C12.1621 8.89121 12.0057 8.94614 11.8432 8.96928C11.6807 8.99241 11.5152 8.98331 11.3562 8.94249C11.1972 8.90168 11.0478 8.82994 10.9165 8.73137C10.7852 8.63281 10.6746 8.50936 10.591 8.36806C10.5075 8.22676 10.4525 8.07038 10.4294 7.90785C10.4063 7.74533 10.4154 7.57984 10.4562 7.42083C10.7437 6.30333 11.5795 5.57333 12.4445 5.15416C13.3112 4.73333 14.3304 4.55583 15.2887 4.58666C16.2412 4.61666 17.2579 4.85666 18.0762 5.40166Z" fill="#ED1B24"/>
<path d="M17.5003 17.5C17.5003 17.942 17.3247 18.3659 17.0121 18.6785C16.6995 18.9911 16.2756 19.1667 15.8336 19.1667C15.3916 19.1667 14.9676 18.9911 14.6551 18.6785C14.3425 18.3659 14.1669 17.942 14.1669 17.5C14.1669 17.058 14.3425 16.634 14.6551 16.3215C14.9676 16.0089 15.3916 15.8333 15.8336 15.8333C16.2756 15.8333 16.6995 16.0089 17.0121 16.3215C17.3247 16.634 17.5003 17.058 17.5003 17.5Z" fill="#ED1B24"/>
</svg>
