<svg width="35" height="35" viewBox="0 0 35 35" fill="none" xmlns="http://www.w3.org/2000/svg">
<path d="M25.5179 17.4927C27.6452 17.4927 29.6853 18.3378 31.1895 19.842C32.6937 21.3462 33.5388 23.3863 33.5388 25.5135C33.5388 27.6408 32.6937 29.6809 31.1895 31.1851C29.6853 32.6893 27.6452 33.5344 25.5179 33.5344C23.3907 33.5344 21.3505 32.6893 19.8463 31.1851C18.3421 29.6809 17.4971 27.6408 17.4971 25.5135C17.4971 23.3863 18.3421 21.3462 19.8463 19.842C21.3505 18.3378 23.3907 17.4927 25.5179 17.4927ZM25.5179 20.4094L25.3867 20.4196C25.241 20.4462 25.1068 20.5166 25.0021 20.6213C24.8974 20.726 24.827 20.8601 24.8004 21.0058L24.7888 21.1371V24.7829L21.1385 24.7844L21.0073 24.796C20.8616 24.8227 20.7275 24.893 20.6227 24.9977C20.518 25.1025 20.4477 25.2366 20.421 25.3823L20.4094 25.5135L20.421 25.6448C20.4477 25.7905 20.518 25.9246 20.6227 26.0293C20.7275 26.1341 20.8616 26.2044 21.0073 26.231L21.1385 26.2427H24.7888V29.8944L24.8019 30.0256C24.8285 30.1713 24.8989 30.3055 25.0036 30.4102C25.1083 30.5149 25.2424 30.5853 25.3881 30.6119L25.5194 30.6235L25.6506 30.6119C25.7963 30.5853 25.9305 30.5149 26.0352 30.4102C26.1399 30.3055 26.2103 30.1713 26.2369 30.0256L26.2486 29.8944V26.2413L29.8988 26.2427L30.03 26.231C30.1757 26.2044 30.3098 26.1341 30.4146 26.0293C30.5193 25.9246 30.5896 25.7905 30.6163 25.6448L30.6279 25.5135L30.6163 25.3823C30.5896 25.2366 30.5193 25.1025 30.4146 24.9977C30.3098 24.893 30.1757 24.8227 30.03 24.796L29.8988 24.7844H26.2456V21.1385L26.234 21.0073C26.2076 20.8613 26.1374 20.7269 26.0326 20.6219C25.9279 20.5169 25.7936 20.4463 25.6477 20.4196L25.5165 20.4079L25.5179 20.4094ZM17.5277 20.4094C17.0911 21.0912 16.7441 21.8264 16.4952 22.5969H13.4867C13.39 22.5969 13.2972 22.6353 13.2289 22.7037C13.1605 22.772 13.1221 22.8648 13.1221 22.9615V24.4198C13.1221 25.8446 14.0146 26.6729 16.1394 26.9121C16.2561 27.6938 16.4675 28.4433 16.7606 29.1521C13.0375 28.9523 10.9346 27.37 10.9346 24.4198V22.9615C10.9346 21.5527 12.0765 20.4094 13.4867 20.4094H17.5292H17.5277ZM11.8475 13.1177C11.6633 13.8315 11.6158 14.5737 11.7075 15.3052H5.46584C5.36915 15.3052 5.27641 15.3436 5.20804 15.412C5.13967 15.4804 5.10126 15.5731 5.10126 15.6698V17.1281C5.10126 18.8431 6.39334 19.6948 9.57251 19.6948C10.1617 19.7004 10.7506 19.6624 11.3342 19.581C10.4998 20.1097 9.89044 20.9283 9.62355 21.8794L9.57251 21.8808C5.33022 21.8808 2.91376 20.2913 2.91376 17.1281V15.6698C2.91378 15.0293 3.15463 14.4122 3.5885 13.9411C4.02237 13.47 4.61753 13.1792 5.25584 13.1265L5.46584 13.1177H11.8475ZM17.4971 10.201C18.6574 10.201 19.7702 10.662 20.5907 11.4825C21.4112 12.3029 21.8721 13.4157 21.8721 14.576C21.8721 15.7364 21.4112 16.8492 20.5907 17.6696C19.7702 18.4901 18.6574 18.951 17.4971 18.951C16.3368 18.951 15.224 18.4901 14.4035 17.6696C13.583 16.8492 13.1221 15.7364 13.1221 14.576C13.1221 13.4157 13.583 12.3029 14.4035 11.4825C15.224 10.662 16.3368 10.201 17.4971 10.201ZM29.5283 13.1177C30.9371 13.1177 32.0804 14.261 32.0804 15.6698L32.0775 17.0727C32.1096 17.5692 32.0669 18.0677 31.9506 18.5515C31.3324 17.9798 30.641 17.4928 29.8944 17.1033L29.8929 15.6698C29.8929 15.5731 29.8545 15.4804 29.7861 15.412C29.7178 15.3436 29.625 15.3052 29.5283 15.3052H23.2852C23.3766 14.5738 23.3296 13.8317 23.1467 13.1177H29.5283ZM17.4971 12.3885C16.9169 12.3885 16.3605 12.619 15.9503 13.0292C15.5401 13.4395 15.3096 13.9959 15.3096 14.576C15.3096 15.1562 15.5401 15.7126 15.9503 16.1228C16.3605 16.5331 16.9169 16.7635 17.4971 16.7635C18.0773 16.7635 18.6337 16.5331 19.0439 16.1228C19.4541 15.7126 19.6846 15.1562 19.6846 14.576C19.6846 13.9959 19.4541 13.4395 19.0439 13.0292C18.6337 12.619 18.0773 12.3885 17.4971 12.3885ZM9.47626 2.90938C10.6366 2.90938 11.7494 3.37031 12.5698 4.19079C13.3903 5.01126 13.8513 6.12406 13.8513 7.28438C13.8513 8.4447 13.3903 9.5575 12.5698 10.378C11.7494 11.1984 10.6366 11.6594 9.47626 11.6594C8.31594 11.6594 7.20314 11.1984 6.38266 10.378C5.56219 9.5575 5.10126 8.4447 5.10126 7.28438C5.10126 6.12406 5.56219 5.01126 6.38266 4.19079C7.20314 3.37031 8.31594 2.90938 9.47626 2.90938ZM25.5179 2.90938C26.6782 2.90938 27.791 3.37031 28.6115 4.19079C29.432 5.01126 29.8929 6.12406 29.8929 7.28438C29.8929 8.4447 29.432 9.5575 28.6115 10.378C27.791 11.1984 26.6782 11.6594 25.5179 11.6594C24.3576 11.6594 23.2448 11.1984 22.4243 10.378C21.6039 9.5575 21.1429 8.4447 21.1429 7.28438C21.1429 6.12406 21.6039 5.01126 22.4243 4.19079C23.2448 3.37031 24.3576 2.90938 25.5179 2.90938ZM9.47626 5.09688C8.8961 5.09688 8.3397 5.32735 7.92946 5.73758C7.51923 6.14782 7.28876 6.70422 7.28876 7.28438C7.28876 7.86454 7.51923 8.42094 7.92946 8.83117C8.3397 9.24141 8.8961 9.47188 9.47626 9.47188C10.0564 9.47188 10.6128 9.24141 11.0231 8.83117C11.4333 8.42094 11.6638 7.86454 11.6638 7.28438C11.6638 6.70422 11.4333 6.14782 11.0231 5.73758C10.6128 5.32735 10.0564 5.09688 9.47626 5.09688ZM25.5179 5.09688C24.9378 5.09688 24.3814 5.32735 23.9711 5.73758C23.5609 6.14782 23.3304 6.70422 23.3304 7.28438C23.3304 7.86454 23.5609 8.42094 23.9711 8.83117C24.3814 9.24141 24.9378 9.47188 25.5179 9.47188C26.0981 9.47188 26.6545 9.24141 27.0647 8.83117C27.475 8.42094 27.7054 7.86454 27.7054 7.28438C27.7054 6.70422 27.475 6.14782 27.0647 5.73758C26.6545 5.32735 26.0981 5.09688 25.5179 5.09688Z" fill="#ED1B24"/>
</svg>
