<svg width="43" height="43" viewBox="0 0 43 43" fill="none" xmlns="http://www.w3.org/2000/svg">
<path d="M18.5681 5.375C15.9588 5.375 13.408 6.14876 11.2384 7.59844C9.06882 9.04812 7.37783 11.1086 6.37927 13.5193C5.38072 15.9301 5.11945 18.5827 5.62851 21.142C6.13757 23.7012 7.39409 26.052 9.23918 27.897C11.0843 29.7421 13.4351 30.9987 15.9943 31.5077C18.5535 32.0168 21.2062 31.7555 23.6169 30.757C26.0276 29.7584 28.0881 28.0674 29.5378 25.8978C30.9875 23.7282 31.7612 21.1775 31.7612 18.5681C31.761 15.0691 30.3709 11.7136 27.8968 9.23942C25.4227 6.76528 22.0671 5.37522 18.5681 5.375V5.375Z" stroke="#ED1B24" stroke-width="2.5" stroke-miterlimit="10"/>
<path d="M28.411 28.411L37.6249 37.625" stroke="#ED1B24" stroke-width="2.5" stroke-miterlimit="10" stroke-linecap="round"/>
<g clip-path="url(#clip0_152_3449)">
<path d="M18.275 10.7592C18.81 11.9953 19.6914 13.7581 21.3279 15.7649C22.476 17.1735 23.528 19.0659 23.528 21.0067C23.528 24.1818 21.2753 26.296 18.275 26.296C15.2745 26.296 13.0219 24.1832 13.0219 21.0067C13.0219 19.1458 14.0773 17.1693 15.2222 15.7647C16.8586 13.7581 17.74 11.9952 18.275 10.7592Z" stroke="#ED1B24" stroke-width="1.5"/>
<path d="M18.7649 20.9022L18.7649 20.9022C17.9966 22.3637 18.6273 23.3631 19.2613 23.5757L19.2615 23.5758C19.7333 23.7342 20.116 23.6454 20.4215 23.4026C20.746 23.1448 21.0237 22.6774 21.1602 22.0247L18.7649 20.9022ZM18.7649 20.9022C19.2001 20.0744 19.4255 19.248 19.5895 18.6466M18.7649 20.9022L19.5895 18.6466M19.5895 18.6466C19.6179 18.5424 19.6445 18.445 19.67 18.3555M19.5895 18.6466L19.67 18.3555M19.67 18.3555C19.7326 18.1358 19.7818 17.9908 19.822 17.8981M19.67 18.3555L19.822 17.8981M19.822 17.8981C19.957 17.982 20.116 18.123 20.2828 18.3309C20.4944 18.5946 20.6973 18.9398 20.8621 19.3399C21.1934 20.1445 21.3494 21.1186 21.1602 22.0245L19.822 17.8981ZM19.7098 17.8388L19.7102 17.838L19.7092 17.8378C19.7062 17.8372 19.7046 17.8367 19.7046 17.8367C19.7046 17.8368 19.7063 17.8374 19.7098 17.8388Z" stroke="#ED1B24"/>
</g>
<defs>
<clipPath id="clip0_152_3449">
<rect width="19.35" height="19.35" fill="white" transform="translate(8.59999 8.60001)"/>
</clipPath>
</defs>
</svg>
