<svg width="35" height="35" viewBox="0 0 35 35" fill="none" xmlns="http://www.w3.org/2000/svg">
<path d="M12.8333 16.3333C11.2862 16.3333 9.80246 15.7188 8.7085 14.6248C7.61454 13.5308 6.99996 12.0471 6.99996 10.5V5.83333C6.99996 5.52391 7.12288 5.22717 7.34167 5.00837C7.56046 4.78958 7.85721 4.66667 8.16663 4.66667H9.33329C9.64271 4.66667 9.93946 4.54375 10.1582 4.32496C10.377 4.10616 10.5 3.80942 10.5 3.5C10.5 3.19058 10.377 2.89383 10.1582 2.67504C9.93946 2.45625 9.64271 2.33333 9.33329 2.33333H8.16663C7.23837 2.33333 6.34813 2.70208 5.69175 3.35846C5.03537 4.01484 4.66663 4.90507 4.66663 5.83333V10.5C4.66813 11.818 4.98953 13.116 5.60323 14.2824C6.21692 15.4489 7.10458 16.4489 8.18996 17.1967C9.23276 18.116 10.0785 19.2372 10.676 20.4924C11.2735 21.7476 11.6105 23.1109 11.6666 24.5C11.6666 26.6659 12.527 28.7432 14.0586 30.2747C15.5901 31.8063 17.6674 32.6667 19.8333 32.6667C21.9992 32.6667 24.0764 31.8063 25.608 30.2747C27.1395 28.7432 28 26.6659 28 24.5V23.17C29.0997 22.886 30.0582 22.2107 30.6957 21.2707C31.3331 20.3306 31.6059 19.1903 31.4628 18.0635C31.3196 16.9367 30.7705 15.9008 29.9182 15.15C29.066 14.3991 27.9691 13.9849 26.8333 13.9849C25.6975 13.9849 24.6006 14.3991 23.7484 15.15C22.8961 15.9008 22.3469 16.9367 22.2038 18.0635C22.0607 19.1903 22.3334 20.3306 22.9709 21.2707C23.6084 22.2107 24.5669 22.886 25.6666 23.17V24.5C25.6666 26.0471 25.052 27.5308 23.9581 28.6248C22.8641 29.7188 21.3804 30.3333 19.8333 30.3333C18.2862 30.3333 16.8025 29.7188 15.7085 28.6248C14.6145 27.5308 14 26.0471 14 24.5C14.059 23.1092 14.3996 21.7449 15.0012 20.4895C15.6028 19.2342 16.4529 18.114 17.5 17.1967C18.581 16.4463 19.4641 15.4451 20.0737 14.2789C20.6832 13.1126 21.0011 11.816 21 10.5V5.83333C21 4.90507 20.6312 4.01484 19.9748 3.35846C19.3185 2.70208 18.4282 2.33333 17.5 2.33333H16.3333C16.0239 2.33333 15.7271 2.45625 15.5083 2.67504C15.2895 2.89383 15.1666 3.19058 15.1666 3.5C15.1666 3.80942 15.2895 4.10616 15.5083 4.32496C15.7271 4.54375 16.0239 4.66667 16.3333 4.66667H17.5C17.8094 4.66667 18.1061 4.78958 18.3249 5.00837C18.5437 5.22717 18.6666 5.52391 18.6666 5.83333V10.5C18.6666 11.266 18.5157 12.0246 18.2226 12.7323C17.9294 13.4401 17.4998 14.0831 16.9581 14.6248C16.4164 15.1665 15.7733 15.5961 15.0656 15.8893C14.3579 16.1825 13.5993 16.3333 12.8333 16.3333ZM26.8333 21C26.2145 21 25.621 20.7542 25.1834 20.3166C24.7458 19.879 24.5 19.2855 24.5 18.6667C24.5 18.0478 24.7458 17.4543 25.1834 17.0168C25.621 16.5792 26.2145 16.3333 26.8333 16.3333C27.4521 16.3333 28.0456 16.5792 28.4832 17.0168C28.9208 17.4543 29.1666 18.0478 29.1666 18.6667C29.1666 19.2855 28.9208 19.879 28.4832 20.3166C28.0456 20.7542 27.4521 21 26.8333 21Z" fill="#ED1B24"/>
</svg>
