<svg width="24" height="24" viewBox="0 0 24 24" fill="none" xmlns="http://www.w3.org/2000/svg">
<path d="M11.9999 2.21755C12.6404 3.74905 13.732 6.08224 15.9261 8.7726C17.3608 10.5328 18.6956 12.9202 18.6956 15.3881C18.6956 19.4282 15.8184 22.1288 11.9999 22.1288C8.18136 22.1288 5.30432 19.4299 5.30432 15.3881C5.30432 13.0201 6.64236 10.5288 8.0738 8.7726C10.2678 6.08224 11.3595 3.74905 11.9999 2.21755Z" stroke="#ED1B24" stroke-width="1.5"/>
<path d="M12.5013 15.2027L12.5013 15.2027C11.5252 17.0593 12.3073 18.3941 13.1852 18.6884L13.1853 18.6885C13.808 18.8976 14.3255 18.781 14.7371 18.4539C15.1677 18.1117 15.5229 17.5035 15.6961 16.6753L12.5013 15.2027ZM12.5013 15.2027C13.0343 14.1886 13.3102 13.1776 13.5138 12.4314M12.5013 15.2027L13.5138 12.4314M13.5138 12.4314C13.5493 12.3014 13.5826 12.1795 13.6146 12.0669M13.5138 12.4314L13.6146 12.0669M13.6146 12.0669C13.7196 11.6985 13.7984 11.4823 13.8675 11.3671M13.6146 12.0669L13.8675 11.3671M13.8675 11.3671C14.0764 11.4679 14.3264 11.6731 14.584 11.9942C14.8545 12.3313 15.1118 12.7697 15.3199 13.2751C15.7379 14.2901 15.9367 15.5232 15.6962 16.6752L13.8675 11.3671Z" stroke="#ED1B24"/>
</svg>
