<svg width="35" height="35" viewBox="0 0 35 35" fill="none" xmlns="http://www.w3.org/2000/svg">
<path d="M30.625 10.6641C28.812 10.6641 27.0732 9.94385 25.7913 8.66186C24.5093 7.37988 23.7891 5.64113 23.7891 3.82812C23.7891 3.61056 23.7026 3.40191 23.5488 3.24808C23.395 3.09424 23.1863 3.00781 22.9687 3.00781H17.5C17.2824 3.00781 17.0738 3.09424 16.9199 3.24808C16.7661 3.40191 16.6797 3.61056 16.6797 3.82812V21.3281C16.6795 21.8665 16.5347 22.395 16.2606 22.8584C15.9864 23.3218 15.5929 23.7031 15.1211 23.9625C14.6494 24.2219 14.1166 24.3499 13.5785 24.3332C13.0403 24.3165 12.5165 24.1556 12.0618 23.8674C11.607 23.5792 11.2379 23.1742 10.9931 22.6947C10.7482 22.2152 10.6366 21.6788 10.6698 21.1414C10.703 20.604 10.8798 20.0854 11.1818 19.6397C11.4838 19.194 11.8999 18.8375 12.3867 18.6074C12.5258 18.5405 12.6432 18.4358 12.7254 18.3052C12.8076 18.1746 12.8514 18.0235 12.8516 17.8691V12.1816C12.8512 12.0608 12.8246 11.9414 12.7735 11.8318C12.7225 11.7222 12.6482 11.6251 12.5559 11.547C12.4635 11.469 12.3554 11.412 12.2388 11.3799C12.1222 11.3479 12.0001 11.3415 11.8809 11.3613C9.98726 11.7019 8.23004 12.5754 6.81529 13.8793C5.40055 15.1832 4.38693 16.8635 3.89332 18.7231C3.39971 20.5827 3.44658 22.5445 4.02842 24.3784C4.61027 26.2122 5.70298 27.8422 7.17838 29.0771C8.65378 30.3119 10.4507 31.1005 12.3584 31.3503C14.2661 31.6001 16.2055 31.3007 17.9491 30.4873C19.6926 29.6739 21.1682 28.3802 22.2025 26.758C23.2369 25.1357 23.7873 23.2521 23.7891 21.3281V15.9824C25.874 17.1617 28.2297 17.7788 30.625 17.7734C30.8426 17.7734 31.0512 17.687 31.205 17.5332C31.3589 17.3793 31.4453 17.1707 31.4453 16.9531V11.4844C31.4453 11.2668 31.3589 11.0582 31.205 10.9043C31.0512 10.7505 30.8426 10.6641 30.625 10.6641ZM29.8047 16.1055C27.5125 15.9597 25.3084 15.1681 23.4473 13.8223C23.3257 13.7345 23.1824 13.6817 23.033 13.6697C22.8835 13.6576 22.7337 13.6867 22.5996 13.7539C22.465 13.8251 22.3521 13.9312 22.2727 14.0611C22.1933 14.1911 22.1504 14.34 22.1484 14.4922V21.3281C22.1467 22.898 21.7089 24.4366 20.884 25.7723C20.0592 27.1081 18.8795 28.1885 17.4767 28.8932C16.0738 29.5978 14.5028 29.8991 12.9387 29.7633C11.3747 29.6275 9.87912 29.0601 8.61867 28.1242C7.35821 27.1883 6.38243 25.9207 5.80008 24.4628C5.21773 23.0049 5.05169 21.4139 5.32048 19.8672C5.58926 18.3205 6.28231 16.8788 7.32237 15.7028C8.36243 14.5268 9.70864 13.6628 11.2109 13.207V17.3906C10.5242 17.8192 9.96129 18.4196 9.5779 19.1325C9.19451 19.8454 9.00392 20.6461 9.02502 21.4553C9.04611 22.2645 9.27814 23.0542 9.69815 23.7461C10.1182 24.4381 10.7116 25.0084 11.4197 25.4006C12.1278 25.7928 12.9261 25.9933 13.7355 25.9822C14.5449 25.9711 15.3373 25.7489 16.0345 25.3375C16.7316 24.9261 17.3092 24.3397 17.7101 23.6365C18.111 22.9333 18.3214 22.1376 18.3203 21.3281V4.64844H22.1894C22.3798 6.60354 23.2433 8.43184 24.6323 9.82084C26.0213 11.2098 27.8496 12.0733 29.8047 12.2637V16.1055Z" fill="#ED1B24"/>
</svg>
