<svg width="27" height="29" viewBox="0 0 27 29" fill="none" xmlns="http://www.w3.org/2000/svg">
<g filter="url(#filter0_d_152_3383)">
<path d="M13 3C8.03725 3 4 7.03725 4 12C4 16.9628 8.03725 21 13 21C16.0375 21 18.73 19.491 20.3597 17.1795L19.141 16.3125C18.4492 17.2985 17.5297 18.1031 16.4607 18.658C15.3916 19.2129 14.2045 19.5017 13 19.5C8.84875 19.5 5.5 16.1512 5.5 12C5.5 7.84875 8.84875 4.5 13 4.5C14.2044 4.4986 15.3915 4.78757 16.4605 5.34245C17.5295 5.89732 18.449 6.70173 19.141 7.6875L20.3597 6.8205C19.5298 5.63967 18.4277 4.67602 17.1467 4.01104C15.8656 3.34605 14.4433 2.99926 13 3ZM18.508 8.46075L17.4295 9.53925L19.141 11.25H10V12.75H19.141L17.4295 14.4608L18.508 15.5393L21.508 12.5393L22.0225 12L21.5072 11.4608L18.508 8.46075Z" fill="#ED1B24"/>
</g>
<defs>
<filter id="filter0_d_152_3383" x="-3" y="0" width="32" height="32" filterUnits="userSpaceOnUse" color-interpolation-filters="sRGB">
<feFlood flood-opacity="0" result="BackgroundImageFix"/>
<feColorMatrix in="SourceAlpha" type="matrix" values="0 0 0 0 0 0 0 0 0 0 0 0 0 0 0 0 0 0 127 0" result="hardAlpha"/>
<feOffset dy="4"/>
<feGaussianBlur stdDeviation="2"/>
<feComposite in2="hardAlpha" operator="out"/>
<feColorMatrix type="matrix" values="0 0 0 0 0 0 0 0 0 0 0 0 0 0 0 0 0 0 0.25 0"/>
<feBlend mode="normal" in2="BackgroundImageFix" result="effect1_dropShadow_152_3383"/>
<feBlend mode="normal" in="SourceGraphic" in2="effect1_dropShadow_152_3383" result="shape"/>
</filter>
</defs>
</svg>
