<svg width="20" height="20" viewBox="0 0 20 20" fill="none" xmlns="http://www.w3.org/2000/svg">
<path d="M10 0C8.50455 0 7.27273 1.23182 7.27273 2.72727C7.27273 3.04727 7.34 3.34909 7.44364 3.63636H2.89818L2.75545 4.37545L0.0281819 18.0118L0 18.0964V20H20V18.0964L19.9718 18.0118L17.2445 4.37545L17.1018 3.63636H12.5564C12.6656 3.34552 12.7234 3.03791 12.7273 2.72727C12.7273 1.23182 11.4955 0 10 0ZM10 1.81818C10.5118 1.81818 10.9091 2.21636 10.9091 2.72727C10.9091 3.23909 10.5109 3.63636 10 3.63636C9.48818 3.63636 9.09091 3.23818 9.09091 2.72727C9.09091 2.21545 9.48909 1.81818 10 1.81818ZM4.37455 5.45455H15.6255L18.1818 18.1818H1.81818L4.37455 5.45455Z" fill="#ED1B24"/>
</svg>
