<svg id="f7789695-fe6c-4acc-b73e-725a935b9152" data-name="Layer 1" xmlns="http://www.w3.org/2000/svg" xmlns:xlink="http://www.w3.org/1999/xlink" viewBox="0 0 97.76 110"><defs><style>.eddd291a-013d-40e8-a68e-58e20c7e2f17{fill:#4472c2;}.aff806de-7492-4732-8683-e6ae28877fb8{fill:url(#b6fe25b5-93f9-4841-bc46-2fb3c5ace68b);}.af831919-5009-4034-8e1c-2e698dc55f79{fill:#fefefe;}</style><linearGradient id="b6fe25b5-93f9-4841-bc46-2fb3c5ace68b" x1="49.68" y1="36.39" x2="92.31" y2="79.02" gradientUnits="userSpaceOnUse"><stop offset="0" stop-color="#9e1820"/><stop offset="0.62" stop-color="#e51c25"/></linearGradient></defs><path class="eddd291a-013d-40e8-a68e-58e20c7e2f17" d="M44.92,92.26,40,84.86a1.31,1.31,0,0,1,.08-1.61c.51-.53,1.66-.71,4.19,1.1,3.62,2.58,7.23,4.35,14,11.34a31.13,31.13,0,0,1,8.78,21.91c0,1.62-.21,5.06-.38,7-.08.85-1.21-.71-1.59-1.48-1.87-3.75-7.45-10.67-24.11-17,0,0-12.52-5.28-14.5-21.09,0,0-2.63-11.2-3.95-13.84-1.48-3,.66-2.63.66-2.63s1.88-.47,3.95,2.63c1.32,2,5.93,16.48,10.24,19.47C37.37,90.64,48.88,99.51,44.92,92.26Z" transform="translate(-22 -14.8)"/><path class="eddd291a-013d-40e8-a68e-58e20c7e2f17" d="M96.84,92.26l4.93-7.4a1.29,1.29,0,0,0-.08-1.61c-.51-.53-1.65-.71-4.19,1.1-3.61,2.58-7.23,4.35-14,11.34a31.08,31.08,0,0,0-8.77,21.91c0,1.62.21,5.06.37,7,.08.85,1.21-.71,1.59-1.48,1.87-3.75,7.45-10.67,24.11-17,0,0,12.52-5.28,14.5-21.09,0,0,2.64-11.2,3.95-13.84,1.48-3-.65-2.63-.65-2.63s-1.89-.47-4,2.63c-1.32,2-5.93,16.48-10.23,19.47C104.4,90.64,92.89,99.51,96.84,92.26Z" transform="translate(-22 -14.8)"/><path class="aff806de-7492-4732-8683-e6ae28877fb8" d="M50.85,80.69a4.08,4.08,0,0,1-.32-.28c-2.48-2.29-18.14-18.26,1-42a57.31,57.31,0,0,1,7.63-7.71C62.92,27.51,69.85,21,71.28,14.8c0,0,2.35,8.81,13.16,17.56A39.47,39.47,0,0,1,90.17,38c5.44,6.64,14.09,20.53,6.38,35a29.9,29.9,0,0,1-24,15.61C65.91,89.17,54.8,84.64,50.85,80.69Z" transform="translate(-22 -14.8)"/><path class="af831919-5009-4034-8e1c-2e698dc55f79" d="M48.69,73.92c-4.09-4.68-13.49-20.07,12-44,0,0-14.16,18.47-6.18,34a14.75,14.75,0,0,1,1.72,5.74c.18,2.53-.3,5.37-3.21,5.88A4.78,4.78,0,0,1,48.69,73.92Z" transform="translate(-22 -14.8)"/><polygon class="af831919-5009-4034-8e1c-2e698dc55f79" points="44.01 34.27 44.01 24.38 57.84 24.38 57.84 34.27 68.39 34.27 68.39 47.45 57.84 47.45 57.84 57.99 44.01 57.99 44.01 47.45 34.12 47.45 34.12 34.27 44.01 34.27"/></svg>