<svg id="bbe8ea08-cae7-4d22-8b40-4bb4f1560393" data-name="Layer 1" xmlns="http://www.w3.org/2000/svg" xmlns:xlink="http://www.w3.org/1999/xlink" viewBox="0 0 55.14 62.05"><defs><style>.b809c492-972f-42e8-8b54-5808f15523fc{fill:#4472c2;}.e1545e74-2b93-434a-9d09-1ae83bba0ff5{fill:url(#ac81adea-accd-4857-aeef-582beb906972);}.ac76a523-39c7-4d75-a909-4e421ac9f5be{fill:#fefefe;}</style><linearGradient id="ac81adea-accd-4857-aeef-582beb906972" x1="20.04" y1="13.16" x2="44.09" y2="37.21" gradientUnits="userSpaceOnUse"><stop offset="0" stop-color="#9e1820"/><stop offset="0.62" stop-color="#e51c25"/></linearGradient></defs><path class="b809c492-972f-42e8-8b54-5808f15523fc" d="M17.36,44.67,14.58,40.5a.74.74,0,0,1,0-.91c.29-.3.94-.4,2.37.62a41.74,41.74,0,0,1,7.9,6.39A17.58,17.58,0,0,1,29.84,59c0,.92-.12,2.86-.22,3.92,0,.48-.68-.4-.89-.83-1.06-2.12-4.2-6-13.6-9.57A15,15,0,0,1,7,40.58a70.44,70.44,0,0,0-2.23-7.8c-.83-1.67.37-1.49.37-1.49S6.16,31,7.32,32.78c.75,1.11,3.35,9.29,5.78,11C13.1,43.76,19.59,48.76,17.36,44.67Z" transform="translate(-4.43 -0.98)"/><path class="b809c492-972f-42e8-8b54-5808f15523fc" d="M46.64,44.67l2.78-4.17a.74.74,0,0,0,0-.91c-.29-.3-.94-.4-2.37.62a41.74,41.74,0,0,0-7.9,6.39,17.58,17.58,0,0,0-5,12.36c0,.92.12,2.86.22,3.92,0,.48.68-.4.89-.83,1.06-2.12,4.2-6,13.6-9.57a15,15,0,0,0,8.18-11.9,70.44,70.44,0,0,1,2.23-7.8c.83-1.67-.37-1.49-.37-1.49s-1.07-.26-2.23,1.49c-.75,1.11-3.35,9.29-5.78,11C50.9,43.76,44.41,48.76,46.64,44.67Z" transform="translate(-4.43 -0.98)"/><path class="e1545e74-2b93-434a-9d09-1ae83bba0ff5" d="M20.7,38.15,20.52,38c-1.4-1.29-10.23-10.3.58-23.71a31.57,31.57,0,0,1,4.3-4.35c2.11-1.78,6-5.46,6.82-8.95,0,0,1.33,5,7.43,9.91a22.44,22.44,0,0,1,3.23,3.16c3.07,3.74,7.95,11.58,3.6,19.75A16.87,16.87,0,0,1,33,42.61C29.19,42.93,22.93,40.38,20.7,38.15Z" transform="translate(-4.43 -0.98)"/><path class="ac76a523-39c7-4d75-a909-4e421ac9f5be" d="M19.48,34.32c-2.31-2.63-7.6-11.31,6.8-24.79,0,0-8,10.41-3.49,19.16a8.5,8.5,0,0,1,1,3.25c.1,1.42-.17,3-1.81,3.31A2.7,2.7,0,0,1,19.48,34.32Z" transform="translate(-4.43 -0.98)"/><polygon class="ac76a523-39c7-4d75-a909-4e421ac9f5be" points="24.82 19.33 24.82 13.75 32.63 13.75 32.63 19.33 38.57 19.33 38.57 26.76 32.63 26.76 32.63 32.71 24.82 32.71 24.82 26.76 19.25 26.76 19.25 19.33 24.82 19.33"/></svg>